
<svg xmlns="http://www.w3.org/2000/svg" version="1.1" xmlns:xlink="http://www.w3.org/1999/xlink" preserveAspectRatio="none" x="0px" y="0px" width="300px" height="150px" viewBox="0 0 300 150">
<defs>
<linearGradient id="Gradient_1" gradientUnits="userSpaceOnUse" x1="13.274999999999999" y1="54.475" x2="36.725" y2="7.024999999999999" spreadMethod="pad">
<stop  offset="0%" stop-color="#513F36"/>

<stop  offset="0%" stop-color="#000000"/>

<stop  offset="0%" stop-color="#000000"/>

<stop  offset="100%" stop-color="#E6D0A4"/>
</linearGradient>

<linearGradient id="Gradient_2" gradientUnits="userSpaceOnUse" x1="-35.012499999999996" y1="113.55" x2="-61.7875" y2="25.14999999999999" spreadMethod="pad">
<stop  offset="0%" stop-color="#513F36"/>

<stop  offset="0%" stop-color="#000000"/>

<stop  offset="0%" stop-color="#000000"/>

<stop  offset="100%" stop-color="#E6D0A4"/>
</linearGradient>

<filter id="Filter_1" x="-20%" y="-20%" width="140%" height="140%" color-interpolation-filters="sRGB">
<feColorMatrix in="SourceGraphic" type="matrix" values="0.53 0 0 0 0.41568627450980394 0 0.53 0 0 0.35294117647058826 0 0 0.53 0 0.3176470588235294 0 0 0 1 0" result="result1"/>
</filter>

<filter id="Filter_2" x="-20%" y="-20.775663271521367%" width="140%" height="141.55132654304273%" color-interpolation-filters="sRGB">
<feGaussianBlur in="SourceGraphic" stdDeviation="4,3.3333333333333335" result="result1"/>

<feColorMatrix in="result1" type="matrix" values="1 0 0 0 0 0 1 0 0 0 0 0 1 0 0 0 0 0 0.18 0" result="result2"/>
</filter>

<filter id="Filter_3" x="-20%" y="-20%" width="140%" height="140%" color-interpolation-filters="sRGB">
<feGaussianBlur in="SourceGraphic" stdDeviation="1.3333333333333333,1.3333333333333333" result="result1"/>

<feColorMatrix in="result1" type="matrix" values="1 0 0 0 0 0 1 0 0 0 0 0 1 0 0 0 0 0 0.18 0" result="result2"/>
</filter>

<g id="ship_0_Layer1_0_FILL">
<path fill="#000000" stroke="none" d="
M 30.15 41.85
Q 29.75 41.55 29.6 41.4 29.3 41.6 29.3 42.2 29.3 42.45 29.35 42.7 29.35 42.75 29.35 43.45 29.45 44.15 29.9 44.15 30.05 44.15 30.25 43.95 30.05 43.55 30.15 43.05 30.35 42.35 30.35 42.3 30.35 42 30.15 41.85 Z"/>
</g>

<g id="ship_0_Layer0_0_FILL">
<path fill="#000000" stroke="none" d="
M 3.55 39.1
L 3.7 40.2 3.5 40.8 3.55 40.9
Q 3.55 41.116796875 3.35 41.25
L 2.45 43.8
Q 2.5123046875 43.9123046875 2.6 44
L 2.8 43.9
Q 2.8369140625 43.7154296875 2.85 43.55 2.9455078125 43.2720703125 3 43 3.2861328125 42.120703125 3.7 41.5 4.1 40.8 4.1 39.65 4.1 39.384765625 4.05 39.15 4.0302734375 38.644140625 3.85 38.5 3.7384765625 38.6302734375 3.65 38.8 3.597265625 38.96015625 3.55 39.1
M 3.05 44.65
Q 3 44.5359375 3 44.5
L 2.45 44.5
Q 2.15 44.45 1.25 44.4 1.0765625 44.4693359375 1 44.6 1.24609375 44.646484375 1.4 44.75 2.1923828125 44.7189453125 3.05 44.65
M 26.65 44.75
L 27.05 44.75
Q 26.87734375 44.6224609375 26.7 44.55 26.7068359375 44.63828125 26.65 44.75 Z"/>

<path fill="#201610" stroke="none" d="
M 5.85 38.3
Q 5.7845703125 38.2802734375 5.7 38.25 5.49140625 38.19140625 5.25 38.1 4.81171875 39.2498046875 4.25 41.1 3.55 43.2 3.4 43.9
L 3.25 43.9
Q 3.03125 43.9875 3 44.15 2.9689453125 43.7771484375 2.85 43.55 2.8369140625 43.7154296875 2.8 43.9
L 2.6 44
Q 2.5123046875 43.9123046875 2.45 43.8
L 2.35 44 0.9 44.1
Q 0.95 44.2068359375 0.95 44.35 0.95 44.486328125 0.95 44.6 0.9873046875 44.6048828125 1 44.6 1.0765625 44.4693359375 1.25 44.4 2.15 44.45 2.45 44.5
L 3 44.5
Q 3 44.5359375 3.05 44.65 3.7904296875 44.5900390625 4.6 44.5 4.6275390625 44.5275390625 4.65 44.55 4.712109375 44.49453125 4.75 44.4
L 4.25 43.9 4.05 43.9
Q 4.25 43.45 4.35 42.85 4.6 41.4 4.75 41.15 5.3 39.95 5.55 39.35 5.780859375 38.7728515625 5.9 38.3
L 5.85 38.3
M 4 44.4
L 4.05 44.4 4.1 44.45
Q 4.0482421875 44.4013671875 4 44.4
M 4.5 38.15
Q 4.5 38.1375 4.5 38.1 4.5 38.02421875 4.5 37.95 4.5 37.9125 4.5 37.85 4.1125 37.75 3.75 37.6 3.75 37.7748046875 3.75 37.95 3.7056640625 38.304296875 3.65 38.8 3.7384765625 38.6302734375 3.85 38.5 4.0302734375 38.644140625 4.05 39.15 4.1 39.384765625 4.1 39.65 4.1 40.8 3.7 41.5 3.2861328125 42.120703125 3 43 3.5111328125 42.273046875 4.25 40.5 4.6880859375 39.4923828125 5.2 38.1 4.958984375 38.024609375 4.7 37.95 4.61875 38.1294921875 4.5 38.35 4.5 38.2564453125 4.5 38.15
M 29.95 44.65
L 29.9 44.8 29.15 44.8 29.1 44.8
Q 29.1873046875 44.874609375 29.25 45
L 31 45 29.95 44.65
M 30.05 42
Q 30 42.25 30 42.65 30 43.6 30.2 43.85
L 27.75 43.9
Q 27.2259765625 43.9 26.7 44.1 26.71953125 44.144140625 26.7 44.15 26.950390625 44.0958984375 28.1 44.05 29.1 44.05 29.8 44.1
L 30.5 44.05
Q 30.7 44.15 30.75 44.3 31.4 44.45 31.5 44.8 31.4447265625 44.93828125 31.35 45
L 31.85 45
Q 32.028125 45.025390625 32.85 45.1
L 32.85 45.05
Q 32.75 45 32.7 45 32.55 44.95 32.55 44.8 32.35 44.65 32.35 44.55 32.35 44.45 32.45 44.3 32.5 44.3 32.8 44.3 32.85 44 32.85 43.6
L 32.85 43.55
Q 32.85 43.45 32.85 43.35 32.85 43.05 32.85 42.75 32.85 42.1515625 32.8 41.65 32.353515625 41.7349609375 32.05 41.75 32.14296875 42.1580078125 32.2 42.5 32.1 42.8 32.1 43.45 32.1 43.75 32.15 44.05
L 30.85 44
Q 30.8 43.95 30.7 43.9 30.85 43.9 30.75 43.85 30.8294921875 43.094140625 30.85 41.8 30.44609375 41.8 30 41.8 30.0248046875 41.9025390625 30.05 42
M 32.1 44.6
Q 32.15 44.6 32.2 44.6 32.2 44.65 32.2 44.7 32.15 44.65 32.1 44.6
M 30.6 43.9
Q 30.5 43.85 30.4 43.85
L 30.55 43.8 30.6 43.9
M 34 36.1
Q 33.65 36.1 33.25 36.15 31.95 36.25 30.05 36.35 30.4 36.6 30.8 37.05 31.3 37.65 32.6 39.4
L 32.6 40.4
Q 33.55 40.15 34.5 39.85
L 34 36.1 Z"/>

<path fill="#585149" stroke="none" d="
M 4.05 44.4
L 4 44.4
Q 4.0482421875 44.4013671875 4.1 44.45
L 4.05 44.4
M 4.5 37.85
L 4.5 37.85
Q 4.5 37.9125 4.5 37.95 4.5 38.02421875 4.5 38.1 4.5 38.1375 4.5 38.15 4.5 38.2564453125 4.5 38.35 4.61875 38.1294921875 4.7 37.95 4.6673828125 37.9314453125 4.6 37.9 4.5646484375 37.9005859375 4.5 37.85
M 5.25 38.1
Q 5.23203125 38.1099609375 5.2 38.1 4.6880859375 39.4923828125 4.25 40.5 3.5111328125 42.273046875 3 43 2.9455078125 43.2720703125 2.85 43.55 2.9689453125 43.7771484375 3 44.15 3.03125 43.9875 3.25 43.9
L 3.4 43.9
Q 3.55 43.2 4.25 41.1 4.81171875 39.2498046875 5.25 38.1
M 34.95 6.75
Q 34.89296875 6.7470703125 34.8 6.75 33.873046875 6.711328125 32.6 6.9 30.95 7.15 30.9 7.15
L 30.7 7.15
Q 30.65 7.15 30.65 6.9 30.65 6.6 31.55 6.5 31.85 6.45 33.2 6.4 33.15 6.35 33.15 6.3 32.3 6.3 31.45 6.3 30.9 6.3 30.35 6.3
L 30.85 10.05
Q 32.2 9.95 33.35 9.85 33.55 9.75 33.75 9.7 33.95 9.65 34.25 9.65
L 34.25 9.9 34.1 10.15
Q 32.9 10.35 31.25 10.4 31.05 10.4 30.85 10.4
L 33.65 33.25
Q 34 33.2 34.35 33.2 34.2 32.55 34.2 31.75
L 34.2 30.75
Q 34.4 30.75 34.55 30.85 34.7 31.7 35 33.15 35.75 33.1 36.55 33.05 36.15 31.45 35.9 30.85
L 35.9 29.7
Q 36.4 30.25 36.8 32.1 36.9 32.6 37.05 33.05 37.15 33 37.3 33 38 32.95 38.6 32.9 38.55 32.7 38.5 32.5 38.25 30.75 38.25 30.7
L 38.25 29.8 38.7 29.8
Q 38.8 30.8 39.3 32.8 40.55 32.65 41.4 32.55
L 39.2 23.05 37.2 14.5 35.3 6.25 35.2 6.25
Q 35.25 6.3 35.25 6.35 35.1 6.45 34.95 6.5
L 34.95 6.75
M 35.75 16.8
Q 35.7 17.35 36 17.65
L 36 19.15 36.05 19.15 36.15 19.45
Q 36.1 19.5 36 19.6
L 36 20.3 35.6 20.3 35.35 20.05 35.35 19.95
Q 35.25 19.95 35.15 19.95 34.75 19.9 34.7 19.9
L 34.2 19.8 34.2 19.65 34.25 19.6 34.2 19.6
Q 34 19.6 34.05 19.75 34.15 19.95 34.1 19.95 33.9 19.8 33.4 18.1 32.9 16.4 32.9 15.85 32.9 15.6 32.95 15.55 33 15.5 33.15 15.45 33.35 15.65 33.55 15.9 33.7 15.65 33.85 15.65
L 34.35 15.85
Q 34.5 15.9 34.65 15.95 34.95 16.05 35.25 16.05 35.8 16.3 35.75 16.8
M 35.25 21.1
Q 35.1 21 34.95 20.65 35 20.5 36.45 20.65 36.55 20.7 36.65 20.95 36.75 21.25 36.35 21.25 35.55 21.25 35.25 21.1
M 37.2 22
Q 36.85 22.45 36.45 22.45 36.3 22.45 35.7 22.05 35.8 21.9 35.85 21.75 35.95 21.7 36.45 21.7 36.95 21.7 37.2 21.85
L 37.2 22 Z"/>

<path fill="#6A6C66" stroke="none" d="
M 6.9 36.15
Q 6.7091796875 36.07734375 6.5 36 5.641015625 35.7408203125 4.7 35.7
L 4.45 37.4
Q 4.559375 37.421875 4.65 37.45 4.737109375 37.4607421875 4.8 37.45 5.312109375 37.578515625 5.9 37.7 7.9501953125 38.1373046875 11.05 38.85
L 11.45 36.2
Q 9.15 35.95 6.7 35.5 6.85 35.6 7.1 35.8
L 7.05 36.1 6.9 36.15
M 10.95 36.4
L 11.25 36.55
Q 11.25 36.8 10.95 36.9
L 9.9 36.9 9.6 36.75
Q 9.6 36.5 9.9 36.4
L 10.95 36.4 Z"/>

<path fill="#3B3024" stroke="none" d="
M 11.25 36.55
L 10.95 36.4 9.9 36.4
Q 9.6 36.5 9.6 36.75
L 9.9 36.9 10.95 36.9
Q 11.25 36.8 11.25 36.55
M 4.1 35.05
L 4.1 35 4.05 34.8
Q 3.9 34.85 3.8 34.95 3.65 35 3.6 35.1
L 3.6 35.2
Q 3.6 35.45 3.7 35.55 3.75 35.6 3.9 35.65 4.3 35.65 4.7 35.7 5.641015625 35.7408203125 6.5 36 6.7091796875 36.07734375 6.9 36.15
L 7.05 36.1 7.1 35.8
Q 6.85 35.6 6.7 35.5 6.55 35.4 6.45 35.35 6.2 35.25 4.75 35.1 4.65 35.1 4.55 35.1 4.492578125 35.0857421875 4.4 35.05 4.2783203125 35.05 4.1 35.05
M 9.35 26.95
Q 9.35 25.95 9.35 25.75 9.25 25.2 8.85 24.75 8.7 24.8 8.65 25.25 8.6 25.45 8.6 25.65 8.6 26.85 9.15 27.15 9.3 27.1 9.35 26.95
M 7.2 22.2
Q 7.2 22.6 7.55 24.5 7.9 26.55 8.1 27
L 8.3 26.95
Q 8.4 26.7 8.4 26.4 8.4 25.9 7.95 23.7 7.6 21.7 7.5 21.45 7.2 21.65 7.2 22.2
M 12.9 10.5
Q 12.9 10.9 12.95 10.75
L 14.6 10.65
Q 14.7 10.45 14.7 10.4 14.7 10.15 14.65 10.15 14.55 10.2 14.45 10.15
L 13.2 10.15
Q 12.9 10.25 12.9 10.5
M 15.45 26.8
L 15.85 26.3 15.85 26.2 14.4 26.2
Q 14.15 26.25 14.05 26.4 14 26.55 13.95 26.55
L 14.25 26.8 15.45 26.8
M 6.65 23.75
L 6.25 23.8 5.75 26.3 5.65 26.9 5.55 27.35 5.2 27.4 4.35 27.6 3.95 27.7 4.1 28.7 4.35 30 4.35 29 4.35 28.45 5.75 28.45 5.75 28.6 5.75 28.9 5.35 30.45 6.2 31.3 6.65 31.3 7 30.1 11.7 30.1 11.7 28.6 11.45 28.6 10.75 27.55 7 27.55 6.95 27.15 6.75 24.8 6.65 23.75
M 15.75 23.65
L 15.95 23.5
Q 15.95 23.15 15.55 22.75 15.1 22.3 14.85 22.8 15.05 22.95 15.25 23.25 15.45 23.55 15.75 23.65
M 34.8 6.75
Q 34.89296875 6.7470703125 34.95 6.75
L 34.95 6.5 34.95 6.3
Q 34.8326171875 6.3056640625 34.7 6.3 33.8216796875 6.3556640625 33.2 6.4 31.85 6.45 31.55 6.5 30.65 6.6 30.65 6.9 30.65 7.15 30.7 7.15
L 30.9 7.15
Q 30.95 7.15 32.6 6.9 33.873046875 6.711328125 34.8 6.75
M 4.05 33.85
L 3.95 33.9 3.95 34.15
Q 3.95 34.25 4.3 34.45 4.55 34.6 4.8 34.7 5.1 34.75 5.4 34.75 5.85 34.75 6.15 34.6
L 6.05 34.3
Q 5.3 34.25 4.9 34.2 4.6 34.15 4.45 34.05 4.1 33.85 4.05 33.85
M 11.6 35.2
L 11.85 35.2
Q 11.9 35.15 12.1 35.15 12.15 35.15 12.15 34.9 12.15 34.7 12.1 34.7
L 12.05 34.75
Q 11.85 34.75 11.65 34.75 9.95 34.55 9.55 34.75 9.5 35.05 9.45 35.05
L 9.75 35.25 11.6 35.2
M 12 33.7
Q 11.9 33.7 11.8 33.7 8.2 33.7 7.85 33.9 7.85 34.05 8.1 34.3
L 11.7 34.3 12.2 34.3
Q 12.45 34.05 12.45 33.9 12.05 33.7 12 33.7
M 12.15 10.75
Q 12.2 10.75 12.2 10.5 12.15 10.3 12.15 10.2 9.25 10.1 8.4 9.9
L 7.7 9.9 7.15 9.9 6.95 9.9
Q 6.9 9.9 6.9 10.15 6.9 10.5 6.95 10.45
L 7.05 10.45 7.35 10.45 7.45 10.45 10.85 10.75 12.15 10.75
M 14.85 8.5
L 14.85 8.2 14.1 7.9 8.4 7.9
Q 8.15 7.95 8.05 8.05 7.9 8.1 7.9 8.15 7.9 8.3 7.85 8.35
L 7.9 8.4
Q 8.2 8.55 8.4 8.4
L 14.1 8.4
Q 14.1 8.65 14.5 8.65 14.85 8.65 14.85 8.5
M 12.95 7.25
Q 12.95 7.6 13.05 7.45
L 15.5 7.65 15.75 7.65 16.1 7.6 16.05 7.2 15.95 7.15 15.95 7.05 15.75 6.9
Q 15.65 6.85 15.6 6.9 15.55 6.9 15.5 6.9 15.4 6.9 15.4 7
L 13.2 7
Q 13.15 6.95 13.1 7 12.95 7 12.95 7.25 Z"/>

<path fill="#180F02" stroke="none" d="
M 2.1 32.3
Q 2.03984375 32.3564453125 1.95 32.4 1.25859375 33.241796875 0.75 35.6
L 0.75 36.25 1.05 36.3
Q 1.1 36.3 1.15 36.3 1.294140625 36.4572265625 1.5 36.6 1.7201171875 36.7939453125 2 36.95 2.4859375 37.25234375 3.15 37.55 3.2220703125 37.55 3.25 37.5 3.3044921875 37.5078125 3.3 37.45
L 3.35 37.45
Q 3.4 37.35 3.5 37.35 3.75 37.35 3.85 37.55
L 4.05 37.45 4.1 37.35 4.1 37.25
Q 3.9 36.95 2.6 36.25
L 1.85 35.9 1.5 35.75 1.45 35.7
Q 1.45 35.65 1.5 35.6 1.546875 35.459375 1.6 35.3 1.746875 34.89453125 1.9 34.55 2.5 33.05 2.5 32.85
L 2.3 32.55 2.2 32.4 2.1 32.3
M 6 13.3
L 5.95 13.35
Q 5.9 13.35 5.85 13.45
L 5.8 13.5
Q 5.6 13.85 5.35 14.8 5 16.05 5 16.75 5 16.8 5 16.85
L 5 16.9
Q 5.05 17.65 5.5 18.1
L 5.55 18.15
Q 5.425390625 18.39921875 5.3 18.7 5.3169921875 18.782421875 5.3 18.85 5.2 19.25 5.05 19.7 4.8 20.6 4.35 22.35 4.3 22.5 3.35 25.2 3 26.1 2.8 26.65 2.3 26.95 1.85 27.7 1.35 28.5 1.35 28.7 1.35 28.9 1.5 29 1.5 29.1 1.5 29.2 1.5 30.1 1.85 30.7
L 1.9 30.75
Q 1.9427734375 31.4771484375 2.05 31.85 2.0783203125 31.8994140625 2.1 31.95
L 2.1 31.95
Q 2.10625 32.05625 2.15 32.1 2.2 32.15 2.25 32.15 2.5 32.15 2.4 32.1 2.4 32.05 2.45 32.05 2.55 32.3 2.6 32.55
L 2.85 32.4 2.85 31.85
Q 2.65 31.25 2.5 30.7 2.45 30.6 2.45 30.5 2.4 30.2 2.35 29.85
L 2.35 29.8
Q 2.19765625 28.940625 2.1 28.55 2.3568359375 28.2564453125 2.6 27.9 2.7068359375 27.7830078125 2.8 27.65
L 2.85 27.65 3 27.6 3.15 27.35 3.25 27.4 3.3 27.4
Q 3.45 27.3 3.65 27.2 3.7 27.15 3.8 27.15 3.85 26.45 4.1 25.35 4.1 25.2 4.1 25.15 4.15 24.9 4.4 24 4.75 22.5 5.15 21.8 5.45 20.75 5.65 20.2 5.9 19.4 6 18.75 6.05 19.15 6.1 19.7 6.1 22.15 6.25 23.6 6.254296875 23.701953125 6.25 23.8
L 6.65 23.75 6.75 24.8 6.75 23.65 6.6 23.35 6.6 21.9 6.6 17.8
Q 6.65 17.8 6.7 17.75 6.8 17.7 6.85 17.55 6.75 17.3 6.7 17 6.6 16.65 6.6 16.2
L 6.6 16.05
Q 6.6 15.8 6.6 15.55 6.6 14.55 6.45 14 6.4 13.8 6.35 13.65 6.1 14.1 6.1 15.45 6.1 15.5 6.1 15.55 6.1 15.6 6.1 16.15 5.9 16.6 5.95 17.35 5.9 17.3 5.85 17.3
L 5.8 17.05
Q 5.8 17 5.75 16.95 5.7 16.7 5.55 16.6 5.65 16.15 5.85 15.45 6.25 14.05 6.25 13.55 6.25 13.45 6.15 13.4 6.1 13.35 6 13.3
M 32.6 3.55
L 32.6 3.6 30.2 3.65 29.6 3.65
Q 29.3744140625 3.65 29.35 3.85 29.5169921875 3.85 29.7 3.85
L 29.75 3.85 30.5 3.8
Q 30.75 3.8 30.95 3.8 31.2 3.8 31.4 3.85 31.55 3.9 31.75 4
L 31.8 4
Q 32.25 4.15 32.7 3.95
L 32.7 4.15 33.05 4.1
Q 33 4.35 33 4.75
L 33 5.7
Q 33.05 6 33.1 6.2
L 33.1 6.25 33.15 6.3
Q 33.15 6.35 33.2 6.4 33.8216796875 6.3556640625 34.7 6.3 34.8326171875 6.3056640625 34.95 6.3
L 34.95 6.5
Q 35.1 6.45 35.25 6.35 35.25 6.3 35.2 6.25 35.05 6.1 34.85 5.9
L 33.65 5.9
Q 33.5 5.55 33.5 5.05 33.5 4.4 33.4 4.05
L 33.45 4 33.5 4 33.6 3.8
Q 33.5283203125 3.656640625 33.4 3.6 33.392578125 3.5642578125 33.35 3.55
L 32.6 3.55
M 36.6 35.8
Q 36.4 35.8 36.2 35.85 35.85 36.65 35.85 37.1
L 35.95 37.7
Q 36.15 38.35 36.75 38.3
L 38.25 38.3 38.25 37.4
Q 37.85 36.55 36.9 35.95 36.75 35.85 36.6 35.8 Z"/>

<path fill="#E5DDDF" stroke="none" d="
M 41.8 29.25
Q 41.5 29.851953125 41.5 30
L 41.75 31.6
Q 41.75 32.15 41.7 32.5 41.55 32.5 41.4 32.55
L 42.3 36.4
Q 38.25 38.35 35.9 39.35 35.2 39.65 34.5 39.85 33.55 40.15 32.6 40.4 32.2 40.45 31.75 40.55 30.3 40.25 29.9 38.9 29.75 37.45 29.6 36.4 29.8 36.35 30.05 36.35 31.95 36.25 33.25 36.15 33.65 36.1 34 36.1
L 33.65 33.25
Q 31.65 33.35 29.75 33.4 29.35 33.35 29.05 33.4
L 29.2 36.4
Q 28.3458984375 36.4474609375 27.45 36.5
L 27.55 36.65
Q 28.03125 37.058203125 28.4 37.55 29.25 38.7 29.25 39.9
L 29.25 40.4
Q 29.05 40.7 28.7 40.95 28.1 41 27.5 41.05 26.75 41.05 26 41.05 22.49375 41.05 18.2 40.3
L 17 40.65 16.55 40.25 16.25 39.95
Q 16.1935546875 39.9685546875 16.1 39.95 15.55 39.8 15 39.7 14.6 39.65 14.25 39.55 13.65 39.4 13.1 39.3 13.1 39.25 13.1 39.2 13.1 38.2 13.15 37.85 13.3 36.95 13.85 36.45 12.65 36.35 11.45 36.2
L 11.05 38.85
Q 7.9501953125 38.1373046875 5.9 37.7 5.312109375 37.578515625 4.8 37.45 4.737109375 37.4607421875 4.65 37.45 4.559375 37.421875 4.45 37.4 4.25 37.35 4.1 37.35
L 4.05 37.45 3.85 37.55
Q 3.75 37.35 3.5 37.35 3.4 37.35 3.35 37.45
L 3.3 37.45
Q 3.5375 37.55078125 3.75 37.6 4.1125 37.75 4.5 37.85
L 4.5 37.85
Q 4.5646484375 37.9005859375 4.6 37.9 4.6673828125 37.9314453125 4.7 37.95 4.958984375 38.024609375 5.2 38.1 5.23203125 38.1099609375 5.25 38.1 5.49140625 38.19140625 5.7 38.25 5.7845703125 38.2802734375 5.85 38.3
L 5.9 38.3
Q 8.981640625 39.1564453125 13.3 40.05 22.1 41.8 27.9 41.8 29.053515625 41.8 30 41.8 30.44609375 41.8 30.85 41.8 31.361328125 41.8 31.8 41.8 31.90078125 41.793359375 32.05 41.75 32.353515625 41.7349609375 32.8 41.65 34.3603515625 41.38125 37.95 40.65 38.7 40.5 39.85 39.65 40.85 38.9 41.15 38.4 41.3 38.25 42.45 37.5 42.6 37.4 42.7 37.35 43.15 37 43.35 36.6 43.3 36.45 43.3 36.3 42.8005859375 33.1615234375 41.8 29.25
M 10.35 3.75
Q 10.35 3.65 10.4 3.55 10.3 3.55 10.25 3.55 10.3 3.6 10.35 3.75
M 28.7 0.8
Q 28.7 0.768359375 28.7 0.7
L 27.95 0.25
Q 23.15 0 22.8 0 19.7361328125 0 16 0.3
L 16 0.35
Q 15.95859375 0.40703125 15.9 0.45 16.321484375 0.5064453125 16.8 0.55
L 19.8 0.5
Q 20.25 0.35 20.25 0.3
L 23.5 0.3 24.25 0.4 24.35 0.65
Q 24.25 0.85 24.2 0.85 24.6369140625 0.865234375 25.35 0.9 25.9208984375 0.9 26.5 0.9 27.3 0.9 28.15 0.9 28.1 0.75 28.1 0.65 28.24609375 0.6013671875 28.7 0.8
M 14.25 35.8
Q 14.7 35.8 15 36.25 15.1 36.4 15.15 36.55 15.2 36.8 15.1 37.05 15.15 37.05 15.3 37.05 15.4482421875 37.0076171875 15.7 36.95
L 15.75 33.9 16.05 33.55
Q 15.8990234375 33.55 15.75 33.55
L 15.7 33.55 15.1 33.4
Q 14.65 33.4 14.25 34.65
L 14.25 35.8
M 6.6 21.9
L 6.6 23.35 6.75 23.65 6.75 24.8 6.95 27.15 7 27.15 6.8 20.5 6.6 21.9
M 6.25 23.8
Q 6.254296875 23.701953125 6.25 23.6
L 5.5 23.3
Q 5.25 23.55 5.25 24.8 5.25 25.8 5.5 26.3
L 5.75 26.3 6.25 23.8
M 22.85 0.85
Q 23.146875 0.8705078125 23.45 0.85
L 21.75 0.85
Q 22.291796875 0.87265625 22.85 0.85
M 6.6 13.6
L 6.6 13.5 6.55 13.6 6.6 13.6
M 1.5 36.6
L 1.5 36.75
Q 1.74609375 36.85859375 2 36.95 1.7201171875 36.7939453125 1.5 36.6
M 1.5 35.75
L 1.85 35.9 1.55 35.65
Q 1.535546875 35.694140625 1.5 35.75
M 2.1 31.95
Q 2.0783203125 31.8994140625 2.05 31.85 2.0173828125 32.1291015625 1.95 32.4 2.03984375 32.3564453125 2.1 32.3
L 2.2 32.4
Q 2.15 32.3 2.15 32.25 2.1056640625 32.0728515625 2.1 31.95
L 2.1 31.95
M 40.3 24.2
Q 40.3779296875 24.3298828125 40.45 24.5 39.7701171875 22.22265625 38.95 19.75 37.9796875 16.8515625 37.2 14.5
L 39.2 23.05
Q 39.95 23.6 40.3 24.2
M 33.45 4
L 33.4 4.05
Q 33.5 4.4 33.5 5.05 33.5 5.55 33.65 5.9 33.6080078125 5.1173828125 33.45 4
M 33.35 2.95
Q 33.25 2.95 33.15 2.95
L 33.2 2.65
Q 33.2 2.55 33 2.4
L 30.45 2.55
Q 30.4 1.35 30 0.75 29.9 0.8 29.85 0.95 29.8 0.9 29.7 0.9
L 28.85 0.9 28.9 0.95
Q 29 1 29.1 1.05 29.2 1.1 29.35 1.2 29.45 1.3 29.6 1.4 29.75 1.5 29.9 1.6 29.95 1.55 30 1.55 30.25 1.65 30.25 1.8 30.25 1.85 30.25 1.9 30.25 2.85 30.2 3.65
L 32.6 3.6 32.6 3.55 33.35 3.55
Q 33.392578125 3.5642578125 33.4 3.6 33.3935546875 3.2818359375 33.35 2.95
M 13.55 30.65
L 13.5 30.6 13.5 30.65 13.55 30.65
M 12.6 29.9
L 12.65 29.9 12.65 29.85 12.6 29.85 12.6 29.9
M 13.2 27.05
Q 13.15 27.05 13.1 27.1
L 13.1 27.35
Q 13.15 27.15 13.25 27.05
L 13.2 27.05
M 10.6 6.1
L 10.65 6.1
Q 10.6015625 6.0515625 10.6 6
L 10.6 6.1
M 30.25 5.6
L 30.35 6.3
Q 30.9 6.3 31.45 6.3 30.9 5.9 30.25 5.6
M 30.85 10.3
L 30.85 10.4
Q 31.05 10.4 31.25 10.4 32.9 10.35 34.1 10.15
L 34.25 9.9 34.25 9.65
Q 33.95 9.65 33.75 9.7 33.55 9.75 33.35 9.85 32.2 9.95 30.85 10.05 29.6 10.1 28.25 10.15 28.25 10.3 28 10.3 28.6 10.35 30.2 10.3 30.6 10.3 30.85 10.3
M 9.75 3.45
L 9.75 3.4 9.7 3.4
Q 9.7 3.5744140625 9.75 3.8 9.75 3.661328125 9.75 3.45
M 13.1 0.65
L 13.1 0.55 13.1 0.55
Q 13.1 0.6009765625 13.1 0.65
M 14.05 0.75
Q 14.009765625 0.75 13.95 0.75
L 13.95 0.8 14 0.8
Q 14.0298828125 0.7775390625 14.05 0.75 Z"/>

<path fill="#322518" stroke="none" d="
M 1.9 34.55
Q 1.746875 34.89453125 1.6 35.3 1.546875 35.459375 1.5 35.6
L 1.55 35.65 1.85 35.9 2.6 36.25
Q 3.9 36.95 4.1 37.25
L 4.1 37.35
Q 4.25 37.35 4.45 37.4
L 4.7 35.7
Q 4.3 35.65 3.9 35.65 3.75 35.6 3.7 35.55 3.6 35.45 3.6 35.2
L 3.6 35.1
Q 3.65 35 3.8 34.95 2.85 34.75 1.9 34.55
M 12 26.9
Q 10.6 27.3 10.2 27.3
L 7.65 27.05 7 27.15 6.95 27.15 7 27.55 10.75 27.55 11.45 28.6 11.7 28.6 11.7 30.1 7 30.1 6.65 31.3 6.2 31.3 5.35 30.45 5.75 28.9 5.75 28.6
Q 5.6546875 28.623828125 5.55 28.65 5.45 29.15 5.35 29.75 5.1 31.35 4.95 32 5.95 31.95 6.05 31.95 6.05 32.05 6.15 32.3 6.15 32.55 6.1 32.55 6 32.65 5.4 32.65 4.8 32.5 3.8 32.5 3.75 32.65 3.75 32.25 3.75 32.05 3.8 32 3.85 32 3.95 32.05 4.15 32.05 4.35 32.05 4.35 30.85 4.6 29.4 4.550390625 29.350390625 4.55 29.25 4.45 29.15 4.35 29
L 4.35 30 4.1 28.7
Q 4.088671875 28.6619140625 4.05 28.6 3.7546875 28.009375 3.75 27.65 3.747265625 28.0587890625 3.55 28.7 3.35 29.35 3.35 29.8
L 3.25 29.65 3.25 28.85
Q 3.25 28.55 3.4 28 3.55 27.55 3.65 27.2 3.45 27.3 3.3 27.4
L 2.5 30.7
Q 2.65 31.25 2.85 31.85
L 2.85 32.4 2.6 32.55
Q 2.55 32.3 2.45 32.05 2.4 32.05 2.4 32.1 2.5 32.15 2.25 32.15 2.2 32.15 2.15 32.1
L 2.15 32.25
Q 2.15 32.3 2.2 32.4
L 2.3 32.55
Q 3.55 32.9 5.05 33.05 6 33.15 7.1 33.15 8.65 33.15 11.9 33.1
L 12.2 30.85
Q 12 30.3 12 29.2 12 28.25 12.05 28.05 12.1 27.85 12.35 27.6
L 12.3 27.55
Q 12.15 27.1 12 26.9
M 4.4 35.05
Q 4.251171875 35.0376953125 4.1 35
L 4.1 35.05
Q 4.2783203125 35.05 4.4 35.05
M 12.25 22.8
Q 11.75 23.8 11.75 24.4 11.75 24.6 11.75 24.75 11.8 25.15 11.85 25.3 12.05 25.65 12.9 26 12.95 26.05 13 26.05
L 15.25 26.05 15.25 23.55
Q 14.5 22.8 14.05 22.45 13.65 22.15 13.45 22.1
L 13.35 22.6 12.25 22.8 Z"/>

<path fill="#70746F" stroke="none" d="
M 11.8 33.7
L 11.9 33.1
Q 8.65 33.15 7.1 33.15 6 33.15 5.05 33.05
L 4.9 34.2
Q 5.3 34.25 6.05 34.3
L 6.15 34.6
Q 5.85 34.75 5.4 34.75 5.1 34.75 4.8 34.7
L 4.75 35.1
Q 6.2 35.25 6.45 35.35 6.55 35.4 6.7 35.5 9.15 35.95 11.45 36.2
L 11.6 35.2 9.75 35.25 9.45 35.05
Q 9.5 35.05 9.55 34.75 9.95 34.55 11.65 34.75
L 11.7 34.3 8.1 34.3
Q 7.85 34.05 7.85 33.9 8.2 33.7 11.8 33.7 Z"/>

<path fill="#776F63" stroke="none" d="
M 11.9 33.1
L 11.8 33.7
Q 11.9 33.7 12 33.7 12.05 33.7 12.45 33.9 12.45 34.05 12.2 34.3
L 11.7 34.3 11.65 34.75
Q 11.85 34.75 12.05 34.75
L 12.1 34.7
Q 12.15 34.7 12.15 34.9 12.15 35.15 12.1 35.15 11.9 35.15 11.85 35.2
L 11.6 35.2 11.45 36.2
Q 12.65 36.35 13.85 36.45 13.3 36.95 13.15 37.85 13.1 38.2 13.1 39.2 13.1 39.25 13.1 39.3 13.65 39.4 14.25 39.55 14.6 39.65 15 39.7
L 15.3 37.05
Q 15.15 37.05 15.1 37.05 15.2 36.8 15.15 36.55 15.1 36.4 15 36.25 14.7 35.8 14.25 35.8
L 14.25 34.65
Q 14.65 33.4 15.1 33.4
L 15.7 33.55 15.75 33.1
Q 15.6 33.1 15.5 33.1 14.2 33.05 13.5 33.05 12.65 33.05 11.9 33.1 Z"/>

<path fill="#382010" stroke="none" d="
M 34.85 44.65
L 35.4 44.65 35.35 44.15 34.85 44.15
Q 34.6 44.25 34.6 44.5
L 34.85 44.65
M 29.15 44.8
Q 29.8 44.75 29.95 44.65
L 31 45 31.35 45
Q 31.4447265625 44.93828125 31.5 44.8 31.4 44.45 30.75 44.3 30.35 44.15 29.8 44.1 29.1 44.05 28.1 44.05 26.950390625 44.0958984375 26.7 44.15 26.75 44.2466796875 26.75 44.3 26.75 44.383984375 26.7 44.55 26.87734375 44.6224609375 27.05 44.75
L 29 44.75
Q 29.055859375 44.7685546875 29.1 44.8
L 29.15 44.8
M 34.5 44.4
Q 34.4 44.2 34.25 44.15 34 44.15 33.85 44.2 33.15 44.25 32.8 44.3 32.5 44.3 32.45 44.3 32.35 44.45 32.35 44.55 32.35 44.65 32.55 44.8
L 33.25 44.8 34 44.7 34.4 44.65 34.5 44.4 Z"/>

<path fill="#7B4724" stroke="none" d="
M 34.5 44.4
L 34.4 44.65 34.85 44.65 34.6 44.5
Q 34.6 44.25 34.85 44.15
L 35.35 44.15 35.35 44.1 33.85 44.15 33.85 44.2
Q 34 44.15 34.25 44.15 34.4 44.2 34.5 44.4
M 34.1 44.8
Q 34.05 44.75 34 44.7
L 33.25 44.8 32.55 44.8
Q 32.55 44.95 32.7 45 32.75 45 32.85 45.05 33 45.05 33.35 45.05 33.7 45.05 34.1 44.8
M 29.9 44.8
L 29.95 44.65
Q 29.8 44.75 29.15 44.8
L 29.9 44.8
M 30.75 44.3
Q 30.7 44.15 30.5 44.05
L 29.8 44.1
Q 30.35 44.15 30.75 44.3
M 28.55 38.15
L 28.45 40.15 26.5 40.2
Q 26.5552734375 40.2462890625 26.6 40.3 27.05 40.8 27.5 41.05 28.1 41 28.7 40.95 29.05 40.7 29.25 40.4
L 29.25 39.9
Q 29.25 38.7 28.4 37.55 28.03125 37.058203125 27.55 36.65
L 28.55 38.15
M 30.05 36.35
Q 29.8 36.35 29.6 36.4 29.75 37.45 29.9 38.9 30.3 40.25 31.75 40.55 32.2 40.45 32.6 40.4
L 32.6 39.4
Q 31.3 37.65 30.8 37.05 30.4 36.6 30.05 36.35 Z"/>

<path fill="#69635D" stroke="none" d="
M 13.05 7.45
Q 12.95 7.6 12.95 7.25 12.95 7 13.1 7 13.15 6.95 13.2 7
L 15.4 7
Q 15.4 6.9 15.5 6.9 15.55 6.9 15.6 6.9
L 15.7 6.2
Q 14.35 6.15 13.1 6.15
L 13.25 6.65
Q 13 6.7 12.85 6.75
L 12.8 6.45
Q 11.75 6.2 11.55 6.2 11 6.2 10.6 6.2 10.4314453125 6.1759765625 10.25 6.15 10.2076171875 6.223046875 10.1 6.25 9.894140625 6.25 9.7 6.25 9.6779296875 6.301171875 9.65 6.35
L 9.5 6.4
Q 9.3990234375 6.3595703125 9.35 6.3
L 8.6 7.05 9.1 7.05
Q 9.2 7 9.3 7
L 9.35 7.15 9.6 7 9.6 6.9
Q 9.95 6.85 10.4 6.85
L 11.75 7.05 11.95 7.05
Q 11.85 7.25 11.5 7.55
L 9.05 7.55
Q 8.8 7.65 8.55 7.8
L 8.35 7.75
Q 8.25 7.65 8.25 7.5 8.25 7.25 8.5 7.15
L 8.4 7.1
Q 8.2 7.4 8.05 8.05 8.15 7.95 8.4 7.9
L 14.1 7.9 14.85 8.2 14.85 8.5
Q 14.85 8.65 14.5 8.65 14.1 8.65 14.1 8.4
L 8.4 8.4
Q 8.2 8.55 7.9 8.4 7.8 8.8 7.7 9.9
L 8.4 9.9
Q 9.25 10.1 12.15 10.2 12.15 10.3 12.2 10.5 12.2 10.75 12.15 10.75
L 10.85 10.75 7.45 10.45 7.35 10.45
Q 7.25 10.85 7.25 11.15
L 9.1 11.15
Q 9.1 11.8 10 13.3
L 10 13.9 9 13.9
Q 8.05 13.5 7.45 13.5 7 13.55 6.6 13.6
L 6.7 17
Q 6.75 17.3 6.85 17.55 6.8 17.7 6.7 17.75
L 6.8 20.5 7 27.15 7.65 27.05 10.2 27.3
Q 10.6 27.3 12 26.9 12.15 27.1 12.3 27.55
L 12.35 27.6
Q 12.1 27.85 12.05 28.05 12 28.25 12 29.2 12 30.3 12.2 30.85 12.25 31.05 12.35 31.15
L 12.6 31 12.6 29.9 12.6 29.85 12.65 29.85 12.65 29.9 12.65 30.6
Q 12.7 31.05 12.95 31.15 13.199609375 31.0501953125 13.2 29.75 13.2015625 29.803125 13.25 29.9 13.35 30.2 13.5 30.6
L 13.55 30.65
Q 13.65 31 13.85 31.5
L 14.1 31.45
Q 14.4 29.4 14.4 28.75 14.4 28.5 14.1 28.4 13.8 28.25 13.7 27.85 13.75 27.5 13.75 27.3 13.75 26.95 13.5 26.8 13.35 26.9 13.25 27.05 13.15 27.15 13.1 27.35
L 13.1 27.1 13.05 26.8
Q 12.85 26.95 12.75 27.15
L 12.9 26
Q 12.05 25.65 11.85 25.3 11.8 25.15 11.75 24.75 11.75 24.6 11.75 24.4 11.75 23.8 12.25 22.8
L 13.35 22.6 13.45 22.1 14.05 17.55
Q 13.55 17.55 13 17.3 11.8 16.75 11.75 15.3 11.75 15.2 11.75 15.15 11.75 14.15 12 13.8 12.3 13.3 13.25 13.3 13.55 13.3 14.55 13.2 14.6 13.2 14.7 13.2
L 15.5 7.65 13.05 7.45
M 12.95 10.75
Q 12.9 10.9 12.9 10.5 12.9 10.25 13.2 10.15
L 14.45 10.15
Q 14.55 10.2 14.65 10.15 14.7 10.15 14.7 10.4 14.7 10.45 14.6 10.65
L 12.95 10.75
M 7.55 24.5
Q 7.2 22.6 7.2 22.2 7.2 21.65 7.5 21.45 7.6 21.7 7.95 23.7 8.4 25.9 8.4 26.4 8.4 26.7 8.3 26.95
L 8.1 27
Q 7.9 26.55 7.55 24.5
M 9.35 25.75
Q 9.35 25.95 9.35 26.95 9.3 27.1 9.15 27.15 8.6 26.85 8.6 25.65 8.6 25.45 8.65 25.25 8.7 24.8 8.85 24.75 9.25 25.2 9.35 25.75
M 5.75 28.6
L 5.75 28.45 4.35 28.45 4.35 29
Q 4.45 29.15 4.55 29.25 4.5515625 29.30078125 4.65 29.35 4.6 29.35 4.6 29.4 4.35 30.85 4.35 32.05 4.15 32.05 3.95 32.05 3.85 32 3.8 32 3.75 32.05 3.75 32.25 3.75 32.65 3.8 32.5 4.8 32.5 5.4 32.65 6 32.65 6.1 32.55 6.15 32.55 6.15 32.3 6.05 32.05 6.05 31.95 5.95 31.95 4.95 32 5.1 31.35 5.35 29.75 5.45 29.15 5.55 28.65 5.6546875 28.623828125 5.75 28.6
M 5.65 26.9
Q 5.55 26.95 5.45 26.95 5.3169921875 27.149609375 5.2 27.4
L 5.55 27.35 5.65 26.9
M 4.4 24
Q 4.35 24.2 4.3 24.45 4.2 24.9 4.1 25.35 3.85 26.45 3.8 27.15 3.75 27.45 3.75 27.65 3.7546875 28.009375 4.05 28.6 4.088671875 28.6619140625 4.1 28.7
L 3.95 27.7 4.35 27.6
Q 4.3642578125 25.6515625 5 23.5 5.6 21.7 5.6 21.4
L 5.6 21.2 5.55 21.25
Q 5.35 21.4 5.15 21.8 4.75 22.5 4.4 24
M 36.45 22.45
Q 36.85 22.45 37.2 22
L 37.2 21.85
Q 36.95 21.7 36.45 21.7 35.95 21.7 35.85 21.75 35.8 21.9 35.7 22.05 36.3 22.45 36.45 22.45
M 34.95 20.65
Q 35.1 21 35.25 21.1 35.55 21.25 36.35 21.25 36.75 21.25 36.65 20.95 36.55 20.7 36.45 20.65 35 20.5 34.95 20.65
M 34.15 17.05
Q 33.85 16.35 33.55 15.9 33.35 15.65 33.15 15.45 33 15.5 32.95 15.55 32.9 15.6 32.9 15.85 32.9 16.4 33.4 18.1 33.9 19.8 34.1 19.95 34.15 19.95 34.05 19.75 34 19.6 34.2 19.6
L 34.25 19.6 34.2 19.65 34.2 19.8 34.7 19.9
Q 34.75 19.9 35.15 19.95 35.25 19.95 35.35 19.95 35.7 19.85 36 19.6 36.1 19.5 36.15 19.45
L 36.05 19.15 36 19.15
Q 35.15 19.15 34.65 19.4 34.65 19.35 34.65 19.3
L 34.65 18.8
Q 34.65 18.2 34.15 17.05
M 34.55 30.85
Q 34.4 30.75 34.2 30.75
L 34.2 31.75
Q 34.2 32.55 34.35 33.2 34.4 33.6 34.55 33.95 35.2 35.75 35.45 36.75
L 35.7 36.7 35.7 36.45
Q 35.25 34.55 35 33.15 34.7 31.7 34.55 30.85
M 35.9 29.7
L 35.9 30.85
Q 36.15 31.45 36.55 33.05 36.6 33.25 36.65 33.45 37.05 35.05 37.2 35.05 37.4 35.05 37.45 34.95 37.45 34.9 37.5 34.8
L 37.5 34.65
Q 37.35 34.3 37.05 33.05 36.9 32.6 36.8 32.1 36.4 30.25 35.9 29.7
M 38.7 29.8
L 38.25 29.8 38.25 30.7
Q 38.25 30.75 38.5 32.5 38.55 32.7 38.6 32.9 38.9 34.3 39.3 34.3 39.55 34.3 39.6 34.2 39.65 34.1 39.65 34 39.45 33.35 39.3 32.8 38.8 30.8 38.7 29.8 Z"/>

<path fill="#DCCEC3" stroke="none" d="
M 11.3 4.4
L 10.8 4.4
Q 10.763671875 4.591796875 10.8 5.1
L 10.7 5.05
Q 10.75 5.327734375 10.75 5.65 10.75 5.7 10.6 5.95
L 10.6 6
Q 10.6015625 6.0515625 10.65 6.1
L 10.6 6.1 10.6 6.2
Q 11 6.2 11.55 6.2 11.75 6.2 12.8 6.45
L 12.85 6.75
Q 13 6.7 13.25 6.65
L 13.1 6.15 12.9 5.2
Q 12.05 5.45 11.25 5.75
L 11.25 5.15
Q 11.05 4.7 11.15 4.55 11.25 4.45 11.3 4.4
M 10.55 4.4
L 10.55 4.4 10.55 4.45 10.55 4.4
M 11.35 3.6
Q 11.2171875 3.5833984375 11.05 3.55 10.9 3.55 10.8 3.55 10.55 3.55 10.5 3.55 10.45 3.55 10.4 3.55 10.35 3.65 10.35 3.75 10.35 3.8 10.4 3.85
L 10.4 3.9
Q 10.486328125 3.89140625 10.55 3.85
L 10.6 3.75
Q 10.8884765625 3.75 11.35 3.6
M 11.5 7.55
Q 11.85 7.25 11.95 7.05
L 11.75 7.05 10.4 6.85
Q 9.95 6.85 9.6 6.9
L 9.6 7 9.35 7.15 9.3 7
Q 9.2 7 9.1 7.05
L 8.6 7.05 7.5 7.05
Q 7.5 7.1 7.5 7.2 7.5 8.1 7.15 9.9
L 7.7 9.9
Q 7.8 8.8 7.9 8.4
L 7.85 8.35
Q 7.9 8.3 7.9 8.15 7.9 8.1 8.05 8.05 8.2 7.4 8.4 7.1
L 8.5 7.15
Q 8.25 7.25 8.25 7.5 8.25 7.65 8.35 7.75
L 8.55 7.8
Q 8.8 7.65 9.05 7.55
L 11.5 7.55
M 13.9 3.5
L 13.7 3.5 13.9 3.5 13.9 3.5
M 22.7 26.45
L 22.7 27.65 22.1 27.65 22.1 34.9 22.6 34.9 22.65 34.9 23.55 34.9 24.1 34.9 23.85 26.45 22.7 26.45
M 19.5 26.4
L 19.45 34.85 20.4 34.85 21.05 34.85 20.95 27.65 20.5 27.65 20.5 26.4 19.5 26.4
M 15.05 3.5
L 15.05 3.45 14.55 3.45 14.2 3.5 14.55 3.5
Q 14.812890625 3.5 15.05 3.5
M 15.05 2.9
L 15.1 2.4
Q 15.1 2.35 15.1 2.3 14.858203125 2.3236328125 14.7 2.35
L 14.6 2.85
Q 14.842578125 2.8740234375 15.05 2.9
M 14.35 2.25
Q 14.35 2.172265625 14.35 2.1
L 14.25 2.8
Q 14.31171875 2.8076171875 14.35 2.8 14.35 2.5826171875 14.35 2.25
M 7.35 10.45
L 7.05 10.45
Q 7.05 10.55 7 10.7 6.9 11.15 6.8 11.55
L 7.05 11.55 7.2 11.5
Q 7.2 11.35 7.25 11.15 7.25 10.85 7.35 10.45 Z"/>

<path fill="#7E786D" stroke="none" d="
M 10.55 4.45
L 10.55 4.4 10.3 4.4
Q 10.5 4.88359375 10.5 5.6 10.5 6.001953125 10.25 6.15 10.4314453125 6.1759765625 10.6 6.2
L 10.6 6.1 10.6 6 10.6 5.95
Q 10.75 5.7 10.75 5.65 10.75 5.327734375 10.7 5.05
L 10.6 4.95 10.55 4.45
M 11.05 3.55
Q 11.2171875 3.5833984375 11.35 3.6
L 13.05 3.55
Q 13.0365234375 3.409375 13 3.3 12.85 3.35 12.75 3.4
L 10.2 3.4
Q 10.25 3.5625 10.25 3.75 10.25 3.82578125 10.25 3.9 10.29765625 3.9 10.35 3.9
L 10.4 3.9 10.4 3.85
Q 10.35 3.8 10.35 3.75 10.3 3.6 10.25 3.55 10.3 3.55 10.4 3.55 10.45 3.55 10.5 3.55 10.55 3.55 10.8 3.55 10.9 3.55 11.05 3.55
M 15.85 0.5
Q 15.844140625 0.5318359375 15.8 0.55
L 15.9 0.55 15.85 0.5
M 13.3 3.55
L 13.4 3.55 13.35 3.4 13.35 3.5 13.3 3.55
M 14.4 1.35
Q 14.19453125 1.3896484375 13.95 1.4
L 13.75 3.5 13.7 3.5 13.9 3.5 13.9 3.5 14.2 3.5 14.55 3.45 14.55 3.35
Q 14.4166015625 3.283203125 14.35 2.8 14.31171875 2.8076171875 14.25 2.8
L 14.35 2.1 14.35 2.05
Q 14.356640625 1.6271484375 14.4 1.35
M 7.5 7.05
L 7.25 7.05
Q 7.15 7 7.1 6.95 7.05 8.45 6.85 10.4
L 6.6 10.55
Q 6.5 10.5 6.45 10.45 6.4 10.75 6.3 11.1 5.85 12.75 5.85 13.15 5.85 13.2 5.9 13.25 5.9 13.3 5.95 13.35
L 6 13.3
Q 6.1 13.35 6.15 13.4 6.309765625 13.208203125 6.5 12.5
L 6.35 12.5 6.35 11.85 6.7 11.8
Q 6.7615234375 11.698828125 6.8 11.55 6.9 11.15 7 10.7 7.05 10.55 7.05 10.45
L 6.95 10.45
Q 6.9 10.5 6.9 10.15 6.9 9.9 6.95 9.9
L 7.15 9.9
Q 7.5 8.1 7.5 7.2 7.5 7.1 7.5 7.05
M 17.4 1.95
Q 17.3025390625 1.95 17.2 1.95
L 16.95 1.95 17 2.2
Q 17.190625 2.0931640625 17.4 1.95
M 16.3 2.85
Q 16.127734375 2.430859375 16.2 2.25
L 15.8 2.25
Q 15.7 2.25 15.6 2.3 15.31640625 2.3 15.1 2.3 15.1 2.35 15.1 2.4
L 15.05 2.9
Q 14.842578125 2.8740234375 14.6 2.85
L 14.55 3.45 15.05 3.45 15.05 3.5 15.1 3.5 15.1 3.65
Q 15.4064453125 3.65703125 15.75 3.7 15.8 3.65 15.85 3.7 15.99296875 3.2494140625 16.3 2.85
M 18.65 1.5
L 18.25 1.5 18.25 1.6
Q 18.4521484375 1.55859375 18.65 1.5
M 21.75 0.85
L 20.3 0.85 20.05 0.95 20.6 0.95
Q 21.40546875 0.95 22.85 0.85 22.291796875 0.87265625 21.75 0.85
M 14 0.8
Q 14.170703125 0.7830078125 14.3 0.75 14.2013671875 0.7556640625 14.05 0.75 14.0298828125 0.7775390625 14 0.8 Z"/>

<path fill="#534134" stroke="none" d="
M 11.7 4.25
Q 12.4 4.25 12.55 4.3 12.7552734375 4.3205078125 12.85 4.4 13.0705078125 4.5142578125 13.1 4.75
L 13.25 4.75 13.25 4.4 13.3 4.2
Q 14 4.2 14.45 4.1
L 15.1 4.1 15.1 3.7 15.1 3.65 15.1 3.5 15.05 3.5
Q 14.812890625 3.5 14.55 3.5
L 14.2 3.5 13.9 3.5 13.7 3.5 13.5 3.65 13.4 3.55 13.3 3.55 13.05 3.55 11.35 3.6
Q 10.8884765625 3.75 10.6 3.75
L 10.55 3.85 10.55 4.15 10.55 4.4 10.55 4.45 10.6 4.95 10.7 5.05 10.8 5.1
Q 10.763671875 4.591796875 10.8 4.4 10.82265625 4.32734375 10.85 4.3 10.95 4.25 11.7 4.25
M 28.3 2.25
L 28.3 2 28.3 1.1
Q 28.05 1.05 26.3 0.95 25.7712890625 0.921484375 25.35 0.9 24.6369140625 0.865234375 24.2 0.85 23.9583984375 0.85 23.8 0.85 23.6943359375 0.8548828125 23.6 0.85 23.524609375 0.8552734375 23.45 0.85 23.146875 0.8705078125 22.85 0.85 21.40546875 0.95 20.6 0.95
L 20.05 0.95 18.25 1
Q 18.23359375 1.035546875 18.2 1.05 18.0439453125 1.4455078125 17.9 1.75 17.8216796875 1.9388671875 17.75 2.1 17.85 2.15 17.95 2.2
L 18.2 2.2 18.25 1.6 18.25 1.5 18.65 1.5 19 1.5
Q 19.25 1.6 20.9 1.6 24.65 1.6 25.2 1.35
L 26 1.35 26.05 1.85 26.05 1.95 26.3 1.95 26.55 1.85 27.45 1.85
Q 27.4 2.2 27.5 2.3 27.55 2.35 27.8 2.35
L 28.3 2.25
M 31.8 4
L 31.75 4
Q 31.55 3.9 31.4 3.85 31.2 3.8 30.95 3.8 30.75 3.8 30.5 3.8
L 29.75 3.85 29.7 3.85
Q 29.5169921875 3.85 29.35 3.85 29.19296875 3.8544921875 29.05 3.85 28.580078125 3.8876953125 28.3 3.95 27.85 4 27.35 4
L 27.35 4.1
Q 27.65 4.1 28 4.35 28.3 4.35 28.7 4.1 28.9 4.1 28.95 4.25 29 4.35 29.1 4.35
L 29.45 4.25 30.1 4.4 30.4 4.45 30.6 4.35 30.6 4.6 30.5 4.85 30.65 4.85 31.3 4.7 31.35 5.35
Q 31.4 5.35 31.6 5.35 31.85 5.35 31.95 5.45
L 32.55 5.45
Q 32.55 4.75 32.7 4.6
L 32.7 4.15 32.7 3.95
Q 32.25 4.15 31.8 4 Z"/>

<path fill="#BFB5AF" stroke="none" d="
M 12.55 4.3
Q 12.4 4.25 11.7 4.25 10.95 4.25 10.85 4.3 10.82265625 4.32734375 10.8 4.4
L 11.3 4.4 12.85 4.4
Q 12.7552734375 4.3205078125 12.55 4.3
M 16 3.7
Q 15.95 3.65 15.85 3.7 15.8 3.65 15.75 3.7 15.4064453125 3.7 15.1 3.7
L 15.1 4.1 14.45 4.1
Q 14 4.2 13.3 4.2
L 13.25 4.4 15 4.4
Q 15.15 4.35 15.9 4.2 16.5 4.05 16.5 3.9 16.4 3.75 16.4 3.7
L 16.4 3.65
Q 16.2 3.65 16 3.7 Z"/>

<path fill="#4F4135" stroke="none" d="
M 27.35 4.1
L 27.35 4
Q 27.85 4 28.3 3.95 28.580078125 3.8876953125 29.05 3.85
L 29.05 3.8
Q 24.75 3.8 21 3.75 18.6 3.7 16.4 3.7 16.4 3.75 16.5 3.9 16.5 4.05 15.9 4.2 15.15 4.35 15 4.4
L 13.25 4.4 13.25 4.75 13.1 4.75
Q 13.0705078125 4.5142578125 12.85 4.4
L 11.3 4.4
Q 11.25 4.45 11.15 4.55 11.05 4.7 11.25 5.15
L 11.25 5.75
Q 12.05 5.45 12.9 5.2
L 13.1 6.15
Q 14.35 6.15 15.7 6.2
L 15.65 5.35
Q 17.5 4.4 20.25 4.25 20.55 4.25 20.9 4.25 22.45 4.2 24.75 4.3 26.05 4.3 27.35 4.55 28.2 4.75 29.05 5.05 29.2 5.1 29.4 5.2 29.2 4.95 29.15 4.6 29.12890625 4.4626953125 29.1 4.35 29 4.35 28.95 4.25 28.9 4.1 28.7 4.1 28.3 4.35 28 4.35 27.65 4.1 27.35 4.1
M 15.1 3.65
L 15.1 3.7
Q 15.4064453125 3.7 15.75 3.7 15.4064453125 3.65703125 15.1 3.65
M 32.7 4.15
L 32.7 4.6
Q 32.55 4.75 32.55 5.45
L 31.95 5.45
Q 31.85 5.35 31.6 5.35 31.4 5.35 31.35 5.35
L 31.3 4.7 30.65 4.85 30.5 4.85 30.6 4.6 30.6 4.35 30.4 4.45 30.1 4.4
Q 30.0794921875 4.8529296875 30 5.25
L 29.85 5.3
Q 29.8 5.25 29.75 5.15
L 29.6 5.25
Q 29.95 5.4 30.25 5.6 30.9 5.9 31.45 6.3 32.3 6.3 33.15 6.3
L 33.1 6.25 33.1 6.2
Q 33.05 6 33 5.7
L 33 4.75
Q 33 4.35 33.05 4.1
L 32.7 4.15 Z"/>

<path fill="#574737" stroke="none" d="
M 15.9 0.45
Q 15.8966796875 0.494140625 15.85 0.5
L 15.9 0.55 16.8 0.55
Q 16.321484375 0.5064453125 15.9 0.45
M 30.1 4.4
L 29.45 4.25 29.1 4.35
Q 29.12890625 4.4626953125 29.15 4.6 29.2 4.95 29.4 5.2 29.45 5.25 29.5 5.3
L 29.6 5.25 29.75 5.15
Q 29.8 5.25 29.85 5.3
L 30 5.25
Q 30.0794921875 4.8529296875 30.1 4.4
M 26.05 1.85
L 26 1.35 25.2 1.35
Q 24.65 1.6 20.9 1.6 19.25 1.6 19 1.5
L 18.65 1.5
Q 18.4521484375 1.55859375 18.25 1.6
L 18.2 2.2 17.95 2.2
Q 17.85 2.15 17.75 2.1 17.573046875 2.0115234375 17.4 1.95 17.190625 2.0931640625 17 2.2
L 17.05 3.1 16.5 3.1 16.45 3.25
Q 16.3533203125 3.0427734375 16.3 2.85 15.99296875 3.2494140625 15.85 3.7 15.95 3.65 16 3.7 17.2603515625 2.6333984375 26.05 1.85
M 29.6 1.4
Q 29.45 1.3 29.35 1.2 29.2 1.1 29.1 1.05 29 1 28.9 0.95
L 28.85 0.9 28.85 0.85
Q 28.8 0.85 28.75 0.85
L 28.7 0.8
Q 28.24609375 0.6013671875 28.1 0.65 28.1 0.75 28.15 0.9 27.3 0.9 26.5 0.9 25.9208984375 0.9 25.35 0.9 25.7712890625 0.921484375 26.3 0.95 28.05 1.05 28.3 1.1
L 28.3 2
Q 28.7419921875 2.150390625 28.95 2.4 29 2.45 29 2.5
L 29 3.75 29.05 3.8 29.05 3.85
Q 29.19296875 3.8544921875 29.35 3.85 29.3744140625 3.65 29.6 3.65
L 30.2 3.65
Q 30.25 2.85 30.25 1.9 30.25 1.85 30.25 1.8 30.25 1.65 30 1.55 29.95 1.55 29.9 1.6 29.75 1.5 29.6 1.4 Z"/>

<path fill="#8A7767" stroke="none" d="
M 15.9 1.1
Q 15.9271484375 1.045703125 15.95 1
L 15.55 1
Q 14.6 1 14.5 1.1 14.4326171875 1.144921875 14.4 1.35 14.356640625 1.6271484375 14.35 2.05
L 14.35 2.1
Q 14.35 2.172265625 14.35 2.25 14.35 2.5826171875 14.35 2.8 14.4166015625 3.283203125 14.55 3.35
L 14.55 3.45 14.6 2.85 14.7 2.35
Q 14.858203125 2.3236328125 15.1 2.3 15.31640625 2.3 15.6 2.3 15.65 2 15.75 1.55 15.8271484375 1.280078125 15.9 1.1 Z"/>

<path fill="#FADEBA" stroke="none" d="
M 26.1 38.2
L 25.55 38.2 25.5 38.2 25.1 37.8 23.75 37.8 23.7 37.85 23.2 38.35 23.2 40.2 25.55 40.2 26.1 40.2 26.1 38.2 Z"/>

<path fill="#9F6139" stroke="none" d="
M 25.85 33.5
L 25.85 33.9 25.55 34.55 25.55 38.2 26.1 38.2 26.1 40.2 26.5 40.2 28.45 40.15 28.55 38.15 27.55 36.65 27.45 36.5 26.85 35.6 26.65 34.4 25.85 33.5
M 16.05 33.55
L 15.75 33.9 15.7 36.95 15.7 39.4 16.15 39.85 16.25 39.95 16.55 40.25 16.55 33.05 16.45 33.1 16.05 33.55 Z"/>

<path fill="#F9EBD5" stroke="none" d="
M 25.85 33.35
L 25.85 33.5 26.65 34.4 26.85 35.6 27.45 36.5
Q 28.3458984375 36.4474609375 29.2 36.4
L 29.05 33.4
Q 28.15 33.4 27.25 33.4 26.5310546875 33.3787109375 25.85 33.35
M 22.65 34.9
L 22.6 34.9 22.6 35.15 22.65 34.9
M 15.7 33.55
L 15.75 33.55
Q 15.8990234375 33.55 16.05 33.55
L 16.45 33.1
Q 16.0916015625 33.1 15.75 33.1
L 15.7 33.55 Z"/>

<path fill="#D49676" stroke="none" d="
M 24.1 34.9
L 23.55 34.9 23.7 37.85 23.75 37.8 25.1 37.8 25.5 38.2 25.55 38.2 25.55 34.55 25.4 34.9 24.1 34.9
M 16.95 32.6
L 16.55 33.05 16.55 40.25 17 40.65 18.2 40.3 18.3 40.3 18.3 40.2 17.85 39.85 17.25 39.85 17.25 38.65 18 37.9 18 37.45 18.4 37.45 18.5 34.85 18 34.85 17.25 32.95 17.25 32.35 16.95 32.6 Z"/>

<path fill="#F6D4B1" stroke="none" d="
M 22.6 35.15
L 22.6 34.9 22.1 34.9 21.05 34.85 20.4 34.85 20.75 40.35 22.35 40.3 22.6 35.15 Z"/>

<path fill="#E2C598" stroke="none" d="
M 22.65 34.9
L 22.6 35.15 22.35 40.3 25.55 40.2 23.2 40.2 23.2 38.35 23.7 37.85 23.55 34.9 22.65 34.9
M 19.45 34.85
L 18.5 34.85 18.4 37.45 19.7 37.45 19.7 38.15 20.05 38.95 20.05 39.85 18.85 39.85 18.45 40.25 18.85 40.4 20.75 40.35 20.4 34.85 19.45 34.85 Z"/>

<path fill="#E7DFE1" stroke="none" d="
M 22.1 27.65
L 20.95 27.65 21.05 34.85 22.1 34.9 22.1 27.65
M 25.75 28.75
L 25.5 28.7 25.45 28.65 25.5 27.9 25.15 27.5 24.8 27.25 24.65 27.05 24.15 26.45 23.85 26.45 24.1 34.9 25.4 34.9 25.55 34.55 25.85 33.9 25.85 33.5 25.85 33.35 25.75 28.75
M 18.8 26.35
L 18.4 26.8 17.25 28.2 17.25 30.6 17.25 32.35 17.25 32.95 18 34.85 18.5 34.85 19.45 34.85 19.5 26.4 18.8 26.35 Z"/>

<path fill="#8A827C" stroke="none" d="
M 24.65 27.05
L 24.8 27.25 25.15 27.5 24.95 27.25 24.65 27.05
M 27.5 28.9
Q 27.5 28.83046875 27.45 28.7
L 25.75 28.75 25.85 33.35
Q 26.5310546875 33.3787109375 27.25 33.4 28.15 33.4 29.05 33.4
L 28.8 28.7 27.75 28.7
Q 27.598828125 28.8669921875 27.5 28.9
M 16.95 32.6
L 17.25 32.35 17.25 30.6 16.95 32.6
M 27.85 11.7
L 27.4 6.3
Q 23.9 6.25 20.65 6.25
L 18.05 24.85 18.5 24.85 18.5 23.15 24.45 23.15 24.45 24.95 26.9 25.1 28.65 26 27.85 11.7 Z"/>

<path fill="#7E786E" stroke="none" d="
M 27.45 28.7
Q 27.5 28.83046875 27.5 28.9 27.598828125 28.8669921875 27.75 28.7
L 27.45 28.7
M 7.05 11.55
L 7 11.8 9 11.75
Q 9.1 12 9.2 12.35 9.25 12.65 9.25 13.05
L 9.25 13.5 9.2 13.45
Q 8.75 13.25 8.6 13.25 8.3 13.3 8.1 13.45
L 7.75 13.45 7.7 12.5
Q 7.75 12.5 7.8 12.5
L 7.75 12.35 7.25 12.35
Q 7.1759765625 12.35 6.85 12.4
L 6.6 13.5 6.6 13.6
Q 7 13.55 7.45 13.5 8.05 13.5 9 13.9
L 10 13.9 10 13.3
Q 9.1 11.8 9.1 11.15
L 7.25 11.15
Q 7.2 11.35 7.2 11.5
L 7.05 11.55
M 29.25 19.8
L 29.1 19.8 29.1 26.15
Q 29.35 26.5 29.35 27.9 30.25 27.8 30.25 26.65 30.3 27.35 30.75 27.8 31.4 27.6 31.7 26.65 31.75 26.5 31.8 26.35
L 31.35 25.05 30.75 25.65
Q 30.2 23.8 30 22.95 29.7 21.65 29.5 20.05
L 29.25 19.8
M 15.75 17.05
L 15.75 13.3
Q 15.45 13.15 14.7 13.2 14.6 13.2 14.55 13.2 13.55 13.3 13.25 13.3 12.3 13.3 12 13.8 11.75 14.15 11.75 15.15 11.75 15.2 11.75 15.3 11.8 16.75 13 17.3 13.55 17.55 14.05 17.55 14.15 17.55 14.25 17.55 14.75 17.55 15.75 17.05 Z"/>

<path fill="#47422C" stroke="none" d="
M 28.85 27.45
L 28.6 27.2 24.95 27.25 25.15 27.5 25.5 27.9 25.45 28.65 25.5 28.7 25.75 28.75 27.45 28.7 27.75 28.7 28.8 28.7 29 27.65 28.85 27.45
M 15.85 26.3
L 15.45 26.8 14.3 28.2 16.3 28.2 17.25 28.2 18.4 26.8 15.75 26.8 15.85 26.3 Z"/>

<path fill="#F6CFAB" stroke="none" d="
M 16.25 39.95
L 16.15 39.85
Q 16.133984375 39.9095703125 16.1 39.95 16.1935546875 39.9685546875 16.25 39.95
M 17.85 39.85
L 18.3 40.2 18.3 40.3 18.2 40.3
Q 22.49375 41.05 26 41.05 26.75 41.05 27.5 41.05 27.05 40.8 26.6 40.3 26.5552734375 40.2462890625 26.5 40.2
L 26.1 40.2 25.55 40.2 22.35 40.3 20.75 40.35 18.85 40.4 18.45 40.25 18.85 39.85 17.85 39.85 Z"/>

<path fill="#FEE5B7" stroke="none" d="
M 19.7 38.15
L 19.7 37.45 18.4 37.45 18 37.45 18 37.9 17.25 38.65 17.25 39.85 17.85 39.85 18.85 39.85 20.05 39.85 20.05 38.95 19.7 38.15 Z"/>

<path fill="#D3A989" stroke="none" d="
M 15.7 36.95
Q 15.4482421875 37.0076171875 15.3 37.05
L 15 39.7
Q 15.55 39.8 16.1 39.95 16.133984375 39.9095703125 16.15 39.85
L 15.7 39.4 15.7 36.95 Z"/>

<path fill="#7B736C" stroke="none" d="
M 16.7 24.85
L 18.05 24.85 20.65 6.25
Q 19.75 6.25 18.9 6.25
L 16.7 24.85
M 17.25 30.6
L 17.25 28.2 16.3 28.2 15.75 33.1
Q 16.0916015625 33.1 16.45 33.1
L 16.55 33.05 16.95 32.6 17.25 30.6
M 27.55 6.3
Q 27.45 6.3 27.4 6.3
L 27.85 11.7 27.55 6.3 Z"/>

<path fill="#877F78" stroke="none" d="
M 18.4 26.8
L 18.8 26.35 19.5 26.4 20.5 26.4 20.5 27.65 20.95 27.65 22.1 27.65 22.7 27.65 22.7 26.45 23.85 26.45 24.15 26.45 24.65 27.05 24.95 27.25 28.6 27.2 28.85 27.45 28.8 26.1 28.65 26 26.9 25.1 24.45 24.95 24.45 23.15 18.5 23.15 18.5 24.85 18.05 24.85 16.7 24.85 16.1 24.85 15.85 26.2 15.85 26.3 15.75 26.8 18.4 26.8
M 20.7 24.65
L 20.7 24.6 20.6 23.9 22.5 23.9 22.5 24.65 20.7 24.65 Z"/>

<path fill="#726A63" stroke="none" d="
M 20.7 24.6
L 20.7 24.65 22.5 24.65 22.5 23.9 20.6 23.9 20.7 24.6 Z"/>

<path fill="#ADA59F" stroke="none" d="
M 6.1 19.7
Q 6.05 19.15 6 18.75 5.9 19.4 5.65 20.2 5.45 20.75 5.15 21.8 5.35 21.4 5.55 21.25
L 5.6 21.2 5.6 21.4
Q 5.6 21.7 5 23.5 4.3642578125 25.6515625 4.35 27.6
L 5.2 27.4
Q 5.3169921875 27.149609375 5.45 26.95 5.55 26.95 5.65 26.9
L 5.75 26.3 5.5 26.3
Q 5.25 25.8 5.25 24.8 5.25 23.55 5.5 23.3
L 6.25 23.6
Q 6.1 22.15 6.1 19.7
M 4.65 29.35
Q 4.5515625 29.30078125 4.55 29.25 4.550390625 29.350390625 4.6 29.4 4.6 29.35 4.65 29.35
M 3.75 27.65
Q 3.75 27.45 3.8 27.15 3.7 27.15 3.65 27.2 3.55 27.55 3.4 28 3.25 28.55 3.25 28.85
L 3.25 29.65 3.35 29.8
Q 3.35 29.35 3.55 28.7 3.747265625 28.0587890625 3.75 27.65
M 4.3 24.45
Q 4.35 24.2 4.4 24 4.15 24.9 4.1 25.15 4.1 25.2 4.1 25.35 4.2 24.9 4.3 24.45
M 6.7 17.75
Q 6.65 17.8 6.6 17.8
L 6.6 21.9 6.8 20.5 6.7 17.75
M 5.55 18.15
L 5.5 18.1 5.3 18.7
Q 5.425390625 18.39921875 5.55 18.15
M 6.1 16.15
Q 6.1 15.6 6.1 15.55 6.1 15.5 6.1 15.45
L 5.75 16.95
Q 5.8 17 5.8 17.05
L 5.85 17.3
Q 5.9 17.3 5.95 17.35 5.9 16.6 6.1 16.15
M 6.6 13.6
L 6.55 13.6 6.45 14
Q 6.6 14.55 6.6 15.55 6.6 15.8 6.6 16.05
L 6.6 16.2
Q 6.6 16.65 6.7 17
L 6.6 13.6 Z"/>

<path fill="#9B8A79" stroke="none" d="
M 6.85 12.4
Q 6.7427734375 12.4611328125 6.6 12.5
L 6.5 12.5
Q 6.309765625 13.208203125 6.15 13.4 6.25 13.45 6.25 13.55 6.25 14.05 5.85 15.45 5.65 16.15 5.55 16.6 5.7 16.7 5.75 16.95
L 6.1 15.45
Q 6.1 14.1 6.35 13.65 6.4 13.8 6.45 14
L 6.55 13.6 6.6 13.5 6.85 12.4
M 6.7 11.8
L 7 11.8 7.05 11.55 6.8 11.55
Q 6.7615234375 11.698828125 6.7 11.8
M 3.3 27.4
L 3.25 27.4 3.15 27.35 3 27.6 2.85 27.65 2.8 27.65
Q 2.7068359375 27.7830078125 2.6 27.9 2.3568359375 28.2564453125 2.1 28.55 2.19765625 28.940625 2.35 29.8
L 2.35 29.85
Q 2.4 30.2 2.45 30.5 2.45 30.6 2.5 30.7
L 3.3 27.4
M 41.8 29.25
L 41.8 29.25
Q 42.1 28.6 42.1 27.9 42.1 27 42 26.8 40.85 25.75 40.85 25.65 40.6650390625 24.946875 40.45 24.5 40.3779296875 24.3298828125 40.3 24.2 39.95 23.6 39.2 23.05
L 41.4 32.55
Q 41.55 32.5 41.7 32.5 41.75 32.15 41.75 31.6
L 41.5 30
Q 41.5 29.851953125 41.8 29.25
M 2.15 32.25
L 2.15 32.1
Q 2.10625 32.05625 2.1 31.95 2.1056640625 32.0728515625 2.15 32.25
M 5.85 13.45
Q 5.9 13.35 5.95 13.35 5.9 13.3 5.9 13.25 5.85 13.35 5.85 13.45 Z"/>

<path fill="#786E6D" stroke="none" d="
M 6.7 11.8
L 6.35 11.85 6.35 12.5 6.5 12.5 6.6 12.5
Q 6.7427734375 12.4611328125 6.85 12.4 7.1759765625 12.35 7.25 12.35
L 7.75 12.35 7.8 12.5
Q 7.95 12.5 8.35 12.5 8.8 12.5 9.2 12.35 9.1 12 9 11.75
L 7 11.8 6.7 11.8 Z"/>

<path fill="#767471" stroke="none" d="
M 15.6 6.9
Q 15.65 6.85 15.75 6.9
L 15.95 7.05 15.95 7.15 16.05 7.2 16.1 7.6 15.75 7.65 15.5 7.65 14.7 13.2
Q 15.45 13.15 15.75 13.3
L 15.75 17.05
Q 14.75 17.55 14.25 17.55 14.15 17.55 14.05 17.55
L 13.45 22.1
Q 13.65 22.15 14.05 22.45 14.5 22.8 15.25 23.55
L 15.25 26.05 13 26.05
Q 12.95 26.05 12.9 26
L 12.75 27.15
Q 12.85 26.95 13.05 26.8
L 13.1 27.1
Q 13.15 27.05 13.2 27.05
L 13.25 27.05
Q 13.35 26.9 13.5 26.8 13.75 26.95 13.75 27.3 13.75 27.5 13.7 27.85 13.8 28.25 14.1 28.4 14.4 28.5 14.4 28.75 14.4 29.4 14.1 31.45
L 13.85 31.5
Q 13.65 31 13.55 30.65
L 13.5 30.65 13.5 30.6
Q 13.35 30.2 13.25 29.9 13.2015625 29.803125 13.2 29.75 13.199609375 31.0501953125 12.95 31.15 12.7 31.05 12.65 30.6
L 12.65 29.9 12.6 29.9 12.6 31 12.35 31.15
Q 12.25 31.05 12.2 30.85
L 11.9 33.1
Q 12.65 33.05 13.5 33.05 14.2 33.05 15.5 33.1 15.6 33.1 15.75 33.1
L 16.3 28.2 14.3 28.2 15.45 26.8 14.25 26.8 13.95 26.55
Q 14 26.55 14.05 26.4 14.15 26.25 14.4 26.2
L 15.85 26.2 16.1 24.85 16.7 24.85 18.9 6.25
Q 17.25 6.2 15.7 6.2
L 15.6 6.9
M 15.95 23.5
L 15.75 23.65
Q 15.45 23.55 15.25 23.25 15.05 22.95 14.85 22.8 15.1 22.3 15.55 22.75 15.95 23.15 15.95 23.5 Z"/>

<path fill="#4E3C2D" stroke="none" d="
M 18.2 1.05
Q 18.23359375 1.035546875 18.25 1
L 15.95 1
Q 15.9271484375 1.045703125 15.9 1.1 15.8271484375 1.280078125 15.75 1.55 15.65 2 15.6 2.3 15.7 2.25 15.8 2.25
L 16.2 2.25
Q 16.127734375 2.430859375 16.3 2.85 16.3533203125 3.0427734375 16.45 3.25
L 16.5 3.1 17.05 3.1 17 2.2 16.95 1.95 17.2 1.95
Q 17.3025390625 1.95 17.4 1.95 17.573046875 2.0115234375 17.75 2.1 17.8216796875 1.9388671875 17.9 1.75 18.0439453125 1.4455078125 18.2 1.05 Z"/>

<path fill="#5B534D" stroke="none" d="
M 28.3 2
L 28.3 2.25 27.8 2.35
Q 27.55 2.35 27.5 2.3 27.4 2.2 27.45 1.85
L 26.55 1.85 26.3 1.95 26.05 1.95 26.05 1.85
Q 17.2603515625 2.6333984375 16 3.7 16.2 3.65 16.4 3.65
L 16.4 3.7
Q 18.6 3.7 21 3.75 24.75 3.8 29.05 3.8
L 29 3.75 29 2.5
Q 29 2.45 28.95 2.4 28.7419921875 2.150390625 28.3 2 Z"/>

<path fill="#7A726B" stroke="none" d="
M 30.85 10.4
L 30.85 10.3
Q 30.6 10.3 30.2 10.3 28.6 10.35 28 10.3 28.25 10.3 28.25 10.15 29.6 10.1 30.85 10.05
L 30.35 6.3
Q 28.95 6.3 27.55 6.3
L 27.85 11.7 28.65 26 28.8 26.1 28.85 27.45 29 27.65 28.8 28.7 29.05 33.4
Q 29.35 33.35 29.75 33.4 31.65 33.35 33.65 33.25
L 30.85 10.4
M 29.1 19.8
L 29.25 19.8 29.5 20.05
Q 29.7 21.65 30 22.95 30.2 23.8 30.75 25.65
L 31.35 25.05 31.8 26.35
Q 31.75 26.5 31.7 26.65 31.4 27.6 30.75 27.8 30.3 27.35 30.25 26.65 30.25 27.8 29.35 27.9 29.35 26.5 29.1 26.15
L 29.1 19.8 Z"/>

<path fill="#605757" stroke="none" d="
M 9.2 13.45
L 9.25 13.5 9.25 13.05
Q 9.25 12.65 9.2 12.35 8.8 12.5 8.35 12.5 7.95 12.5 7.8 12.5 7.75 12.5 7.7 12.5
L 7.75 13.45 8.1 13.45
Q 8.3 13.3 8.6 13.25 8.75 13.25 9.2 13.45 Z"/>

<path fill="#6C6866" stroke="none" d="
M 30.25 5.6
Q 29.95 5.4 29.6 5.25
L 29.5 5.3
Q 29.45 5.25 29.4 5.2 29.2 5.1 29.05 5.05 28.2 4.75 27.35 4.55 26.05 4.3 24.75 4.3 22.45 4.2 20.9 4.25 20.55 4.25 20.25 4.25 17.5 4.4 15.65 5.35
L 15.7 6.2
Q 17.25 6.2 18.9 6.25 19.75 6.25 20.65 6.25 23.9 6.25 27.4 6.3 27.45 6.3 27.55 6.3 28.95 6.3 30.35 6.3
L 30.25 5.6 Z"/>

<path fill="#78716C" stroke="none" d="
M 35.35 19.95
L 35.35 20.05 35.6 20.3 36 20.3 36 19.6
Q 35.7 19.85 35.35 19.95
M 36 17.65
Q 35.7 17.35 35.75 16.8 35.8 16.3 35.25 16.05 34.95 16.05 34.65 15.95 34.5 15.9 34.35 15.85
L 33.85 15.65
Q 33.7 15.65 33.55 15.9 33.85 16.35 34.15 17.05 34.65 18.2 34.65 18.8
L 34.65 19.3
Q 34.65 19.35 34.65 19.4 35.15 19.15 36 19.15
L 36 17.65 Z"/>

<path fill="#333325" stroke="none" d="
M 3.95 33.9
L 4.05 33.85
Q 4.1 33.85 4.45 34.05 4.6 34.15 4.9 34.2
L 5.05 33.05
Q 3.55 32.9 2.3 32.55
L 2.5 32.85
Q 2.5 33.05 1.9 34.55 2.85 34.75 3.8 34.95 3.9 34.85 4.05 34.8
L 4.1 35
Q 4.251171875 35.0376953125 4.4 35.05 4.492578125 35.0857421875 4.55 35.1 4.65 35.1 4.75 35.1
L 4.8 34.7
Q 4.55 34.6 4.3 34.45 3.95 34.25 3.95 34.15
L 3.95 33.9 Z"/>

<path fill="#2A261E" stroke="none" d="
M 42.3 36.4
L 41.4 32.55
Q 40.55 32.65 39.3 32.8 39.45 33.35 39.65 34 39.65 34.1 39.6 34.2 39.55 34.3 39.3 34.3 38.9 34.3 38.6 32.9 38 32.95 37.3 33 37.15 33 37.05 33.05 37.35 34.3 37.5 34.65
L 37.5 34.8
Q 37.45 34.9 37.45 34.95 37.4 35.05 37.2 35.05 37.05 35.05 36.65 33.45 36.6 33.25 36.55 33.05 35.75 33.1 35 33.15 35.25 34.55 35.7 36.45
L 35.7 36.7 35.45 36.75
Q 35.2 35.75 34.55 33.95 34.4 33.6 34.35 33.2 34 33.2 33.65 33.25
L 34 36.1 34.5 39.85
Q 35.2 39.65 35.9 39.35 38.25 38.35 42.3 36.4
M 36.2 35.85
Q 36.4 35.8 36.6 35.8 36.75 35.85 36.9 35.95 37.85 36.55 38.25 37.4
L 38.25 38.3 36.75 38.3
Q 36.15 38.35 35.95 37.7
L 35.85 37.1
Q 35.85 36.65 36.2 35.85 Z"/>
</g>

<g id="smoke_0_Layer0_0_FILL">
<path fill="url(#Gradient_1)" stroke="none" d="
M 53 10
Q 53 9.95 52.15 8.7 51.25 7.45 51.25 5.25 50.05 6.5 48.6 7.2 48.3 7.35 47.95 7.45 47.9 7.45 47.8 7.5 47.1 7.75 45.35 7.75 44.45 8.25 42.45 8.95 40.2 9.75 39.85 9.75 39.35 9.75 38.15 11.9 36.9 14 36 14 35.7 14 35.55 13.75 35.45 13.5 35.1 13.5 33.05 13.5 32.15 15.15 31.1 17.15 29 17.75 27.05 18.3 27.25 19.25 27.6 21.05 27 22.25 25.5 22.25 25.2 22.65 24.9 23 24.6 23 24.3 23 24.1 22.75 23.95 22.5 23.6 22.5 23.15 22.5 21.4 24.65 19.6 26.75 18.75 26.75 16.8 26.75 15.6 28.75 13.8 31.75 13.25 32.25 12.85 32.6 10.75 34.7 8.7 36.8 7.5 37.75 5.95 38.95 4.6 39.75 3.8 40.3 2.75 42 2.35 42.55 0.5 43.5 0.5 43.9 0.65 44.5 0.65 45.1 0 45.75
L 0 47
Q 1.8 47.45 2.25 47 2.15 47.95 2.3 48.35 2.5 48.9 3.25 49.5 4 49 4.55 47.85 5.45 46.05 5.5 46
L 6.25 46
Q 6.75 48.5 6.75 50.25 8.9 50.25 10.05 49.4 11.15 48.5 11.75 48.5 12.05 48.5 11.85 48.9 11.65 49.25 12 49.25 12.35 49.25 12.4 49.05 12.6 48.5 12.75 48.25 13.75 48.75 13.75 49.25 13.85 49.2 14.05 48.65 14.2 48.15 14.5 48 14.65 48.1 15.15 48.45 15.45 48.75 15.75 48.75 15.75 47.1 16.75 44.85 17.95 42.25 19.35 42.25 19.75 42.25 20.2 42.5 20.7 42.75 20.75 42.75 21 40.6 21.8 40.7 22.2 40.75 22.6 41.25 22.75 41.25 23.9 39.9 25.3 38.3 27.75 37.25 28.65 36.85 30.8 34.75 33 32.65 33.75 32.25 36.65 30.7 38.85 26.05 41.95 19.4 42.25 19 42.5 19 43.25 19.75 43.7 18.75 48.6 15.55 53 12.7 53 10 Z"/>

<path fill="url(#Gradient_2)" stroke="none" d="
M 91.5 11
Q 91.45 6.85 89.55 4.65 87.15 2.5 86 0.5 81.8 1.65 79.8 3.1 79.05 3.9 78.25 4.8 77.6 5.75 76.45 7.45 76.35 7.6 76.25 7.75
L 76.35 7.85
Q 76.55 7.9 77 7.75 77 11.3 75.25 13.7 73.5 16.1 73.5 16.75 73.5 17.15 74 17.85 74.5 18.6 74.5 19.25 74.5 21.1 74.15 23.4 73.75 26.15 73 28 72.4 29.4 72.3 30.45 72.25 31 72.25 33.85 72.25 34.75 72.75 36.15 73.25 37.6 73.25 40.25 73.25 41.95 72.65 43.2 72 44.45 72 44.6 72 44.85 72.15 45.35 72.25 45.8 72.25 46.5
L 72.25 46.75
Q 73 46.55 74 46
L 74.5 46
Q 74.5 46.8 74.75 48.45 75 50.05 75 51.25 75.8 50.3 76.4 49.7 77.5 48.65 78.75 48.25 79 48.6 79.4 49.65 79.75 50.65 79.75 51
L 80.1 51
Q 81 52 82 53 82.4 52.85 83.25 52.1 84.15 51.3 84.5 50.75 84.95 50.75 85.25 52
L 85.5 52.5
Q 85.75 51.75 85.75 51.5 86.25 51.5 87 52.75
L 87.25 53.25
Q 87.15 51.65 87.8 50.85 88.35 50.25 89.1 50.25 89.15 50.25 91 51 91.25 49.25 91.25 46.75 92.15 46.75 94.65 48.05 97.65 49.65 98 49.75 97.75 47.7 98.15 47 98.4 46.55 99.25 46.5 99.25 44.25 99 43.25 99.95 43.2 100.15 42.75 100.25 42.6 100.25 42 100.25 41.6 99.75 40.85 99.25 40.1 99.25 39.6 99.25 39.3 99.5 38.5 99.75 37.7 99.75 37.35 99.75 36.3 98.75 35.6 97.75 34.9 97.75 34.25 97.75 34.2 98.4 31.85 99 29.5 99 27.75 98.25 27.95 97.75 27.55 97.25 27.15 97.25 26.25 97.25 25.15 97.65 24.65 98 24.2 98 24.1 93.95 18.9 93.25 17.75 91.5 15 91.5 11
M 142.25 17
L 142.25 15.5 140.25 15.5
Q 139.2 14.75 134.85 13.3 132.7 12.6 132.5 9.5 129.35 10.6 127.3 8.2 125.85 6.4 125.75 4.75
L 122.75 4.75
Q 122.6 3.85 120.2 1.95 117.7 0 116.5 0 115.75 0 113.2 0.5 110.8 1 110.75 1
L 109.25 3
Q 109.5 4.75 109.5 8.25
L 111.5 8.25
Q 111.3 13.4 112.6 16.7 113.95 20.25 114 21.75
L 114.75 21.75
Q 114.75 21.4 115.75 21.3 117.05 21.2 117.5 21
L 118.1 21
Q 118.95 21 120.15 23.65 121.25 26.1 121.25 27 122.1 27.05 122.8 27.85 123.6 28.85 123 30 124.3 28.75 124.5 28.75 125.45 28.75 125.65 29.4 125.8 30 126.35 30 127 30 128 29.5 129 29 129.1 29 129.6 29 130.25 29.8 130.95 30.6 131.75 30.75 131.8 30.75 132.65 30.75 133.55 30.85 134 31.25 134.7 31.8 136.05 32.45 137.35 33 137.75 33 138.05 33 138.45 32.75 138.8 32.5 139.1 32.5 139.35 32.5 144.5 35 145.2 35.3 148.85 37.25 149.45 37.25 150.5 34.75 151.5 32.3 151.5 31 151.55 30.35 151.4 29.85 151.15 28.85 150.25 29.5
L 150.25 25.25
Q 149.85 24.9 148.65 24.45 147.5 24 147.25 23.75
L 146 24.5
Q 145.75 24.25 145.75 23.1 145.75 22.15 145.9 21.7 146 21.45 146.5 20.5
L 146.5 19 145.25 19
Q 145.25 16.5 145.5 16.5
L 145.5 16.25
Q 144.9 16.25 143.75 17
L 142.25 17 Z"/>
</g>

<g id="thrusters_0_Layer0_0_FILL">
<path fill="#E3DDB1" stroke="none" d="
M 3.45 54.6
Q 3.2 54.85 3.1 55.5
L 3.55 55.65 3.7 55.5 3.7 55.1
Q 3.7 54.75 3.45 54.6
M 79.2 22.4
L 79 22.25
Q 78.85 22.35 78.7 22.5
L 78.7 24 79.15 24 79.2 23.9 79.2 22.4
M 78.85 17.4
L 78.6 17.4 78.6 19.2 78.85 19.25
Q 79.15 19.1 79.15 18.3 79.15 17.7 78.85 17.4 Z"/>

<path fill="#EDD0B2" stroke="none" d="
M 0 52
L 0 52.2
Q 0.05 52.15 0.1 52.2
L 0.45 52.25
Q 0.85 52.25 0.75 52.2
L 0.75 51.45 0.55 51.3
Q 0.45 51.35 0.25 51.6 0 51.85 0 52
M 3.55 51.15
Q 3.4 50.45 3.4 50.15 2.55 50 2.35 50.35 2.25 50.45 2.25 50.95 2.25 51.75 3.15 51.75 3.55 51.75 3.55 51.15
M 7.75 55.05
Q 7.5 55.05 7.5 55.5 7.5 55.75 7.6 55.8
L 7.9 55.85
Q 7.9 55.8 8.05 55.8 7.85 55.15 7.75 55.05
M 8.3 51.6
Q 8.25 51.7 8.25 52.15 8.25 52.45 8.45 52.8 8.7 53.25 9 53.25 9.4 53.25 9.25 53.1 9.4 51.9 9.4 51.5 9.4 51.3 9.35 51.3 9.25 51.35 9.25 51.3 8.5 51.3 8.3 51.6
M 23.25 40.1
Q 23.25 39.3 22.9 38.9 21.8 40 21.55 40.55 21.4 40.9 21.25 41
L 21.25 42.25
Q 22.9 42.1 23.25 41.15 23.25 40.2 23.25 40.1
M 12 47.85
L 12 46.95
Q 11.55 46.75 11.25 47.1 11.05 47.3 11.05 47.5 11.05 48 11.55 48 11.95 48 12 47.85
M 13.4 43.9
Q 13.3 43.7 13.25 43.6 12.8 44.2 12.5 44.5
L 12.5 45.75
Q 13.3 45.25 13.4 45.15 13.5 45 13.5 44.6 13.5 44.25 13.4 43.9
M 7.9 47.3
Q 7.45 47.1 6.8 47.05 5.35 48.9 5.4 49.3 5.45 49.55 5.5 50 5.75 50.25 6.35 50.25 7.8 50.25 8.25 49.5 8.5 49.1 8.5 48.1 8.5 47.95 8.45 47.8 8.4 47.7 8.35 47.65 8.2 47.4 7.9 47.3
M 9.25 41.25
L 9.75 41.5
Q 8.45 42.7 8.3 43.05 8.2 43.3 8.25 43.75
L 9.5 44.25 11.5 44.25 11.5 42
Q 11.2 41.8 10.45 41.55 9.6 41.25 9.25 41.25
M 16.9 41.45
Q 16.95 41.45 17 41.5 17.35 41.75 17.65 41.75 17.95 41.75 18 41.2 18 41.15 18 41.05 18 40.6 17.95 40.5 17.75 40.15 16.9 40.35
L 16.9 41.45
M 14.55 35.5
Q 14.45 36 14.5 36.75
L 16 36.75 16.75 34.5 16.75 33
Q 16.35 33.2 16 33.5 15.95 33.55 15.95 33.6 15.85 33.65 15.75 33.75 14.75 34.75 14.55 35.5
M 72.1 41.85
L 72.25 41.7
Q 72 40.9 71.85 40.8
L 71.65 40.95 71.65 41.85 72.1 41.85
M 70.2 45.4
Q 70.2 46.1 70.6 46.1 70.6 46.05 70.75 46.05
L 70.75 44.75 70.45 44.6
Q 70.2 44.85 70.2 45.4
M 69.7 38.8
Q 69.7 39.2 69.75 39.25 69.85 39.45 70.35 39.6
L 70.45 39.5 70.45 38.15 70.2 38
Q 69.7 38.05 69.7 38.8
M 71.35 34.1
Q 71.3 34.15 70.95 34.3 70.75 34.4 70.75 34.65 70.75 34.8 70.9 35.1 71.05 35.55 71.35 35.55 71.75 35.55 71.55 35.45 71.65 35.3 71.65 34.8 71.65 34.5 71.35 34.1
M 74.7 33.9
L 74.5 33.75
Q 74.3 33.85 74.2 34.05
L 74.2 35.25 74.65 35.25 74.7 35.15 74.7 33.9
M 77.65 28.25
Q 77.45 27.7 77.2 27.5 77.1 27.55 77.05 27.55 76.95 27.6 76.95 27.85 76.95 28 77.35 28.35
L 77.55 28.35 77.65 28.25
M 24.25 33.35
Q 24.25 32.8 23.8 32.35 23.6 32.1 23.35 32 23.3 31.95 23.25 31.9 23.05 32 22.95 32.1 22.15 32.5 22.05 32.65 21.95 32.75 21.75 33
L 21.75 35 24 35
Q 24.25 34.25 24.25 33.35
M 24.85 29.7
L 24.85 28.95 24.6 28.8
Q 24.25 29.05 24.25 29.7
L 24.65 29.75 24.85 29.7
M 30 26.5
Q 29.4 26.35 28.95 26.3 28.85 26.25 28.75 26.25 28.55 26.4 28.4 26.6 28.25 26.75 28.15 26.9 27.65 27.5 27.4 28.15 27.05 29.05 27.25 29.5 27.75 29.75 28.6 29.75 29.1 29.75 29.25 29.6 29.35 29.5 30 28.25
L 30 26.5
M 33.2 25.35
L 33 25.25
Q 32.7 25.5 32.45 25.7 32.35 25.8 32.35 26.05 32.35 26.25 32.8 26.6 33.25 26.45 33.25 25.65 33.25 25.4 33.2 25.35
M 35 21.3
Q 33.65 22.2 33.5 24.5
L 33.65 24.75
Q 33.8 24.95 34.1 25 34.15 25 34.25 25 34.95 25 35.7 23.7 36.4 22.4 36.5 22.25 37.05 21.65 38.05 21.4 38.95 21.15 39.25 20.75
L 39.25 19.5
Q 39 19.5 38.6 19.1 38.5 19.15 38.4 19.25 38.25 19.3 38.15 19.35 38.05 19.4 37.95 19.5
L 37.9 19.5
Q 35.75 20.8 35 21.3
M 77.95 21.6
Q 77.85 21.45 77.85 21.35 77.5 21.3 77.4 21.55 77.35 21.65 77.35 21.85 77.35 22.05 77.8 22.25
L 77.85 22.2
Q 77.95 22 77.95 21.6
M 147.3 65.8
Q 148.45 65 149.5 64.7
L 149.5 64.35
Q 149.5 63.65 148.25 64.25 147.05 64.8 146.2 65.7 144.45 65.75 144.4 65.85
L 144.4 66.2
Q 144.5 66.35 144.95 66.35 146.55 66.35 147.3 65.8
M 120.9 27.3
Q 120.85 27 120.6 26.85 120.25 27.4 120.25 27.75 120.25 27.85 120.65 28.3 121 28.65 121.2 28.8
L 121.35 28.65 121.35 27.5 121.3 27.3 120.9 27.3
M 85.6 38
Q 85.5 38.05 85.45 38.05 85.35 38.1 85.35 38.3
L 85.45 39.6 85.9 39.6 85.95 39.5 85.95 38.15
Q 85.8 38 85.6 38
M 86.95 33.1
Q 86.95 32.85 86.65 32.6 86.35 32.8 86.35 33.4 86.35 34.1 86.8 34.1
L 86.85 34.05 86.95 33.1
M 81.25 32.7
L 81.25 33.6 81.6 33.6 81.7 33.5 81.7 32.7 81.45 32.55 81.25 32.7
M 74.85 9.95
Q 74.6 10.75 74.05 12.05 73.5 13.25 73.5 13.35 73.5 13.5 73.75 13.55 74 13.75 74 14.85 74 16.4 73.9 16.6 73.4 17.4 72.5 19
L 72.25 19.5 73.25 18.5
Q 73.25 20.05 72.5 21.75 73.75 23 73.75 23.35 73.75 24.95 72.75 26.65 71.5 28.75 71 31.5 72.65 32.25 72.75 34.45 72.8 35.6 72.5 37.4 72.75 36.2 74.25 30.7 75.75 25.2 75.75 24.25 75.75 23.9 75.5 23.6 75.25 23.3 75.25 23 75.25 22.4 76.75 21 76.25 21 75.75 20.5 75.8 20.45 76.5 20.15 77 19.95 77 19 77 18.6 76.65 18.35 76.25 18.1 76.25 18 76.25 17.6 77 16.3 77.75 15.05 77.75 14 77.75 13.3 78.1 11.75 78.15 11.5 78.2 11.35 78.1 10.95 77.95 10.5 77.75 9.85 77.5 9
L 77.25 9.75
Q 77.25 10.5 77 11.75 76.85 11.75 76.65 11.5
L 76.5 11.25
Q 76.45 12.6 76.25 14.5
L 76 14.5
Q 75.5 11.6 75.5 8.75 75.4 8.85 74.85 9.95
M 82 9.9
Q 81.95 9.75 81.85 9.6 81.45 8.75 80.75 8.25 80.75 9.65 80.7 10.8 80.6 11.9 80.5 12.75
L 80.1 12.75
Q 80 13.3 79.75 14.5 79.9 14.5 80.5 14.1 81 13.75 81.25 13.5 81.25 13.6 81.25 13.7
L 81.25 13.75
Q 81.2 14.75 80.75 16.85 81.15 19.25 81.25 19.25 81.55 19.25 81.35 19 81.15 18.75 81.5 18.75 81.4 18.75 81.65 20.05 81.75 21.65 81 23.25
L 81.5 22.5
Q 81.5 24.15 81.35 24.8 81.55 24.55 82 24.25 81.85 24.85 82.3 25.5 82.5 25.85 82.75 26.1 82.75 26.45 82.4 27.6 82.35 27.75 82.3 27.85 82.1 28.45 82.05 28.8 82.2 31.5 83.25 36.5 84 36.5 84.75 35.75
L 84.75 27 83.5 27 83.5 25.25
Q 83.75 24.65 83.85 24.4 84 24 84 23.6
L 83.25 22
Q 83.25 21.65 83.65 20.75 84 19.8 84 19.5 83.75 17.5 83.75 16.5
L 82.75 16.5
Q 82.3 15.45 82.15 13.3
L 82.15 13.25
Q 82 11.95 82 10.25 82 10.1 82 9.9
M 144.05 44.75
Q 144.45 44.75 144.25 44.7
L 144.25 44.25
Q 144.25 43.95 144 43.8
L 143.8 43.8 143.8 44.7 144.05 44.75
M 142.75 42.6
Q 142.5 42.7 142.5 43.1 142.5 43.5 142.9 43.5
L 143.05 43.05
Q 143.05 42.7 142.75 42.6
M 144.1 38.6
L 143.9 38.6
Q 143.8 38.6 143.8 38.85 143.8 39 144.25 39.3 144.25 39.15 144.4 39.05 144.4 38.8 144.1 38.6
M 147.85 39.3
Q 147.85 38.9 147.6 38.75 147.4 38.85 147.4 39.35 147.4 39.65 147.7 39.9
L 147.85 39.75 147.85 39.3
M 143.25 37.05
Q 143.2 37 143.15 37 143.05 37.05 143.05 37.25 143.05 37.5 143.1 37.55 143.15 37.55 143.25 37.5 143.5 37.5 143.5 37.25 143.5 37.15 143.25 37.05
M 133.65 40.95
Q 133.3 40.85 133.15 41 133.15 41.6 133.55 41.6 133.95 41.6 133.75 41.55 133.75 41 133.65 40.95
M 134.85 37.8
Q 134.5 37.8 134.5 38.25
L 134.95 38.75 135.1 38.7 135.1 38.25
Q 135.1 37.95 134.85 37.8
M 141.7 39.9
Q 141.55 40.35 141.55 40.7 141.75 40.8 142 40.8 142.25 40.8 142.3 40.75 142.35 40.7 142.35 40.4 142.35 40.1 141.7 39.9
M 139.75 42.9
L 139.75 43.2
Q 140.2 43.65 140.5 43.65 140.9 43.65 140.8 43.5 140.8 43.1 140.3 42.95 140.1 42.9 139.75 42.9
M 138.75 41.75
Q 138.75 42.1 139.15 42.35 139.5 41.9 139.5 41.75
L 139 41.1
Q 138.75 41.25 138.75 41.75
M 137.4 38.7
Q 136.75 38.7 136.75 39.3 136.75 40.1 137.25 40.35 138 40.05 138 39.55 138 38.7 137.4 38.7
M 140.8 38
Q 140.8 37.65 140.5 37.65 140.3 37.7 140.25 37.85 140.2 38 140.05 38 140.05 37.75 139.75 37.5 139.5 37.75 139.5 38.1 139.5 38.15 139.5 38.5 139.6 38.85 140.15 38.85 140.45 38.85 140.65 38.5 140.8 38.25 140.8 38
M 140.8 37.65
L 141 37.8
Q 141.25 37.65 141.25 37.5 141.25 37.4 141 37.25 140.8 37.4 140.8 37.65
M 128.8 34.4
Q 128.8 34.6 129 34.85 129.4 34.75 129.75 34.05
L 129.7 33.9
Q 129.05 33.4 128.85 33.75 128.8 33.85 128.8 34.4
M 123.25 28.65
Q 123.15 28.4 123.15 28.35 122.35 28.4 122.25 28.4
L 122.25 29.55
Q 122.3 29.6 122.4 29.65 122.5 29.75 122.75 29.75 123.1 29.75 122.95 29.7 123.25 29 123.25 28.65
M 139.75 35.85
Q 140.05 35.7 140.05 35.3 140.05 35.1 140 35.1 139.95 35.15 139.9 35.1 139.4 34.9 139 35.45 139.2 35.6 139.75 35.85
M 139.15 32.85
Q 138.9 33.05 138.75 33.75
L 139.2 33.75
Q 139.35 33.55 139.35 33.3 139.35 32.9 139.15 32.85
M 133 24.5
L 133 24.2
Q 133 23.8 132.7 23.6 132.35 23.4 132.1 23.9
L 132.1 24.6 132.55 24.6
Q 132.85 24.6 133 24.5
M 127.15 20.4
Q 126.85 20.4 126.85 20.9 126.85 21.15 126.9 21.2 126.9 21.25 127.15 21.35
L 127.3 21.3 127.35 20.85
Q 127.35 20.6 127.15 20.4
M 136.5 30.2
Q 136.6 30.3 136.6 29.9 136.6 29.55 136.35 29.55 135.95 29.8 136 30.2
L 136.2 30.25 136.25 30.3 136.35 30.3
Q 136.45 30.3 136.5 30.2
M 120 20.4
L 120 21.6 120.25 21.6
Q 120.4 21.6 120.55 21.45
L 120.55 20.6
Q 120.4 20.4 120.25 20.4
L 120 20.4
M 126.25 26.55
L 126.55 26.4 126.55 25.65
Q 126.4 25.4 126.25 25.35 126 25.45 126 25.95 126 26.4 126.25 26.55
M 128.45 27
Q 128.4 26.95 128.3 26.9 127.4 28.35 127.3 28.55 127.25 28.65 127.25 29.25 127.25 30.4 127.4 30.5 127.6 30.7 128.25 30.8 128.9 30.95 130 31 130.25 30.25 130.25 29.6 130.25 28.15 128.45 27
M 130.95 25.4
Q 130.55 25.25 130.25 25.5 130 25.7 130 25.9 130 26 130.15 26.25 130.35 26.55 130.65 26.55 131 26.55 131.05 26.4
L 131.05 25.65 130.95 25.4
M 132.55 35
Q 133 35 133 34.45 133 33.8 131.95 33.9 131.85 34.05 131.85 34.2 131.85 34.35 132 34.6 132.25 35 132.55 35
M 133.25 32.7
Q 133 33.25 133 33.6 133 34.25 133.25 34.25
L 134.75 34.25 134.75 32.5
Q 133.75 32.5 133.5 32.25
L 133.25 32.7
M 132.4 29
Q 132.4 28.75 132.15 28.5 131.8 28.15 131.4 28.35
L 131.35 28.65
Q 131.45 28.8 131.5 29.15 131.6 29.4 132.05 29.4 132.35 29.4 132.4 29.35 132.4 29.3 132.4 29
M 122 24
L 122 22.5
Q 121.4 22.5 120.4 22.15 120.3 22.1 120.25 22.1
L 120 22.5 120 23.75 120.5 24 122 24
M 123.85 22.85
Q 123.8 22.7 123.4 22.1 123.4 22.2 123.1 22.2 123.1 22.4 123 22.9 123 23.15 123.2 23.6 123.4 24.1 123.4 24.3 123.7 24.3 123.85 24.15
L 123.85 23.45
Q 123.85 22.9 123.85 22.85
M 123.6 20.8
Q 123.6 21 124 21.3 124.15 21.15 124.15 20.75 124.15 20.5 123.85 20.25 123.6 20.35 123.6 20.8 Z"/>

<path fill="#AE8A6D" stroke="none" d="
M 16 36.75
L 14.5 36.75 14.1 41.3 14.4 41.2
Q 14.5 41.4 15.2 41.45 15.9 41.55 16.85 41.5 16.9 41.5 17 41.5 16.95 41.45 16.9 41.45
L 16.9 40.35
Q 17.75 40.15 17.95 40.5 18 40.6 18 41.05 18 41.15 18 41.2 18.05 41.2 18.1 41.15 18.9 40.8 19.25 40.25
L 19.25 37.25 17.25 37.25 16 36.75
M 42.15 16.2
Q 42.05 16.3 41.95 16.4 41.6 16.75 41 16.75
L 40.55 16.15
Q 40.4 16.2 40.25 16.25 40.15 16.3 40.05 16.35 39.55 16.55 39.2 16.95 38.35 18.1 37.5 18.75
L 37 17.75
Q 34.7 19.8 33 21.2 30.25 23.45 27.7 24.25 27.2 24.4 26.75 24.5 25.7 24.7 22.55 28.35 19.5 31.8 19.5 32.35 19.5 32.4 20 34.05 20.4 35.7 20.5 37.15
L 20.5 37.2
Q 20.5 37.5 20.5 37.75 20.75 37.75 21.55 38
L 21.6 38
Q 22.4 38.25 22.75 38.25 23.95 38.25 24.25 36.5 24.45 36.6 25.75 37.5 25.6 35.3 26.9 34.2 28 33.3 29.5 33.5 29.85 32.85 31.75 30.3 33.15 28.45 33.25 27 33.35 27.1 33.7 27.25 34 27.35 34 27.5 36.2 25.45 37.45 24.3 39.8 22.15 41 22.25 41.1 21.4 43.05 19.7 44.6 18.4 45.1 17.15 45.1 17.05 45.15 16.95 44.65 16.75 44.25 16.75 44.1 16.75 43.95 16.8 43.6 16.8 43.45 16.9 43.25 17 42.75 17.75 42.75 17.6 42.65 17.55
L 42.5 17.5
Q 42.6 16.95 42.7 16.4 42.75 16.25 42.75 16.15 42.3 16 42.25 16 42.2 16.1 42.15 16.2
M 33.5 24.5
Q 33.65 22.2 35 21.3 35.75 20.8 37.9 19.5
L 37.95 19.5
Q 38.05 19.4 38.15 19.35 38.25 19.3 38.4 19.25
L 38.5 19
Q 38.55 19.05 38.6 19.1 39 19.5 39.25 19.5
L 39.25 20.75
Q 38.95 21.15 38.05 21.4 37.05 21.65 36.5 22.25 36.4 22.4 35.7 23.7 34.95 25 34.25 25 34.15 25 34.1 25 33.8 24.95 33.65 24.75
L 33.5 24.5
M 33 25.25
L 33.2 25.35
Q 33.25 25.4 33.25 25.65 33.25 26.45 32.8 26.6 32.35 26.25 32.35 26.05 32.35 25.8 32.45 25.7 32.7 25.5 33 25.25
M 28.5 26.25
Q 28.6 26.25 28.75 26.25 28.85 26.25 28.95 26.3 29.4 26.35 30 26.5
L 30 28.25
Q 29.35 29.5 29.25 29.6 29.1 29.75 28.6 29.75 27.75 29.75 27.25 29.5 27.05 29.05 27.4 28.15 27.65 27.5 28.15 26.9 28.25 26.75 28.4 26.6
L 28.5 26.25
M 24.85 28.95
L 24.85 29.7 24.65 29.75 24.25 29.7
Q 24.25 29.05 24.6 28.8
L 24.85 28.95
M 23.8 32.35
Q 24.25 32.8 24.25 33.35 24.25 34.25 24 35
L 21.75 35 21.75 33
Q 21.95 32.75 22.05 32.65 22.15 32.5 22.95 32.1 23.05 32 23.25 31.9 23.3 31.95 23.35 32 23.6 32.1 23.8 32.35
M 125.75 22.25
L 121.55 20.25
Q 121.45 20.15 121.35 20.1
L 121.3 20.1
Q 121.25 20.1 121.2 20.05 120.9 19.9 120.65 19.8 119.8 19.4 119.05 19.1 118.75 18.95 118.5 18.85 117.95 18.65 117.5 18.5
L 117.3 18.45
Q 116.85 18.25 116.45 18.15 116.2 18.25 116 18.25 115.85 18.25 115.6 18.05 115.5 18.2 115.5 18.5 115.5 18.9 115.7 19.45
L 115.75 19.5 115.75 19.6
Q 115.85 19.9 116.05 20.25 116.2 20.5 116.35 20.8 116.45 20.95 116.5 21.05 116.8 21.6 117.25 22.25
L 117.25 25.25
Q 118.6 25.4 119.85 25.25 120.75 25.4 122 27.25 122.2 27.25 122.35 26.95 122.5 26.65 122.5 26.25
L 122.75 26.25
Q 123.25 29.3 125.4 30.8
L 126.45 31.35
Q 126.6 31.45 126.75 31.5
L 126.85 31.55
Q 127.3 31.7 127.9 31.9
L 127.95 31.9
Q 128.65 32.1 129.5 32.25 130.65 33.9 132.55 35.2
L 132.6 35.25
Q 132.75 35.35 132.9 35.45
L 133.4 35.75
Q 134.2 36.25 135.75 37.15
L 135.5 36
Q 135.95 36 137.4 36.4 138.8 36.8 139 36.75 139 36.5 138.6 35.95 138.05 35.1 137.75 34.5
L 138.5 34.5
Q 138.7 33.5 137.5 32.3 136.25 30.95 136.25 30.3
L 136.2 30.25
Q 134.45 30.75 133.6 28.9 132.2 25.9 131.25 25 130.15 23.95 128.7 23.35 126.9 22.75 125.75 22.25
M 123.4 22.1
Q 123.8 22.7 123.85 22.85 123.85 22.9 123.85 23.45
L 123.85 24.15
Q 123.7 24.3 123.4 24.3 123.4 24.1 123.2 23.6 123 23.15 123 22.9 123.1 22.4 123.1 22.2 123.4 22.2 123.4 22.1
M 122 22.5
L 122 24 120.5 24 120 23.75 120 22.5 120.25 22.1
Q 120.3 22.1 120.4 22.15 121.4 22.5 122 22.5
M 132.15 28.5
Q 132.4 28.75 132.4 29 132.4 29.3 132.4 29.35 132.35 29.4 132.05 29.4 131.6 29.4 131.5 29.15 131.45 28.8 131.35 28.65
L 131.4 28.35
Q 131.8 28.15 132.15 28.5
M 133 33.6
Q 133 33.25 133.25 32.7
L 133.5 32.25
Q 133.75 32.5 134.75 32.5
L 134.75 34.25 133.25 34.25
Q 133 34.25 133 33.6
M 133 34.45
Q 133 35 132.55 35 132.25 35 132 34.6 131.85 34.35 131.85 34.2 131.85 34.05 131.95 33.9 133 33.8 133 34.45
M 130.25 25.5
Q 130.55 25.25 130.95 25.4
L 131.05 25.65 131.05 26.4
Q 131 26.55 130.65 26.55 130.35 26.55 130.15 26.25 130 26 130 25.9 130 25.7 130.25 25.5
M 128.3 26.9
Q 128.4 26.95 128.45 27 130.25 28.15 130.25 29.6 130.25 30.25 130 31 128.9 30.95 128.25 30.8 127.6 30.7 127.4 30.5 127.25 30.4 127.25 29.25 127.25 28.65 127.3 28.55 127.4 28.35 128.3 26.9
M 126.55 26.4
L 126.25 26.55
Q 126 26.4 126 25.95 126 25.45 126.25 25.35 126.4 25.4 126.55 25.65
L 126.55 26.4
M 120 21.6
L 120 20.4 120.25 20.4
Q 120.4 20.4 120.55 20.6
L 120.55 21.45
Q 120.4 21.6 120.25 21.6
L 120 21.6 Z"/>

<path fill="#FCFCF8" stroke="none" d="
M 60.25 1.75
Q 59 1.75 58.4 1.9 57.8 2 57.5 2 57.35 2 57.1 2.5 56.85 3 56.5 3 56.2 3 55.8 2.75 55.45 2.5 55.1 2.5 54.55 2.5 53.85 3.5 53.15 4.45 53.25 5
L 52.75 5
Q 52.3 3.55 52 3.25 51.25 3.75 50.95 5.25 50.65 6.5 49.75 6.75 47.75 7.2 47.4 7.95 47.25 8.85 46.75 9.25 42.95 9.85 42.8 10 42.55 10.35 43 13 43 14.45 42.75 16.15 42.9 16.2 43.15 16.25 44 16.5 45.25 16.5 45.2 16.7 45.15 16.95 45.65 17.15 46.25 17.5 46.55 16.55 47 16.35 47.15 16.25 47.6 16.25 47.8 16.25 48.25 16.4 48.85 16.6 49.25 17 49.65 15.35 50.5 14 50.9 14 51.25 14.75
L 51.75 15
Q 52.55 14.05 52.45 12.55 52.35 11.5 53.75 11 54 11.25 54.5 12 54.8 11.3 56 9.8 57.15 8.3 57.75 7 58 7 58 7.75 58.75 7.15 59.75 5.65 60.45 4.55 60.65 3.8 60.5 3.05 60.4 2.45 60.25 1.9 60.25 1.75
M 83.5 4.1
Q 83.5 1.9 81.75 0.75 80.6 0 79.75 0 78.65 0 78.4 0.2
L 78.35 0.2 78.3 0.25 78.4 0.55 78.5 0.55
Q 78.55 0.55 78.75 0.75
L 78.75 1.25
Q 78.6 1.25 78.4 0.65
L 78.4 0.55
Q 78.25 0.5 78.1 0.5 78.05 0.5 78 0.5 77.3 0.5 77.5 1.25 77.25 0.75 77.2 0.7 77.05 0.5 76.6 0.5 76.25 0.5 75.95 0.65
L 75.75 0.75
Q 75.75 2.75 76 3.75
L 76 5.25
Q 75.65 5.25 75 5.6 74.25 6.05 74 6.5 73.9826171875 6.9423828125 73.95 7.3 73.85 7.9 73.75 8.25
L 73.75 8.5
Q 73.75 8.8 73.9 9.3 74 9.85 74 10.25
L 74.25 10.5
Q 74.25 11 74.75 10.1 74.8 10 74.85 9.95 75.4 8.85 75.5 8.75 75.5 11.6 76 14.5
L 76.25 14.5
Q 76.45 12.6 76.5 11.25
L 76.65 11.5
Q 76.85 11.75 77 11.75 77.25 10.5 77.25 9.75
L 77.5 9
Q 77.75 9.85 77.95 10.5 78.1 10.95 78.2 11.35
L 78.2 11.4
Q 78.35 11.75 79.25 12.25 79.3 11.95 79.6 10.8 79.740625 10.284375 79.75 9.85 79.753125 12.058984375 80 12.75
L 80.1 12.75
Q 80.1 12.7 80.1 12.65 80.25 11.7 80.7 10.8 80.75 9.65 80.75 8.25 81.45 8.75 81.85 9.6 81.95 9.75 82 9.9 82.5 11.15 82.5 13
L 82.75 13.5
Q 83.45 8.55 83.5 7.9 83.5 7.65 83.5 4.1
M 117.25 11.75
Q 116.65 10.85 114.2 9.55 112.15 8.4 110.25 7.75 109.4 7.4 104.25 3.75 104.15 3.7 101.25 2.5 99.35 1.75 98.3 0.4 98.35 0.65 98.4 0.95
L 98.25 1 98.25 1.25
Q 98.25 1.9 98.65 4 99.05 5.95 99 7 100.3 6.95 100.7 8.5 101.1 10.05 103 10 104.25 12.75 107.05 16.1 110.7 20.55 114.5 22.25
L 114.5 22
Q 113.8 20.1 113.75 19.75 114.95 20.4 115.75 20.5
L 115.75 19.6
Q 115.7 19.5 115.7 19.45 115.15 18.95 114.25 18.5
L 114.25 17.25
Q 114.75 17.25 115.25 17.75 115.45 17.95 115.6 18.05 115.6 18 115.65 18 115.7 17.95 115.75 18 116.05 18.05 116.45 18.15 116.55 18.1 116.65 18 116.9 17.75 117 17.75 117.3 18.15 117.3 18.45
L 117.5 18.5
Q 117.8 18.5 118.75 18.5 119.75 18.5 120.75 18
L 120.5 17
Q 118.55 17.05 118.15 15.2 117.5 12.15 117.25 11.75 Z"/>
</g>
</defs>

<g id="ship" transform="matrix( 1.47674560546875, 0.2665252685546875, -0.2665252685546875, 1.47674560546875, 173.05,4.5) ">
<g transform="matrix( 1, 0, 0, 1, 0,0) ">
<use filter="url(#Filter_1)" xlink:href="#ship_0_Layer1_0_FILL"/>
</g>

<g transform="matrix( 1, 0, 0, 1, 0,0) ">
<use filter="url(#Filter_1)" xlink:href="#ship_0_Layer0_0_FILL"/>
</g>
</g>

<g filter="url(#Filter_2)" transform="matrix( 1, 0, 0, 1, 0,0) ">
<g id="smoke" transform="matrix( 1.47674560546875, 0.2665252685546875, -0.2665252685546875, 1.47674560546875, 70.7,37.2) ">
<g transform="matrix( 1, 0, 0, 1, 0,0) ">
<use xlink:href="#smoke_0_Layer0_0_FILL"/>
</g>
</g>
</g>

<g filter="url(#Filter_3)" transform="matrix( 1, 0, 0, 1, 0,0) ">
<g id="thrusters" transform="matrix( 1.47674560546875, 0.2665252685546875, -0.2665252685546875, 1.47674560546875, 81.5,27.75) ">
<g transform="matrix( 1, 0, 0, 1, 0,0) ">
<use xlink:href="#thrusters_0_Layer0_0_FILL"/>
</g>
</g>
</g>
</svg>
