
<svg xmlns="http://www.w3.org/2000/svg" version="1.1" xmlns:xlink="http://www.w3.org/1999/xlink" preserveAspectRatio="none" x="0px" y="0px" width="300px" height="50px" viewBox="0 0 300 50">
<defs>
<filter id="Filter_1" x="-20%" y="-20%" width="140%" height="140%" color-interpolation-filters="sRGB">
<feColorMatrix in="SourceGraphic" type="matrix" values="0.67 0 0 0 0.32941176470588235 0 0.67 0 0 0.32941176470588235 0 0 0.67 0 0.32941176470588235 0 0 0 1 0" result="result1"/>
</filter>

<filter id="Filter_2" x="-20%" y="-20%" width="140%" height="140%" color-interpolation-filters="sRGB">
<feColorMatrix in="SourceGraphic" type="matrix" values="0.76 0 0 0 0 0 0.76 0 0 0 0 0 0.76 0 0 0 0 0 1 0" result="result1"/>
</filter>

<filter id="Filter_3" x="-20%" y="-20%" width="140%" height="140%" color-interpolation-filters="sRGB">
<feColorMatrix in="SourceGraphic" type="matrix" values="0.85 0 0 0 0 0 0.85 0 0 0 0 0 0.85 0 0 0 0 0 1 0" result="result1"/>
</filter>

<filter id="Filter_4" x="-20%" y="-20%" width="140%" height="140%" color-interpolation-filters="sRGB">
<feColorMatrix in="SourceGraphic" type="matrix" values="0.86 0 0 0 0 0 0.86 0 0 0 0 0 0.86 0 0 0 0 0 1 0" result="result1"/>
</filter>

<filter id="Filter_5" x="-20%" y="-20%" width="140%" height="140%" color-interpolation-filters="sRGB">
<feColorMatrix in="SourceGraphic" type="matrix" values="0.9 0 0 0 0 0 0.9 0 0 0 0 0 0.9 0 0 0 0 0 1 0" result="result1"/>
</filter>

<filter id="Filter_6" x="-20%" y="-20%" width="140%" height="140%" color-interpolation-filters="sRGB">
<feColorMatrix in="SourceGraphic" type="matrix" values="0.94 0 0 0 0 0 0.94 0 0 0 0 0 0.94 0 0 0 0 0 1 0" result="result1"/>
</filter>

<filter id="Filter_7" x="-20%" y="-20%" width="140%" height="140%" color-interpolation-filters="sRGB">
<feColorMatrix in="SourceGraphic" type="matrix" values="0.97 0 0 0 0 0 0.97 0 0 0 0 0 0.97 0 0 0 0 0 1 0" result="result1"/>
</filter>

<g id="hills_0_Layer0_0_FILL">
<path fill="#D5BDB0" stroke="none" d="
M 275.8 12
Q 276.5458984375 11.921484375 277.2 11.85 274.14765625 11.4294921875 271.05 9.75 266.9 7.5 257.5 7.5 250.75 7.5 241.65 9 232.6 10.5 232.25 10.5 231.65 10.5 228.65 10 225.65 9.5 225 9.5 224.4 9.5 219.75 11.25 215.15 13 214.5 13 213.8 13 212.2 12.75 210.65 12.5 210.5 12.5
L 210.5 13.3
Q 209.75 13.05 208.85 12.95 206.65 13 206.15 13 201.4 13 198.1 11.25 194.8 9.5 191.15 9.5 190.55 9.5 190.55 10 190.55 10.5 189.9 10.5 187.15 10.5 181.65 8.5 176.15 6.5 173.9 6.5 172.35 6.5 170.4 7 168.45 7.5 167.15 7.5 166.7 7 166.05 6.5 164.75 5.5 162.9 5.5 161.3 5.5 160 4.75 159.3 4.35 158.5 4.15 157.85 4 157.15 4 154.45 4 145 3.25 136.1 2.5 136 2.5 135.4 2.5 132.4 3 129.4 3.5 128.75 3.5 128.15 3.5 123.05 2.5 117.9 1.5 116.75 1.5 116.15 1.5 115.75 2 115.4 2.5 114.75 2.5 114.55 2.5 107.85 1.25 101.15 0 99.25 0 98.75 0 92 1 89.5 0.8 87.4 0.6 83.3 0.25 81.5 0.5 80.6 0.6 77.55 2.85 74.65 5 72.25 5 71.65 5 71.9 4.5 72.15 4 71.5 4 70.9 4 69.65 4.5 68.4 5 67.75 5 67.15 5 66.5 4.65 65.15 3.95 64 2 61 3 58.75 3 58.15 3 55.4 2.5 52.65 2 52 2 51.3 2 48.75 2.75 46.15 3.5 45.5 3.5 44.95 3.5 44.4 3 43.2 2 42.5 1.5 42.1 6.05 38.05 7.1 35.75 7.55 34.6 7.85 32.6 8.35 31.5 9.5 31.05 8.95 30.8 8.6 30.3 8 29.75 8 28.15 8.65 26.35 9.25 22.8 10.5 21 10.5 16.25 10.5 14.5 12.5 13.45 13.65 10.05 14.5
L 27.05 14.5 27.05 14.45
Q 30.05 14 32.75 13.3 41.1 11.15 47.5 10.5 50.15 10.2 67.65 8.6 85.35 7 86 7 104.9 7 147.2 11 189.5 15 190.75 15 196.25 15 210.05 13.75 216.95 13.15 223.75 12.5 225 12.5 235.9 13.5 241.45 13.5 247.95 11.75 254.45 10 255.15 10 255.3 10 260.7 11.25 264.4 12 267.2 12.3 269 12.5 270.4 12.5 271.05 12.5 275.8 12
M 286.05 12.35
Q 285.3248046875 11.3248046875 285 11 284.3748046875 11.3125 282.6 11.6 284.0421875 11.830859375 286.05 12.35
M 12.25 33.5
L 12.3 33.5
Q 12.46875 33.4953125 12.65 33.45 11.05 33.35 10.6 33.35
L 10.6 33.4 12.25 33.5
M 41.8 33.5
L 41.75 33.4
Q 41.05 33.45 40.6 33.5
L 41.8 33.5
M 82.25 33
Q 81.65 32.95 81.35 32.85
L 77.75 32.85 77.5 32.95 74.8 32.95
Q 74.65 32.9 74.15 32.85
L 73.5 32.9
Q 76.25 33.2 81.3 33.5
L 82.1 33.5
Q 82.3 33.45 82.35 33.25
L 82.25 33
M 23.8 31.6
Q 24.1 31.6 24.5 31.65 25.2 31.2 26.9 31.25
L 27 31
Q 26.9 30.8 26.75 30.75 24.4 30.9 23.8 31.55
L 23.8 31.6
M 27.25 29.2
Q 27.25 29.75 27.65 30.2 28 30.6 28 30.9 28 31.2 27.8 31.45 26.8 31.55 26.6 31.6 26.4 31.65 26.35 31.8 27.05 31.85 27.9 31.95 28.15 31.85 28.3 31.7 28.5 31.5 28.5 30.8 28.5 30.2 28.2 29.85 27.75 29.4 27.5 28.6 27.25 28.75 27.25 29.2
M 28 25.6
L 27.9 25.4
Q 26.65 25.3 26.15 25.45 25.8 25.55 25.5 25.9 25.5 26.2 25.6 26.3
L 25.8 26.35
Q 27.8 25.75 28 25.6
M 33.25 25.8
L 35.05 25.85
Q 35.2 26.1 35.8 26.1 36 26.1 36.35 25.85
L 36.25 25.6
Q 32.4 24.7 28.7 26.1 27.25 26.65 26.95 26.85 26.35 27.3 26.35 28.4 26.35 28.45 26.35 29.3 26.45 30.1 27 30.1 27.25 30.1 27.25 29.95 26.85 28.9 26.85 28.5 26.85 27.8 26.95 27.6 27.2 26.85 28.1 26.85 28.25 26.85 29.7 26.35 31.45 25.8 33.25 25.8
M 38.25 33
Q 37.7 33.05 37.5 33.1 37.9 33.1 38.35 33.2
L 38.25 33
M 18.5 31
Q 18.5 31.25 18.75 31.35 19.1 31.2 19.45 31 19.75 30.9 20.65 30.85
L 20.75 30.6
Q 20.65 30.4 20.5 30.35 19.05 30.55 18.8 30.6 18.5 30.65 18.5 31
M 11.1 26.85
Q 11 26.65 10.85 26.6
L 9.85 26.6
Q 9.6 26.7 9.6 26.95
L 9.85 27.1 11 27.1 11.1 26.85
M 16.85 30.35
L 17.1 30.5 18.4 30.5 18.5 30.25
Q 18.4 30.05 18.25 30
L 17.1 30
Q 16.85 30.1 16.85 30.35
M 16.4 27.1
L 16.5 26.85
Q 16.4 26.65 16.25 26.6 15.1 26.5 14.85 26.75 14.7 26.9 14.75 27.1
L 15 27.25 16.4 27.1
M 19.5 27.35
Q 19.6 27.35 19.8 27.5 19.95 27.6 20.7 27.6 20.95 27.6 22.9 27.35
L 23 27.1
Q 22.9 26.9 22.75 26.85 21.2 27.05 19.5 27.05
L 19.5 27.35
M 62.85 33.4
Q 63.3 33.4 63.9 33.35
L 62.75 33.35
Q 62.8 33.4 62.85 33.4
M 60.75 33.15
L 62.15 33.1
Q 62.1 33 62.05 32.9 61.9 32.9 61.9 32.95 60.55 33 59.8 33.05 60.4 33.15 60.75 33.15
M 80.65 31.85
Q 80.1 31.8 79.75 31.75 79.4 31.75 79.25 31.75 79 31.75 79 32 79 32.25 79.1 32.25
L 80.25 32.35
Q 80.45 32.35 80.75 32.1
L 80.65 31.85
M 59.55 32.6
Q 59 32.65 58.75 32.75
L 59.35 32.75
Q 59.75 32.7 59.55 32.6
M 54.75 32.1
Q 53.85 31.9 52.05 32.1 50.05 32.35 49.6 32.35 49.55 32.45 49.5 32.55 49.15 32.5 49 32.65
L 49.05 32.8
Q 49.35 32.8 49.6 32.85
L 49.65 32.8
Q 49.7 32.85 49.75 32.85
L 51.5 32.85 52.1 32.55
Q 52.45 32.55 52.8 32.55 52.95 32.3 53 32.25 53.95 32.2 54.75 32.1
M 68.85 22.1
L 67.5 22.1
Q 67.25 22.2 67.25 22.45
L 67.5 22.6 69 22.6 69.1 22.35
Q 69 22.15 68.85 22.1
M 64.6 23.25
Q 64.25 23.3 64.25 23.7
L 64.5 23.85
Q 67.1 23.7 67.1 23.35 67 23.15 67 23.1 66.55 23.2 64.6 23.25
M 61.5 23.45
L 61.75 23.6 64.1 23.35 64.5 23 64.4 22.8 61.85 23
Q 61.5 23.05 61.5 23.45
M 62.1 24.65
Q 62.1 24.25 61.8 24.15 61.3 23.95 59.75 24 59.5 24.1 59.5 24.35
L 59.75 24.5
Q 61 24.45 61.35 24.7 61.75 25 61.8 25
L 62.05 24.95 62.1 24.65
M 107.35 32.85
Q 107.5 32.7 107.5 32.6 107.5 32.45 107.25 32.35
L 107.05 32.45 103.85 32.5
Q 105.55 32.65 107.35 32.85
M 105.6 31.65
Q 105.7 32.1 106 32.25
L 106.75 32.25
Q 107.5 31.85 108 31.8 108.25 31.8 108.25 31.75 108.15 31.55 108.15 31.5
L 106.4 31.7
Q 105.7 31.6 105.6 31.65
M 116.5 31.75
Q 116.75 31.6 117.5 31.5 118 31.4 118 31.1 118 30.95 117.75 30.85 117.25 30.95 116.95 31.05 116.4 31.2 116.25 31.6
L 116.5 31.75
M 120.75 32.75
Q 120.65 32.55 120.5 32.5 118.1 32.45 117.85 32.6 117.9 32.8 117.85 32.95
L 118.1 33.1
Q 120.5 33 120.65 33
L 120.75 32.75
M 111.9 31.7
Q 112.05 32 112.4 32 114.1 31.65 114.1 31.35 114 31.15 114 31.1 113.7 31.05 113.05 31.25 112.45 31.45 112.4 31.45 111.95 31.35 111.85 31.4
L 111.9 31.7
M 117.4 29.65
Q 117.35 29.7 117.6 30 118.1 29.95 118.1 29.45 118.1 29.05 117.6 28.9 117.55 28.9 117.5 28.9 116.4 28.8 115.35 28.75 115.35 28.8 115.4 28.95 115.5 29.2 115.75 29.35
L 117.1 29.35
Q 117.15 29.4 117.3 29.4 117.45 29.4 117.45 29.55 117.45 29.65 117.4 29.65
M 81.35 31.85
Q 81.25 32 81.25 32.1 81.25 32.25 81.5 32.35
L 81.75 32.35 81.75 31.85 81.35 31.85
M 85.75 32.7
L 84.6 32.6
Q 84.35 32.75 84.25 32.95
L 84.5 33.1
Q 84.65 33.05 85.35 32.85 85.55 32.8 85.75 32.7
M 96.85 32.75
Q 96.5 32.8 96.5 33.2
L 96.75 33.35 96.9 33.3 99.75 33.25
Q 100.15 33.15 100.5 33.1 98.35 32.9 96.85 32.75
M 100.85 26
Q 100.45 26.3 100.3 26.4 100.1 26.6 100.1 26.95 100.1 27.85 101.25 27.85 101.35 27.85 101.5 27.8 101.5 27.75 101.5 27.7 101.5 27.5 101.65 27.35 100.6 27.3 100.6 26.95 100.6 26.75 100.85 26.6 101.2 26.4 101.8 26.55
L 101.85 26.3
Q 101.85 26.1 101.6 26
L 100.85 26
M 86.85 24
Q 86.6 24.1 86.6 24.35
L 86.85 24.5
Q 88.7 24.55 88.85 24.6
L 99.4 24.6 99.5 24.35
Q 99.4 24.15 99.25 24.1
L 86.85 24
M 119.5 21
L 117.1 21
Q 116.85 21.1 116.85 21.35
L 117.1 21.5 119.65 21.5 119.75 21.25
Q 119.65 21.05 119.5 21
M 108.5 21.7
Q 107.7 21.6 107.6 21.65 107.7 22.1 108 22.25
L 109 22.25
Q 109.2 22.15 110.65 21.9 111.95 21.6 112.1 21.5
L 112 21.3
Q 109.7 21.7 108.5 21.7
M 110.1 22.6
Q 110.1 22.85 110.2 22.85 112.25 22.65 113.25 22.6
L 113.35 22.35
Q 113.25 22.15 113.1 22.1 110.1 22.1 110.1 22.6
M 101.6 24.25
L 101.25 24.7 101.5 24.85
Q 102.4 24.5 102.85 25 103.1 25.3 103.1 25.75 103.1 26.25 102.45 26.5 101.75 26.75 101.75 26.85 101.75 27.1 101.85 27.1 103.25 26.7 103.5 26.45 103.6 26.35 103.6 25.8 103.6 24 101.6 24.25
M 101.9 23.8
L 102.1 23.6 102 23.4 101.5 23.25 96.85 23.25 96.75 23.3
Q 96.6 23.35 96.6 23.5 96.6 23.75 96.7 23.8 97 23.85 97.1 23.8
L 101.45 23.8
Q 101.8 23.85 101.9 23.8
M 121.95 31.5
Q 122.65 31.35 122.75 31.25 122.65 31.05 122.5 31
L 122.5 31.05
Q 120.85 31.2 120.65 31.25 120.35 31.35 120.35 31.65 120.35 31.9 120.6 32 121.15 31.7 121.95 31.5
M 124.45 26.1
Q 124.6 25.7 124.6 25.4 124.6 25.3 124.6 25.25
L 124 25.25
Q 124.05 25.75 124 25.85 123.95 25.9 123.95 26 124.2 26.05 124.45 26.1
M 127 25.85
L 127.1 25.6
Q 127 25.4 126.85 25.35
L 125.75 25.35
Q 125.5 25.45 125.5 25.7
L 125.75 25.85 127 25.85
M 132.5 19
Q 132.25 19.1 132.25 19.35
L 132.5 19.5 133.75 19.5 133.85 19.25
Q 133.75 19.05 133.6 19
L 132.5 19
M 133.4 18.25
L 133.5 18
Q 133.4 17.8 133.25 17.75
L 132.35 17.75
Q 132.1 17.85 132.1 18.1
L 132.35 18.25 133.4 18.25
M 130.6 20.2
L 130.85 20.35 132.15 20.25 132.25 20
Q 132.15 19.8 132 19.75 130.9 19.65 130.6 20.2
M 130.85 19
Q 130.75 18.8 130.6 18.75
L 128.05 18.7
Q 127.65 18.5 127.5 18.8
L 128 19.25 130.75 19.25 130.85 19
M 125.75 21.1
Q 125.5 21.2 125.5 21.45
L 125.75 21.6 126.75 21.6 126.85 21.35
Q 126.75 21.15 126.6 21.1
L 125.75 21.1 Z"/>

<path fill="#C9A08B" stroke="none" d="
M 300.95 14.5
L 292.75 14.5
Q 291.55 14 290.1 13.55 287.8560546875 12.83125 286.05 12.35 284.0421875 11.830859375 282.6 11.6 281.776171875 11.5 281.15 11.5 280.644140625 11.5 277.2 11.85 276.5458984375 11.921484375 275.8 12 271.05 12.5 270.4 12.5 269 12.5 267.2 12.3 264.4 12 260.7 11.25 255.3 10 255.15 10 254.45 10 247.95 11.75 241.45 13.5 235.9 13.5 225 12.5 223.75 12.5 216.95 13.15 210.05 13.75 196.25 15 190.75 15 189.5 15 147.2 11 104.9 7 86 7 85.35 7 67.65 8.6 50.15 10.2 47.5 10.5 41.1 11.15 32.75 13.3 30.05 14 27.05 14.45
L 27.05 14.5 10.05 14.5 0 14.5 0 38.5 64.35 38.5
Q 65.3 38.65 66.25 38.75 66.9 38.75 67.25 38.5
L 300.95 38.5 300.95 14.5
M 125.5 21.45
Q 125.5 21.2 125.75 21.1
L 126.6 21.1
Q 126.75 21.15 126.85 21.35
L 126.75 21.6 125.75 21.6 125.5 21.45
M 130.6 18.75
Q 130.75 18.8 130.85 19
L 130.75 19.25 128 19.25 127.5 18.8
Q 127.65 18.5 128.05 18.7
L 130.6 18.75
M 130.85 20.35
L 130.6 20.2
Q 130.9 19.65 132 19.75 132.15 19.8 132.25 20
L 132.15 20.25 130.85 20.35
M 133.5 18
L 133.4 18.25 132.35 18.25 132.1 18.1
Q 132.1 17.85 132.35 17.75
L 133.25 17.75
Q 133.4 17.8 133.5 18
M 132.25 19.35
Q 132.25 19.1 132.5 19
L 133.6 19
Q 133.75 19.05 133.85 19.25
L 133.75 19.5 132.5 19.5 132.25 19.35
M 127.1 25.6
L 127 25.85 125.75 25.85 125.5 25.7
Q 125.5 25.45 125.75 25.35
L 126.85 25.35
Q 127 25.4 127.1 25.6
M 124.6 25.4
Q 124.6 25.7 124.45 26.1 124.2 26.05 123.95 26 123.95 25.9 124 25.85 124.05 25.75 124 25.25
L 124.6 25.25
Q 124.6 25.3 124.6 25.4
M 122.75 31.25
Q 122.65 31.35 121.95 31.5 121.15 31.7 120.6 32 120.35 31.9 120.35 31.65 120.35 31.35 120.65 31.25 120.85 31.2 122.5 31.05
L 122.5 31
Q 122.65 31.05 122.75 31.25
M 102.1 23.6
L 101.9 23.8
Q 101.8 23.85 101.45 23.8
L 97.1 23.8
Q 97 23.85 96.7 23.8 96.6 23.75 96.6 23.5 96.6 23.35 96.75 23.3
L 96.85 23.25 101.5 23.25 102 23.4 102.1 23.6
M 101.25 24.7
L 101.6 24.25
Q 103.6 24 103.6 25.8 103.6 26.35 103.5 26.45 103.25 26.7 101.85 27.1 101.75 27.1 101.75 26.85 101.75 26.75 102.45 26.5 103.1 26.25 103.1 25.75 103.1 25.3 102.85 25 102.4 24.5 101.5 24.85
L 101.25 24.7
M 110.2 22.85
Q 110.1 22.85 110.1 22.6 110.1 22.1 113.1 22.1 113.25 22.15 113.35 22.35
L 113.25 22.6
Q 112.25 22.65 110.2 22.85
M 107.6 21.65
Q 107.7 21.6 108.5 21.7 109.7 21.7 112 21.3
L 112.1 21.5
Q 111.95 21.6 110.65 21.9 109.2 22.15 109 22.25
L 108 22.25
Q 107.7 22.1 107.6 21.65
M 117.1 21
L 119.5 21
Q 119.65 21.05 119.75 21.25
L 119.65 21.5 117.1 21.5 116.85 21.35
Q 116.85 21.1 117.1 21
M 86.6 24.35
Q 86.6 24.1 86.85 24
L 99.25 24.1
Q 99.4 24.15 99.5 24.35
L 99.4 24.6 88.85 24.6
Q 88.7 24.55 86.85 24.5
L 86.6 24.35
M 100.3 26.4
Q 100.45 26.3 100.85 26
L 101.6 26
Q 101.85 26.1 101.85 26.3
L 101.8 26.55
Q 101.2 26.4 100.85 26.6 100.6 26.75 100.6 26.95 100.6 27.3 101.65 27.35 101.5 27.5 101.5 27.7 101.5 27.75 101.5 27.8 101.35 27.85 101.25 27.85 100.1 27.85 100.1 26.95 100.1 26.6 100.3 26.4
M 96.5 33.2
Q 96.5 32.8 96.85 32.75 98.35 32.9 100.5 33.1 100.15 33.15 99.75 33.25
L 96.9 33.3 96.75 33.35 96.5 33.2
M 84.6 32.6
L 85.75 32.7
Q 85.55 32.8 85.35 32.85 84.65 33.05 84.5 33.1
L 84.25 32.95
Q 84.35 32.75 84.6 32.6
M 81.25 32.1
Q 81.25 32 81.35 31.85
L 81.75 31.85 81.75 32.35 81.5 32.35
Q 81.25 32.25 81.25 32.1
M 117.6 30
Q 117.35 29.7 117.4 29.65 117.45 29.65 117.45 29.55 117.45 29.4 117.3 29.4 117.15 29.4 117.1 29.35
L 115.75 29.35
Q 115.5 29.2 115.4 28.95 115.35 28.8 115.35 28.75 116.4 28.8 117.5 28.9 117.55 28.9 117.6 28.9 118.1 29.05 118.1 29.45 118.1 29.95 117.6 30
M 112.4 32
Q 112.05 32 111.9 31.7
L 111.85 31.4
Q 111.95 31.35 112.4 31.45 112.45 31.45 113.05 31.25 113.7 31.05 114 31.1 114 31.15 114.1 31.35 114.1 31.65 112.4 32
M 120.5 32.5
Q 120.65 32.55 120.75 32.75
L 120.65 33
Q 120.5 33 118.1 33.1
L 117.85 32.95
Q 117.9 32.8 117.85 32.6 118.1 32.45 120.5 32.5
M 117.5 31.5
Q 116.75 31.6 116.5 31.75
L 116.25 31.6
Q 116.4 31.2 116.95 31.05 117.25 30.95 117.75 30.85 118 30.95 118 31.1 118 31.4 117.5 31.5
M 106 32.25
Q 105.7 32.1 105.6 31.65 105.7 31.6 106.4 31.7
L 108.15 31.5
Q 108.15 31.55 108.25 31.75 108.25 31.8 108 31.8 107.5 31.85 106.75 32.25
L 106 32.25
M 107.5 32.6
Q 107.5 32.7 107.35 32.85 105.55 32.65 103.85 32.5
L 107.05 32.45 107.25 32.35
Q 107.5 32.45 107.5 32.6
M 61.8 24.15
Q 62.1 24.25 62.1 24.65
L 62.05 24.95 61.8 25
Q 61.75 25 61.35 24.7 61 24.45 59.75 24.5
L 59.5 24.35
Q 59.5 24.1 59.75 24 61.3 23.95 61.8 24.15
M 61.75 23.6
L 61.5 23.45
Q 61.5 23.05 61.85 23
L 64.4 22.8 64.5 23 64.1 23.35 61.75 23.6
M 64.25 23.7
Q 64.25 23.3 64.6 23.25 66.55 23.2 67 23.1 67 23.15 67.1 23.35 67.1 23.7 64.5 23.85
L 64.25 23.7
M 67.5 22.1
L 68.85 22.1
Q 69 22.15 69.1 22.35
L 69 22.6 67.5 22.6 67.25 22.45
Q 67.25 22.2 67.5 22.1
M 52.05 32.1
Q 53.85 31.9 54.75 32.1 53.95 32.2 53 32.25 52.95 32.3 52.8 32.55 52.45 32.55 52.1 32.55
L 51.5 32.85 49.75 32.85
Q 49.7 32.85 49.65 32.8
L 49.6 32.85
Q 49.35 32.8 49.05 32.8
L 49 32.65
Q 49.15 32.5 49.5 32.55 49.55 32.45 49.6 32.35 50.05 32.35 52.05 32.1
M 58.75 32.75
Q 59 32.65 59.55 32.6 59.75 32.7 59.35 32.75
L 58.75 32.75
M 79.75 31.75
Q 80.1 31.8 80.65 31.85
L 80.75 32.1
Q 80.45 32.35 80.25 32.35
L 79.1 32.25
Q 79 32.25 79 32 79 31.75 79.25 31.75 79.4 31.75 79.75 31.75
M 62.15 33.1
L 60.75 33.15
Q 60.4 33.15 59.8 33.05 60.55 33 61.9 32.95 61.9 32.9 62.05 32.9 62.1 33 62.15 33.1
M 63.9 33.35
Q 63.3 33.4 62.85 33.4 62.8 33.4 62.75 33.35
L 63.9 33.35
M 19.8 27.5
Q 19.6 27.35 19.5 27.35
L 19.5 27.05
Q 21.2 27.05 22.75 26.85 22.9 26.9 23 27.1
L 22.9 27.35
Q 20.95 27.6 20.7 27.6 19.95 27.6 19.8 27.5
M 16.5 26.85
L 16.4 27.1 15 27.25 14.75 27.1
Q 14.7 26.9 14.85 26.75 15.1 26.5 16.25 26.6 16.4 26.65 16.5 26.85
M 17.1 30.5
L 16.85 30.35
Q 16.85 30.1 17.1 30
L 18.25 30
Q 18.4 30.05 18.5 30.25
L 18.4 30.5 17.1 30.5
M 10.85 26.6
Q 11 26.65 11.1 26.85
L 11 27.1 9.85 27.1 9.6 26.95
Q 9.6 26.7 9.85 26.6
L 10.85 26.6
M 18.75 31.35
Q 18.5 31.25 18.5 31 18.5 30.65 18.8 30.6 19.05 30.55 20.5 30.35 20.65 30.4 20.75 30.6
L 20.65 30.85
Q 19.75 30.9 19.45 31 19.1 31.2 18.75 31.35
M 37.5 33.1
Q 37.7 33.05 38.25 33
L 38.35 33.2
Q 37.9 33.1 37.5 33.1
M 35.05 25.85
L 33.25 25.8
Q 31.45 25.8 29.7 26.35 28.25 26.85 28.1 26.85 27.2 26.85 26.95 27.6 26.85 27.8 26.85 28.5 26.85 28.9 27.25 29.95 27.25 30.1 27 30.1 26.45 30.1 26.35 29.3 26.35 28.45 26.35 28.4 26.35 27.3 26.95 26.85 27.25 26.65 28.7 26.1 32.4 24.7 36.25 25.6
L 36.35 25.85
Q 36 26.1 35.8 26.1 35.2 26.1 35.05 25.85
M 27.9 25.4
L 28 25.6
Q 27.8 25.75 25.8 26.35
L 25.6 26.3
Q 25.5 26.2 25.5 25.9 25.8 25.55 26.15 25.45 26.65 25.3 27.9 25.4
M 27.65 30.2
Q 27.25 29.75 27.25 29.2 27.25 28.75 27.5 28.6 27.75 29.4 28.2 29.85 28.5 30.2 28.5 30.8 28.5 31.5 28.3 31.7 28.15 31.85 27.9 31.95 27.05 31.85 26.35 31.8 26.4 31.65 26.6 31.6 26.8 31.55 27.8 31.45 28 31.2 28 30.9 28 30.6 27.65 30.2
M 24.5 31.65
Q 24.1 31.6 23.8 31.6
L 23.8 31.55
Q 24.4 30.9 26.75 30.75 26.9 30.8 27 31
L 26.9 31.25
Q 25.2 31.2 24.5 31.65
M 81.35 32.85
Q 81.65 32.95 82.25 33
L 82.35 33.25
Q 82.3 33.45 82.1 33.5
L 81.3 33.5
Q 76.25 33.2 73.5 32.9
L 74.15 32.85
Q 74.65 32.9 74.8 32.95
L 77.5 32.95 77.75 32.85 81.35 32.85
M 41.75 33.4
L 41.8 33.5 41.85 33.6 41.85 33.65
Q 41.2 33.55 40.6 33.5 41.05 33.45 41.75 33.4
M 12.3 33.5
L 12.25 33.5 10.6 33.4 10.6 33.35
Q 11.05 33.35 12.65 33.45 12.46875 33.4953125 12.3 33.5 Z"/>
</g>

<g id="rocks_0_Layer0_0_FILL">
<path fill="#5A483F" stroke="none" d="
M 0 5.6
L 5.3 5.6 4.75 5.05 3.65 5.2 3 4.5 1.95 4.9 0.75 4.45 0 5.6
M 12 4.8
L 11.9 4.85 10.9 5.45 10.4 5.1 9.4 6.2 9.7 6.5 13.7 6.6 13.05 5.75 12 4.8
M 16.8 1.75
L 16.05 0.6 14.9 1.1 13.8 0.7 13.15 1.4 12.05 1.25 11.5 1.75 16.8 1.75
M 17.6 4.25
L 16.8 4.9 18.55 4.95 19.8 3.35 19.4 3.2 18 4.35 17.95 4.35 17.7 4.15 17.6 4.25
M 22.4 3.6
L 22 5.05 24 5.1 23.2 4.25 22.4 3.6
M 39.85 6.4
L 38.75 6.55 38.1 5.85 37.05 6.25 35.85 5.8 35.1 6.95 40.4 6.95 39.85 6.4
M 36.55 1.35
L 35.75 2.2 37.75 2.15 37.35 0.7 36.55 1.35
M 41.2 2.05
L 42.95 2 42.15 1.35 42.05 1.25 41.8 1.45 41.75 1.45 40.35 0.3 39.95 0.45 41.2 2.05
M 51.9 3.1
L 51.15 1.95 50 2.45 48.9 2.05 48.25 2.75 47.15 2.6 46.6 3.1 51.9 3.1
M 62.55 2.45
L 61.9 1.6 60.85 0.65 60.75 0.7 59.75 1.3 59.25 0.95 58.25 2.05 58.55 2.35 62.55 2.45
M 87.3 3.35
L 86.25 3.75 85.05 3.3 84.3 4.45 89.6 4.45 89.05 3.9 87.95 4.05 87.3 3.35
M 98 5.45
L 97.35 4.6 96.3 3.65 96.2 3.7 95.2 4.3 94.7 3.95 93.7 5.05 94 5.35 98 5.45
M 102.3 3.2
L 102.25 3.2 102 3 101.9 3.1 101.1 3.75 102.85 3.8 104.1 2.2 103.7 2.05 102.3 3.2
M 108.3 3.95
L 107.5 3.1 106.7 2.45 106.3 3.9 108.3 3.95
M 108.7 5.4
L 108 6.1 106.9 5.95 106.35 6.45 111.65 6.45 110.9 5.3 109.75 5.8 108.7 5.4
M 115.25 2.85
L 114.85 2.7 114.25 2.45 113.7 3.15 113.15 3.85 114.5 3.85 115.25 2.85
M 119.6 2.4
L 119 2.65 118.8 2.5 119.3 3.85 121.75 3.85 120.85 2.8 120.8 2.75 120.15 2.9 119.65 2.4 119.6 2.4
M 142.7 1.2
L 141.6 0.8 140.95 1.5 139.85 1.35 139.3 1.85 144.6 1.85 143.85 0.7 142.7 1.2 Z"/>

<path fill="#766155" stroke="none" d="
M 13.45 5.45
L 13.05 5.75 13.7 6.6 14.85 6.65 13.45 5.45
M 23.2 4.25
L 24 5.1 24.65 5.1 24.25 3.65 23.2 4.25
M 22 5.05
L 22.4 3.6 21.55 2.9 20.2 3.55 19.8 3.4 19.8 3.35 18.55 4.95 22 5.05
M 35.75 2.2
L 36.55 1.35 35.5 0.75 35.1 2.2 35.75 2.2
M 39.55 0.65
L 38.2 0 37.35 0.7 37.75 2.15 41.2 2.05 39.95 0.45 39.95 0.5 39.55 0.65
M 61.9 1.6
L 62.55 2.45 63.7 2.5 62.3 1.3 61.9 1.6
M 97.75 4.3
L 97.35 4.6 98 5.45 99.15 5.5 97.75 4.3
M 104.5 2.4
L 104.1 2.25 104.1 2.2 102.85 3.8 106.3 3.9 106.7 2.45 105.85 1.75 104.5 2.4
M 107.5 3.1
L 108.3 3.95 108.95 3.95 108.55 2.5 107.5 3.1
M 113.7 3.15
L 113 3.3 112.55 3.85 113.15 3.85 113.7 3.15
M 118.8 2.5
L 117.6 1.6 116.6 2.1 115.75 1.9 114.85 2.7 115.25 2.85 114.5 3.85 119.3 3.85 118.8 2.5 Z"/>
</g>

<g id="settlement_0_Layer0_0_FILL">
<path fill="#9A7967" stroke="none" d="
M -0.6 25
L -0.7 24.8 -1.35 24.75 -2.1 24.8 -2.1 25.1
Q -1.95 25.4 -1.35 25.4 -1.15 25.4 -0.6 25
M -5.1 24.5
L -6.7 24.5
Q -6.95 24.6 -6.95 24.85
L -6.7 25 -4.95 25 -4.85 24.75
Q -4.95 24.55 -5.1 24.5
M -1.85 17
Q -2.1 17.1 -2.1 17.35
L -1.85 17.5 -0.7 17.5 -0.6 17.25
Q -0.7 17.05 -0.85 17
L -1.85 17
M 14.65 22.25
Q 14.65 22.5 14.75 22.5 16.15 22.55 16.6 22.1 16.8 21.9 16.8 21.2 16.8 20.6 16.5 20.25 16.05 19.8 15.8 19 15.55 19.15 15.55 19.6 15.55 20.15 15.95 20.6 16.3 21 16.3 21.3 16.3 21.6 16.1 21.85 15.1 21.95 14.9 22 14.65 22.05 14.65 22.25
M 14.05 23.75
Q 14.05 23.6 13.8 23.5 13.3 23.7 13.3 24.15 13.3 24.75 14 25.1 14.85 25.5 15.8 25.4 16.85 25.35 17.8 25.65
L 19.7 25.65 19.8 25.4
Q 19.7 25.2 19.55 25.15 13.8 24.9 13.8 24.2 13.8 24.1 13.95 24 14.05 23.9 14.05 23.75
M 12.5 24.1
Q 12.3 23.85 12.3 23.2 12.3 22.45 12.55 22.2 13.15 21.6 15.2 21.65
L 15.3 21.4
Q 15.2 21.2 15.05 21.15 12.7 21.3 12.1 21.95 11.8 22.2 11.8 23.2 11.8 23.85 12.15 24.5 12.65 25.5 13.6 25.5 13.8 25.5 13.9 25.25 12.6 24.25 12.5 24.1
M 16.3 16
L 16.2 15.8
Q 14.95 15.7 14.45 15.85 14.1 15.95 13.8 16.3 13.8 16.6 13.9 16.7
L 14.1 16.75
Q 16.1 16.15 16.3 16
M 7.65 24.7
Q 7.55 24.25 7.15 24.15 4.55 24 3.7 24.45 2.8 24.95 1 24.9 0.9 25.05 0.9 25.15 0.9 25.3 1.15 25.4
L 2.9 25.4
Q 3.1 25.35 3.7 25 4.5 24.7 5.9 24.7 7.1 24.7 7.25 24.8 7.35 24.9 7.4 24.9 7.55 24.9 7.6 24.8 7.65 24.75 7.65 24.7
M 5.4 20.9
L 6.7 20.9 6.8 20.65
Q 6.7 20.45 6.55 20.4
L 5.4 20.4
Q 5.15 20.5 5.15 20.75
L 5.4 20.9
M 7.75 21.4
Q 8.05 21.3 8.95 21.25
L 9.05 21
Q 8.95 20.8 8.8 20.75 7.35 20.95 7.1 21 6.8 21.05 6.8 21.4 6.8 21.65 7.05 21.75 7.4 21.6 7.75 21.4
M 1.65 24.15
L 1.55 23.9
Q -0.55 23.75 -1.1 23.75 -1.35 23.85 -1.35 24.1
L -1.1 24.25 0.5 24.25
Q 0.65 24.4 1.1 24.4 1.35 24.4 1.65 24.15
M 3.3 17.65
L 4.7 17.5 4.8 17.25
Q 4.7 17.05 4.55 17 3.4 16.9 3.15 17.15 3 17.3 3.05 17.5
L 3.3 17.65
M 7.8 17.45
L 7.8 17.75
Q 7.9 17.75 8.1 17.9 8.25 18 9 18 9.25 18 11.2 17.75
L 11.3 17.5
Q 11.2 17.3 11.05 17.25 9.5 17.45 7.8 17.45
M 36.9 23.95
Q 36.55 23.95 35.95 24.25 35.35 24.55 34 24.5 33.9 24.65 33.9 24.75 33.9 24.9 34.15 25
L 35.4 25 36.4 24.6
Q 37.45 24.1 38.05 24.6 38.55 25.05 39.4 24.25
L 39.05 23.9 36.9 23.95
M 28.4 24.4
L 29.65 24.4 30.15 24 30.05 23.8
Q 28.4 23.9 28.25 23.9 28.15 24.05 28.15 24.15 28.15 24.3 28.4 24.4
M 26.55 23.9
L 26.65 23.65 26.55 23.4
Q 25.8 23.45 25.65 23.5 25.4 23.55 25.4 23.75 25.4 23.9 25.65 24
L 26.55 23.9
M 24.65 16.25
L 24.55 16
Q 20.7 15.1 17 16.5 15.55 17.05 15.25 17.25 14.65 17.7 14.65 18.8 14.65 18.85 14.65 19.7 14.75 20.5 15.3 20.5 15.55 20.5 15.55 20.35 15.15 19.3 15.15 18.9 15.15 18.2 15.25 18 15.5 17.25 16.4 17.25 16.55 17.25 18 16.75 19.75 16.2 21.55 16.2
L 23.35 16.25
Q 23.5 16.5 24.1 16.5 24.3 16.5 24.65 16.25
M 52.55 14.1
L 52.8 14.25
Q 55.4 14.1 55.4 13.75 55.3 13.55 55.3 13.5 54.85 13.6 52.9 13.65 52.55 13.7 52.55 14.1
M 57.15 12.5
L 55.8 12.5
Q 55.55 12.6 55.55 12.85
L 55.8 13 57.3 13 57.4 12.75
Q 57.3 12.55 57.15 12.5
M 50.2 23.35
Q 47.75 23.4 47.35 23.5 47.05 23.55 47.05 23.9 47.05 24.15 47.3 24.25
L 47.5 24.15
Q 47.6 23.95 49.4 23.9 50.35 23.85 52.2 23.75
L 52.3 23.5
Q 52.2 23.3 52.05 23.25 50.25 23.25 50.2 23.35
M 43.05 22.95
Q 43.15 22.95 43.3 22.75
L 43.2 22.55
Q 42.35 22.3 40.35 22.5 38.35 22.75 37.9 22.75 37.85 22.85 37.8 22.95 37.45 22.9 37.3 23.05
L 37.4 23.4
Q 37.65 23.35 37.95 23.2 38 23.25 38.05 23.25
L 39.8 23.25 40.4 22.95
Q 41.75 22.9 43.05 22.95
M 45.1 22.55
L 45.05 22.85
Q 45.05 23.05 45.3 23.15
L 47.65 23.15
Q 48.05 23.1 47.85 23 48.1 22.9 50.7 22.9
L 50.8 22.65
Q 50.7 22.45 50.55 22.4 49.1 22.45 47.75 22.5 46.7 22.6 46.55 22.6 45.15 22.5 45.1 22.55
M 50.15 13.4
Q 49.8 13.45 49.8 13.85
L 50.05 14 52.4 13.75 52.8 13.4 52.7 13.2 50.15 13.4
M 50.1 15.4
L 50.35 15.35 50.4 15.05
Q 50.4 14.65 50.1 14.55 49.6 14.35 48.05 14.4 47.8 14.5 47.8 14.75
L 48.05 14.9
Q 49.3 14.85 49.65 15.1 50.05 15.4 50.1 15.4
M 79.65 23.65
Q 77.8 23.5 77.65 23.5
L 77.6 23.6 77.55 23.75 77.9 24.15 79.8 24.15 79.9 23.9
Q 79.8 23.7 79.65 23.65
M 74.45 22.55
Q 72.8 22.75 72.55 23.35
L 72.8 23.5
Q 72.95 23.45 73.65 23.25 74.35 23 74.55 22.75
L 74.45 22.55
M 69.65 22.25
Q 69.55 22.4 69.55 22.5 69.55 22.65 69.8 22.75
L 71.9 22.75
Q 72.1 22.65 73.45 22.65
L 73.55 22.4
Q 73.45 22.2 73.3 22.15
L 69.65 22.25
M 67.55 22.15
Q 67.3 22.15 67.3 22.4 67.3 22.65 67.4 22.65
L 68.55 22.75
Q 68.75 22.75 69.05 22.5
L 68.95 22.25
Q 67.85 22.1 67.55 22.15
M 62.75 23.75
L 63.05 23.9 70.4 23.9
Q 70.6 23.85 70.65 23.65
L 70.55 23.4
Q 69.95 23.35 69.65 23.25
L 66.05 23.25 65.8 23.35 63.1 23.35
Q 62.9 23.25 61.65 23.15 60.3 23 59.4 23
L 59.35 23.1 59.3 23.25 59.65 23.65 62.75 23.75
M 94.7 22.1
Q 94 22 93.9 22.05 94 22.5 94.3 22.65
L 95.05 22.65
Q 95.8 22.25 96.3 22.2 96.55 22.2 96.55 22.15 96.45 21.95 96.45 21.9
L 94.7 22.1
M 81.15 22.9
L 82.7 22.9 82.8 22.65
Q 82.7 22.45 82.55 22.4
L 81.15 22.4
Q 80.9 22.5 80.9 22.75
L 81.15 22.9
M 85.05 23.75
L 85.2 23.7 88.05 23.65
Q 88.65 23.45 89.25 23.45
L 95.4 23.4
Q 95.8 23.2 95.8 23 95.8 22.85 95.55 22.75
L 95.35 22.85 89.4 22.9 88.1 23.1 85.15 23.15
Q 84.8 23.2 84.8 23.6
L 85.05 23.75
M 90.15 16.7
Q 90.15 16.5 89.9 16.4
L 89.15 16.4
Q 88.75 16.7 88.6 16.8 88.4 17 88.4 17.35 88.4 18.25 89.55 18.25 89.75 18.25 90.05 18
L 89.95 17.75
Q 88.9 17.7 88.9 17.35 88.9 17.15 89.15 17 89.5 16.8 90.1 16.95
L 90.15 16.7
M 87.7 15
L 87.8 14.75
Q 87.7 14.55 87.55 14.5
L 75.15 14.4
Q 74.9 14.5 74.9 14.75
L 75.15 14.9
Q 77 14.95 77.15 15
L 87.7 15
M 89.75 14.2
Q 90.1 14.25 90.2 14.2
L 90.4 14 90.3 13.8 89.8 13.65 85.15 13.65 85.05 13.7
Q 84.9 13.75 84.9 13.9 84.9 14.15 85 14.2 85.3 14.25 85.4 14.2
L 89.75 14.2
M 89.55 15.1
L 89.8 15.25
Q 90.7 14.9 91.15 15.4 91.4 15.7 91.4 16.15 91.4 16.65 90.75 16.9 90.05 17.15 90.05 17.25 90.05 17.5 90.15 17.5 91.55 17.1 91.8 16.85 91.9 16.75 91.9 16.2 91.9 14.4 89.9 14.65
L 89.55 15.1
M 100.4 11.9
L 100.3 11.7
Q 98 12.1 96.8 12.1 96 12 95.9 12.05 96 12.5 96.3 12.65
L 97.3 12.65
Q 97.5 12.55 98.95 12.3 100.25 12 100.4 11.9
M 115.3 16.25
L 115.4 16
Q 115.3 15.8 115.15 15.75
L 114.05 15.75
Q 113.8 15.85 113.8 16.1
L 114.05 16.25 115.3 16.25
M 112.3 15.65
Q 112.35 16.15 112.3 16.25 112.15 16.6 111.6 17.05 111.15 17.4 111.15 17.5 111.15 17.65 111.4 17.75 112.1 17.5 112.55 16.8 112.9 16.25 112.9 15.8 112.9 15.2 112.55 15 112.25 15.25 112.3 15.65
M 111.05 21.65
Q 110.95 21.45 110.8 21.4
L 110.8 21.45
Q 109.15 21.6 108.95 21.65 108.65 21.75 108.65 22.05 108.65 22.3 108.9 22.4 109.45 22.1 110.25 21.9 110.95 21.75 111.05 21.65
M 106.15 23
Q 106.2 23.2 106.15 23.35
L 106.4 23.5
Q 108.8 23.4 108.95 23.4
L 109.05 23.15
Q 108.95 22.95 108.8 22.9 106.4 22.85 106.15 23
M 102.3 21.5
Q 102 21.45 101.35 21.65 100.75 21.85 100.7 21.85 100.25 21.75 100.15 21.8
L 100.2 22.1
Q 100.35 22.4 100.7 22.4 102.4 22.05 102.4 21.75 102.3 21.55 102.3 21.5
M 106.05 21.25
Q 105.55 21.35 105.25 21.45 104.7 21.6 104.55 22
L 104.8 22.15
Q 105.05 22 105.8 21.9 106.3 21.8 106.3 21.5 106.3 21.35 106.05 21.25
M 105.6 19.8
Q 105.75 19.8 105.75 19.95 105.75 20.05 105.7 20.05 105.65 20.1 105.9 20.4 106.4 20.35 106.4 19.85 106.4 19.45 105.9 19.3 105.55 19.2 103.65 19.1 103.6 19.15 103.7 19.35 103.8 19.6 104.05 19.75
L 105.4 19.75
Q 105.45 19.8 105.6 19.8
M 101.65 12.75
Q 101.55 12.55 101.4 12.5 98.4 12.5 98.4 13 98.4 13.25 98.5 13.25 100.55 13.05 101.55 13
L 101.65 12.75
M 105.4 11.4
Q 105.15 11.5 105.15 11.75
L 105.4 11.9 107.95 11.9 108.05 11.65
Q 107.95 11.45 107.8 11.4
L 105.4 11.4
M 120.55 10.4
Q 120.45 10.2 120.3 10.15 119.2 10.05 118.9 10.6
L 119.15 10.75 120.45 10.65 120.55 10.4
M 115.8 9.2
L 116.3 9.65 119.05 9.65 119.15 9.4
Q 119.05 9.2 118.9 9.15
L 116.35 9.1
Q 115.95 8.9 115.8 9.2
M 114.05 11.5
Q 113.8 11.6 113.8 11.85
L 114.05 12 115.05 12 115.15 11.75
Q 115.05 11.55 114.9 11.5
L 114.05 11.5
M 121.8 8.4
Q 121.7 8.2 121.55 8.15
L 120.65 8.15
Q 120.4 8.25 120.4 8.5
L 120.65 8.65 121.7 8.65 121.8 8.4
M 122.05 9.9
L 122.15 9.65
Q 122.05 9.45 121.9 9.4
L 120.8 9.4
Q 120.55 9.5 120.55 9.75
L 120.8 9.9 122.05 9.9 Z"/>
</g>

<g id="pods_0_Layer2_0_FILL">
<path fill="#444444" fill-opacity="0.2901960784313726" stroke="none" d="
M 116.3 8
Q 117.4 7.75 120.45 7.5 122.95 7.2 122.95 6.3 122.95 4.75 118 4.75 109.95 4.75 99.85 5.65 91.7462890625 6.3353515625 83.35 6.45 81.3333984375 6.5 79.3 6.5 74.542578125 6.5 67.75 6.6 63.5275390625 6.864453125 57.7 7.1 54.14765625 7.2283203125 48.8 7.25 47.9005859375 7.2927734375 46.95 7.3 41.05 7.4 38.7 7.5 37.208203125 7.54140625 32.6 7.9 31.678515625 8.005859375 30.6 8.1 24.35 8.65 20.95 8.75 4.7634765625 9.4578125 0.05 10.4 -0.1353515625 10.5412109375 -0.3 10.65 -0.288671875 10.688671875 -0.3 10.7 -0.7 11.2 -0.7 11.9 -0.7 12.6 -0.25 12.8 0.25 13.05 2.3 13.35
L 2.05 13.7
Q 1.9 13.85 1.8 14.25 2.6 14.6 3.1 14.6 4.1 14.6 5.6 13.95 7.1 13.25 10.3 13.25 11.1 13.25 12.7 13.15 14.3 13 15.2 13
L 15.05 12.05
Q 15.05 11.75 15.55 11.6 15.85 11.5 16.1 11.5 16.65 11.5 17.4 12.5 18.15 13.5 18.8 13.5 19.35 13.5 21.45 12.95 23.6 12.35 24.25 12.35
L 26.9 12.6
Q 28.5 12.6 29.55 12.25 30.65 11.85 30.8 11.85 31.25 11.85 31.65 12.25 32.05 12.6 32.8 12.6
L 32.8 10.6 33.65 10.95
Q 34.65 11.3 35.55 11.5 36.25 11.65 37.7 11.35 39.25 11.25 41.25 11.3 42.040625 11.31796875 42.55 11.35
L 47.55 11.35
Q 48 11.35 48.85 11.7 49.7 12 50.1 12 50.7 12 50.75 11.7 50.8 11.2 51.2 11 51.6 10.75 52.65 10.65 53.25 10.6 54.95 10.5 55.35 10.45 56.4 9.85 56.501171875 9.85 57.1 9.95 57.7380859375 10.0775390625 58.85 10.3 61.65 10.75 64.3 10.75 67.45 10.7 68.7 10.75 70.95 10.85 72.5 10.8 75.4 10.75 76.55 10.75
L 76.55 11.25
Q 77.75 11.25 83.35 10.35 84.6 10.35 87 10.95 89.4 11.5 90.3 11.5
L 94.95 11.25 96.95 10.75
Q 96.85 10.5 96.55 10.35 96.2 10.15 96.2 10.1 99.15 9.6 101.1 9.6 101.95 9.6 102.5 9.35 103.05 9.1 103.85 9.1 104.05 9.1 104.95 9.3 105.9 9.5 106.35 9.5 107.2 9.5 110.65 9 114.2 8.45 116.3 8 Z"/>
</g>

<g id="pod_end_0_Layer0_0_FILL">
<path fill="#EBEBE1" stroke="none" d="
M 82.2 17.3
Q 81.95 16.9 81.75 16.5 80.05 13.45 79.55 12.05 79.2 11.35 79.2 11.3 79.2 11.05 79.3 10.95 79.35 11 79.45 11.05 79.45 11 79.5 10.95 79.4 10.85 79.3 10.75
L 78.95 10.75
Q 78.7 10.65 78.7 10.5 78.7 10.4 78.8 10.25 79 10.25 79.2 10.2 79.25 10.15 79.3 10.05 78.9865234375 9.826171875 78.65 9.3 78.6615234375 9.3033203125 78.65 9.25 78.623828125 9.2408203125 78.6 9.2 78.4 8.75 78.3 8.5 78.1 8.45 77.95 8.4
L 77.85 8.05
Q 77.95 8 78 8 77.7 7.15 77.6 6.8 77.35 6.15 76.2 5.95 76.1 5.85 76.1 5.65 76.3 5.6 76.6 5.6 76.6 5.55 76.55 5.5 76.45 5.55 76.4 5.55 75.15 5.85 73.9 6.1 73.6 6.15 73.3 6.2 71.35 6.6 69.4 6.95 71.35 11.15 73.7 15.9 74.4 17.25 75.1 18.7 75.2 18.95 75.3 19.25 75.75 19.15 75.9 19.15 75.9 19.2 76 19.4 76 19.5 75.5 19.65 75.7 20.15 75.9 20.7 76 20.7 76.1 20.65 76.35 20.75 76.35 20.95 76.35 21.15 76.1 21.25 76.2 21.65 76.35 22.1 76.7 22.05 76.75 22.05 76.85 22.25 76.85 22.35
L 76.5 22.45
Q 76.7 23.2 76.95 24
L 77 24
Q 77 24.05 77.1 24.25 77.1 24.3 77.05 24.35 77.2 25.05 77.4 25.75 77.6 25.7 77.75 25.65 77.75 25.7 77.85 25.9 77.85 26 77.5 26.15 77.55 26.35 77.6 26.6 77.8 27.55 78 28.5 79.35 35.25 79.35 43.15 79.35 45.8 79.25 48.1 83.05 47.6 86.45 46.1 86.75 45.95 87.1 45.85
L 87.2 45.9
Q 87.3 45.85 87.4 45.75 87.8 45.6 88.2 45.5
L 88.45 45.5
Q 90.2 45.15 91.3 44.9 93.35 44.45 93.35 43.95 93.35 43.8 93.2 43.7 92.5 39.9 90.25 34.15 87.3 26.45 86.7 24.9 86.45 24.75 86.15 24.4
L 85.85 24.4
Q 85.7 24.15 85.4 23.4 85.3 23.25 85.25 23.15
L 84.6 23
Q 84.45 22.05 83.75 20.4 82.95 18.95 82.55 18.1 82.4 17.75 82.2 17.3
M 87.35 37.15
L 87.35 42.65 83.6 42.65
Q 83.6 39.9 83.85 37.15
L 87.35 37.15
M 77.5 5.7
Q 77.45 5.65 77.45 5.6 77.35 5.65 77.3 5.7
L 77.4 5.7
Q 77.45 5.7 77.5 5.7
M 32.7 9.3
Q 29 9.25 25.35 9.2 25.25 17.95 24.6 24 23.85 31.1 23.85 36.4 23.85 39.35 25.2 45.55 25.5 47 26 49.35 30.1 49.35 34.25 49.35 33.75 47.4 33.1 44.85 31.85 39.9 31.85 31.4 31.85 24.9 31.9 22.5 32.1 16.7 32.7 9.3
M 68.1 4.1
Q 67.2 2.2 66.45 0.4 62.65 0.4 58.85 0.15 58.6 0.15 58.3 0.1 57.9 0.05 57.5 0 56.4 0.05 55.35 0.1 52.1 0.15 48.85 0.15 45.1 0.15 41.35 0.25 39.35 0.3 37.35 0.4 36.1 0.9 34.85 1.55 34.1 1.9 33.85 1.9 33.85 2.1 33.6 2.95 33.35 3.85 33.35 4.4 41.95 4.9 44.35 4.9
L 44.35 4.4
Q 48.35 3.4 52.35 3.4
L 52.35 3.9
Q 53.65 4.9 55 5.55 55.5 5.4 55.95 5.25 57.1 4.9 58.35 4.9 61.65 4.9 64.85 4.55 66.45 4.35 68.1 4.1 Z"/>

<path fill="#D6D6C8" stroke="none" d="
M 87.35 42.65
L 87.35 37.15 83.85 37.15
Q 83.6 39.9 83.6 42.65
L 87.35 42.65
M 13.85 10.9
L 11.1 10.9 10.35 12.65 10.35 17.15 12.85 17.15
Q 12.85 14.75 13.4 13.3 13.55 12.85 13.7 12.4 13.9 11.55 13.85 10.9
M 62 20.15
Q 62 20.05 62.1 19.9
L 66 19.9 66.2 19.95 68.75 19.95
Q 69.3 19.8 69.5 19.75
L 72.55 19.7
Q 73.15 19.55 74.45 19.35 74.95 19.25 75.3 19.25 75.2 18.95 75.1 18.7 74.4 17.25 73.7 15.9 72.6 16.25 70.9 16.85 66.15 18.2 61.1 18.15 61.3 22.35 61.75 25.2 62.1 27.55 62.1 28.9
L 65.85 29.65
Q 73.65 29.65 75.35 29.4 76.85 29.15 78 28.5 77.8 27.55 77.6 26.6 77.55 26.35 77.5 26.15 76.75 26.4 74.55 26.8 72.85 27.1 71 27.4
L 66.1 27.4 65.8 27.25
Q 64.15 27.65 63.25 26.8
L 63.35 26.5
Q 63.85 26.5 64.8 26.6 65.9 26.7 66.1 26.85
L 71 26.85
Q 75.8 26 77.4 25.75 77.2 25.05 77.05 24.35 76.35 24.9 69.25 25.65
L 63.75 25.65
Q 63 25.45 62.85 25.35
L 62.85 25.05
Q 63.65 25.05 63.8 25.1
L 69.3 25.1 76.95 24
Q 76.7 23.2 76.5 22.45 74.8 22.75 66 24.15
L 63 24.15
Q 62.75 24.05 62.75 23.9 62.75 23.65 63 23.65
L 66 23.6
Q 67.1 23.45 69.55 22.9 71.25 22.5 74.05 22.35 74.6 22.1 75.45 22.1 76 22.1 76.35 22.1 76.2 21.65 76.1 21.25
L 67.1 22.25 62.75 22.25
Q 62.5 22.15 62.5 22 62.5 21.75 62.75 21.75
L 71.4 21.35
Q 74.9 20.9 75.9 20.7 75.7 20.15 75.5 19.65 74.65 19.9 72.5 20.25
L 69.35 20.3
Q 68.85 20.5 67.45 20.5
L 62.25 20.4
Q 62 20.3 62 20.15 Z"/>

<path fill="#DAC9AF" stroke="none" d="
M 78.85 8.75
L 79 8.75
Q 78.95 8.7 78.95 8.65 78.6 8.55 78.3 8.5 78.4 8.75 78.6 9.2 78.623828125 9.2408203125 78.65 9.25 78.6 9.19375 78.6 9.1 78.6 8.9 78.85 8.75
M 78 4.6
Q 78 4.35 77.6 3.15 77.15 1.75 76.85 1.75 76.6 1.75 75.8 0.95 75.55 0.7 75.45 0.95 75.4 0.95 75.35 0.9 73.85 0 71.85 0.2 69.35 0.4 66.85 0.4 66.65 0.4 66.45 0.4 67.2 2.2 68.1 4.1 66.45 4.35 64.85 4.55 61.65 4.9 58.35 4.9 57.1 4.9 55.95 5.25 55.5 5.4 55 5.55 53.65 4.9 52.35 3.9
L 52.35 3.4
Q 48.35 3.4 44.35 4.4
L 44.35 4.9
Q 41.95 4.9 33.35 4.4
L 32.85 5.9
Q 29.1 5.9 25.35 5.75 24.6 5.75 23.85 5.7 20.9 5.55 17.85 5.5 14.05 5.4 10.35 5.05 10.5 4.85 10.6 4.65 10.75 4.4 11.35 4.35 12.15 4.3 12.85 3.95
L 14.15 3.2 17 3.15
Q 18.85 2.85 18.85 2.5 18.75 2.3 18.75 2.25 17.3 2.25 16.9 2.6
L 15.15 2.65 14 2.65
Q 13.5 2.8 13.05 3 11.35 3.6 10.35 4.1 9.35 4.55 9 4.9 8.5 5.4 8.5 7.4 8.5 8.2 8.6 8.45
L 8.6 11.8
Q 8.45 12.1 8.3 12.4 6.7 15.4 5.6 18.65 5.4 18.85 5.35 19 5.35 19.05 5.35 19.35 5.35 19.4 5.35 19.5 5.15 20.2 4.95 20.95 4 24.9 3.05 28.85 2.85 29.65 2.6 30.5 2.35 31.15 2.15 31.85 1.9 32.7 1.55 33.5 1.45 33.7 1.35 33.9 1.05 34.6 0.8 35.35 0.3 36.65 0.05 38.1 0.05 38.25 0 38.45
L 0.85 45.9
Q 2.35 47.15 4.05 48.05 5.1 48.65 6.35 48.7 8.8 48.8 11.3 48.95 11.75 46.5 12.3 43.9
L 11.1 43.9 11.1 43.15
Q 11 42.25 11 40.85 11 39.8 11 39.25 11 38.65 11 38.6 11.15 37.25 12 37.25 13.25 37.25 13.55 38.65 14.55 34.5 15.05 32.1 17.25 22.2 17.1 12.4 17.05 10.4 16.95 8.45 19.55 9.1 22.35 9.15 22.85 9.15 23.35 9.15 24.35 9.2 25.35 9.2 29 9.25 32.7 9.3 37.75 9.3 42.85 9.2 44.85 9.15 46.9 8.65 48.1 8.4 49.35 8.35 54.35 8.1 59.35 7.95 62.1 7.9 64.85 7.7 65.35 7.65 65.9 7.55 67.65 7.25 69.4 6.95 71.35 6.6 73.3 6.2 73.6 6.15 73.9 6.1 75.15 5.85 76.4 5.55 76.45 5.55 76.55 5.5 76.6 5.55 76.6 5.6 76.3 5.6 76.1 5.65 76.1 5.85 76.2 5.95 77.35 6.15 77.6 6.8 77.7 7.15 78 8 78.45 7.85 78.65 7.95 78.75 8 78.85 8 78.85 7.85 78.85 7.7 78.95 7.2 78.75 6.5 78.65 6.15 78.55 5.95 78.6 5.85 78.65 5.8 78.6 5.7 78.55 5.65 78.35 5.4 78.15 5.15 78 4.75 78 4.6
M 77.45 5.6
Q 77.45 5.65 77.5 5.7 77.45 5.7 77.4 5.7
L 77.3 5.7
Q 77.35 5.65 77.45 5.6
M 11.1 10.9
L 13.85 10.9
Q 13.9 11.55 13.7 12.4 13.55 12.85 13.4 13.3 12.85 14.75 12.85 17.15
L 10.35 17.15 10.35 12.65 11.1 10.9
M 6.75 37
Q 6.75 36.8 6.9 36.65 6.9 36 7.1 35.75 7.25 35.85 8.6 36.15 9.75 36.4 9.95 36.95 10.1 37.25 10.1 38.6 10.1 39.65 10 40.2
L 9.85 40.25
Q 9.45 40 9.35 39.45 9.35 39.65 9.35 39.9 9.35 40.4 9.15 42.15
L 9.15 42.2
Q 9.15 42.3 9.15 42.4 9.45 42.45 9.85 42.5 10.2 42.65 10.25 42.95
L 10 43.15 8.35 43.15
Q 7.75 43 7.45 42.65
L 7.35 42.65
Q 7.3 42.55 7.25 42.45 7.05 42.15 7 41.8 7.1 40.65 7.1 40.2
L 6.85 37.25 6.8 37.2
Q 6.75 37.2 6.75 37
M 9.35 38.65
Q 9.6 38.2 9.6 37.9 9.6 37.45 9.5 37.2 9.3 37.3 9.25 37.45 9.2 37.5 9 37.5 8.9 37.5 8.75 37.4 8.6 37.25 8.45 37.25
L 8 37.3
Q 8 37.5 8 37.7 8.1 37.55 8.3 37.5 9.05 37.6 9.25 37.95 9.3 38.1 9.35 39.05
L 9.35 38.65
M 13.05 40.55
L 13.05 40.45 12.9 40.4
Q 12.95 40.45 13.05 40.55
M 11.6 39.9
Q 11.9 39.85 12.15 39.95
L 11.6 39.6 11.6 39.9
M 13 38.25
L 13 38
Q 12.9 38.05 12.9 38.15 12.95 38.2 13 38.25
M 79.3 10.05
Q 79.35 9.9 79.45 9.75 78.84921875 9.5732421875 78.65 9.3 78.9865234375 9.826171875 79.3 10.05 Z"/>

<path fill="#5F513D" stroke="none" d="
M 6.9 36.65
Q 6.75 36.8 6.75 37 6.75 37.2 6.8 37.2
L 6.85 37.25 7.1 40.2
Q 7.1 40.65 7 41.8 7.05 42.15 7.25 42.45 7.3 42.55 7.35 42.65
L 7.45 42.65
Q 7.75 43 8.35 43.15
L 10 43.15 10.25 42.95
Q 10.2 42.65 9.85 42.5 9.45 42.45 9.15 42.4 9.15 42.3 9.15 42.2
L 9.15 42.15
Q 9.35 40.4 9.35 39.9 9.35 39.65 9.35 39.45 9.45 40 9.85 40.25
L 10 40.2
Q 10.1 39.65 10.1 38.6 10.1 37.25 9.95 36.95 9.75 36.4 8.6 36.15 7.25 35.85 7.1 35.75 6.9 36 6.9 36.65
M 9.6 37.9
Q 9.6 38.2 9.35 38.65
L 9.35 39.05
Q 9.3 38.1 9.25 37.95 9.05 37.6 8.3 37.5 8.1 37.55 8 37.7 8 37.5 8 37.3
L 8.45 37.25
Q 8.6 37.25 8.75 37.4 8.9 37.5 9 37.5 9.2 37.5 9.25 37.45 9.3 37.3 9.5 37.2 9.6 37.45 9.6 37.9
M 13.6 38.85
Q 13.6 38.75 13.55 38.65 13.25 37.25 12 37.25 11.15 37.25 11 38.6 11 38.65 11 39.25 11 39.8 11 40.85 11 42.25 11.1 43.15
L 11.1 43.9 12.3 43.9 13.1 43.9
Q 13.15 43.75 13.2 43.65 13.65 43.2 13.7 42.1 13.6 40.65 13.6 40.6 13.75 39.65 13.6 38.85
M 13 38
L 13 38.25
Q 12.95 38.2 12.9 38.15 12.9 38.05 13 38
M 12.15 39.95
Q 11.9 39.85 11.6 39.9
L 11.6 39.6 12.15 39.95
M 13.05 40.45
L 13.05 40.55
Q 12.95 40.45 12.9 40.4
L 13.05 40.45
M 2.35 22.7
Q 1 22.8 0.95 23.9 0.85 26.15 0.85 28.4 0.85 28.9 1.05 29.3 1.8 30.7 1.55 33.5 1.9 32.7 2.15 31.85 2.35 31.15 2.6 30.5 2.85 29.65 3.05 28.85 4 24.9 4.95 20.95 5.15 20.2 5.35 19.5 5.35 19.4 5.35 19.35 5 19.45 4.4 19.55 3.85 19.65 3.6 20.05 3.35 20.4 3.15 20.8 2.85 21.4 2.65 22.35 2.6 22.65 2.35 22.7
M 50.85 24.15
Q 50.65 24.15 49.65 23.75 48.65 23.7 48.35 25.4
L 48.35 28.65 48.5 28.7
Q 48.6 28.75 48.6 28.9 50.5 28.2 50.85 28.15
L 50.85 24.15 Z"/>

<path fill="#E4D7B5" stroke="none" d="
M 13.55 38.65
Q 13.6 38.75 13.6 38.85 13.75 39.65 13.6 40.6 13.6 40.65 13.7 42.1 13.65 43.2 13.2 43.65 13.15 43.75 13.1 43.9
L 12.3 43.9
Q 11.75 46.5 11.3 48.95 13.3 49 15.35 49.1 16.1 49.15 16.85 49.15 21.4 49.25 26 49.35 25.5 47 25.2 45.55 23.85 39.35 23.85 36.4
L 15.05 32.1
Q 14.55 34.5 13.55 38.65
M 12.4 3.1
Q 12.1 3.15 11.8 3.3 11 3.6 10.35 4.1 11.35 3.6 13.05 3 12.7 3.05 12.4 3.1
M 33.35 4.4
Q 33.35 3.85 33.6 2.95 33.85 2.1 33.85 1.9 34.1 1.9 34.85 1.55 36.1 0.9 37.35 0.4 34.6 0.45 31.85 0.55 28.35 0.7 24.85 1.05 24.1 1.15 23.35 1.25 19.2 1.95 15.15 2.65
L 16.9 2.6
Q 17.3 2.25 18.75 2.25 18.75 2.3 18.85 2.5 18.85 2.85 17 3.15
L 14.15 3.2 12.85 3.95
Q 12.15 4.3 11.35 4.35 10.75 4.4 10.6 4.65 10.5 4.85 10.35 5.05 14.05 5.4 17.85 5.5 20.9 5.55 23.85 5.7 24.6 5.75 25.35 5.75 29.1 5.9 32.85 5.9
L 33.35 4.4 Z"/>

<path fill="#E4D8B5" stroke="none" d="
M 25.35 9.2
Q 24.35 9.2 23.35 9.15 22.85 9.15 22.35 9.15 19.55 9.1 16.95 8.45 17.05 10.4 17.1 12.4 17.25 22.2 15.05 32.1
L 23.85 36.4
Q 23.85 31.1 24.6 24 25.25 17.95 25.35 9.2 Z"/>

<path fill="#FDFBF6" stroke="none" d="
M 77.5 26.15
Q 77.85 26 77.85 25.9 77.75 25.7 77.75 25.65 77.6 25.7 77.4 25.75 75.8 26 71 26.85
L 66.1 26.85
Q 65.9 26.7 64.8 26.6 63.85 26.5 63.35 26.5
L 63.25 26.8
Q 64.15 27.65 65.8 27.25
L 66.1 27.4 71 27.4
Q 72.85 27.1 74.55 26.8 76.75 26.4 77.5 26.15
M 77 24
L 76.95 24 69.3 25.1 63.8 25.1
Q 63.65 25.05 62.85 25.05
L 62.85 25.35
Q 63 25.45 63.75 25.65
L 69.25 25.65
Q 76.35 24.9 77.05 24.35 77.1 24.3 77.1 24.25 77 24.05 77 24
M 62.5 22
Q 62.5 22.15 62.75 22.25
L 67.1 22.25 76.1 21.25
Q 76.35 21.15 76.35 20.95 76.35 20.75 76.1 20.65 76 20.7 75.9 20.7 74.9 20.9 71.4 21.35
L 62.75 21.75
Q 62.5 21.75 62.5 22
M 62.75 23.9
Q 62.75 24.05 63 24.15
L 66 24.15
Q 74.8 22.75 76.5 22.45
L 76.85 22.35
Q 76.85 22.25 76.75 22.05 76.7 22.05 76.35 22.1 76 22.1 75.45 22.1 74.6 22.1 74.05 22.35 71.25 22.5 69.55 22.9 67.1 23.45 66 23.6
L 63 23.65
Q 62.75 23.65 62.75 23.9
M 62.1 19.9
Q 62 20.05 62 20.15 62 20.3 62.25 20.4
L 67.45 20.5
Q 68.85 20.5 69.35 20.3
L 72.5 20.25
Q 74.65 19.9 75.5 19.65 76 19.5 76 19.4 75.9 19.2 75.9 19.15 75.75 19.15 75.3 19.25 74.95 19.25 74.45 19.35 73.15 19.55 72.55 19.7
L 69.5 19.75
Q 69.3 19.8 68.75 19.95
L 66.2 19.95 66 19.9 62.1 19.9
M 69.4 6.95
Q 67.65 7.25 65.9 7.55 65.35 7.65 64.85 7.7 62.1 7.9 59.35 7.95 54.35 8.1 49.35 8.35 48.1 8.4 46.9 8.65 44.85 9.15 42.85 9.2 37.75 9.3 32.7 9.3 32.1 16.7 31.9 22.5 31.85 24.9 31.85 31.4 31.85 39.9 33.1 44.85 33.75 47.4 34.25 49.35 35.05 49.3 35.85 49.3 45.45 49.2 54.85 49.65 60.1 49.9 65.35 50.1 68.95 50.2 72.3 49.25 75.05 48.5 77.85 48.25 78.55 48.2 79.25 48.1 79.35 45.8 79.35 43.15 79.35 35.25 78 28.5 76.85 29.15 75.35 29.4 73.65 29.65 65.85 29.65
L 62.1 28.9
Q 62.1 27.55 61.75 25.2 61.3 22.35 61.1 18.15 66.15 18.2 70.9 16.85 72.6 16.25 73.7 15.9 71.35 11.15 69.4 6.95
M 49.65 23.75
Q 50.65 24.15 50.85 24.15
L 50.85 28.15
Q 50.5 28.2 48.6 28.9 48.6 28.75 48.5 28.7
L 48.35 28.65 48.35 25.4
Q 48.65 23.7 49.65 23.75
M 79.3 10.05
Q 79.25 10.15 79.2 10.2 80.3 10.1 80.95 10 80.1 9.95 79.45 9.75 79.35 9.9 79.3 10.05
M 83.75 20.4
Q 84.45 22.05 84.6 23
L 85.25 23.15
Q 84.8 22.5 84.35 21.6 84 20.95 83.75 20.4
M 85.4 23.4
Q 85.7 24.15 85.85 24.4
L 86.15 24.4
Q 85.8 24 85.4 23.4
M 81.75 16.5
Q 81.95 16.9 82.2 17.3 81.6 16.05 80.5 13.95 79.9 12.7 79.55 12.05 80.05 13.45 81.75 16.5
M 87.55 6.5
Q 87 6.4 86.3 6.45
L 87.2 6.6 87.55 6.5
M 85.1 6.6
L 85.55 6.5
Q 85.25 6.55 84.95 6.6 85.05 6.6 85.1 6.6
M 86.9 24.25
Q 86.8 24.05 86.6 23.95
L 86.6 24.25 86.8 24.35 86.9 24.25 Z"/>
</g>

<g id="pod_0_Layer0_0_FILL">
<path fill="#E4D7B5" stroke="none" d="
M 13.55 38.65
Q 13.6 38.75 13.6 38.85 13.75 39.65 13.6 40.6 13.6 40.65 13.7 42.1 13.65 43.2 13.2 43.65 13.15 43.75 13.1 43.9
L 12.3 43.9
Q 11.75 46.5 11.3 48.95 13.3 49 15.35 49.1 16.1 49.15 16.85 49.15 21.4 49.25 26 49.35 25.5 47 25.2 45.55 23.85 39.35 23.85 36.4
L 15.05 32.1
Q 14.55 34.5 13.55 38.65
M 11.8 3.3
Q 11 3.6 10.35 4.1 11.35 3.6 13.05 3 12.7 3.05 12.4 3.1 12.1 3.15 11.8 3.3
M 37.35 0.4
Q 34.6 0.45 31.85 0.55 28.35 0.7 24.85 1.05 24.1 1.15 23.35 1.25 19.2 1.95 15.15 2.65
L 16.9 2.6
Q 17.3 2.25 18.75 2.25 18.75 2.3 18.85 2.5 18.85 2.85 17 3.15
L 14.15 3.2 12.85 3.95
Q 12.15 4.3 11.35 4.35 10.75 4.4 10.6 4.65 10.5 4.85 10.35 5.05 14.05 5.4 17.85 5.5 20.9 5.55 23.85 5.7 24.6 5.75 25.35 5.75 29.1 5.9 32.85 5.9
L 33.35 4.4
Q 33.35 3.85 33.6 2.95 33.85 2.1 33.85 1.9 34.1 1.9 34.85 1.55 36.1 0.9 37.35 0.4 Z"/>

<path fill="#5F513D" stroke="none" d="
M 13.6 38.85
Q 13.6 38.75 13.55 38.65 13.25 37.25 12 37.25 11.15 37.25 11 38.6 11 38.65 11 39.25 11 39.8 11 40.85 11 42.25 11.1 43.15
L 11.1 43.9 12.3 43.9 13.1 43.9
Q 13.15 43.75 13.2 43.65 13.65 43.2 13.7 42.1 13.6 40.65 13.6 40.6 13.75 39.65 13.6 38.85
M 13 38.25
Q 12.95 38.2 12.9 38.15 12.9 38.05 13 38
L 13 38.25
M 11.6 39.6
L 12.15 39.95
Q 11.9 39.85 11.6 39.9
L 11.6 39.6
M 13.05 40.55
Q 12.95 40.45 12.9 40.4
L 13.05 40.45 13.05 40.55
M 2.65 22.35
Q 2.6 22.65 2.35 22.7 1 22.8 0.95 23.9 0.85 26.15 0.85 28.4 0.85 28.9 1.05 29.3 1.8 30.7 1.55 33.5 1.9 32.7 2.15 31.85 2.35 31.15 2.6 30.5 2.85 29.65 3.05 28.85 4 24.9 4.95 20.95 5.15 20.2 5.35 19.5 5.35 19.4 5.35 19.35 5 19.45 4.4 19.55 3.85 19.65 3.6 20.05 3.35 20.4 3.15 20.8 2.85 21.4 2.65 22.35
M 50.85 24.15
Q 50.65 24.15 49.65 23.75 48.65 23.7 48.35 25.4
L 48.35 28.65 48.5 28.7
Q 48.6 28.75 48.6 28.9 50.5 28.2 50.85 28.15
L 50.85 24.15
M 9.95 36.95
Q 9.75 36.4 8.6 36.15 7.25 35.85 7.1 35.75 6.9 36 6.9 36.65 6.75 36.8 6.75 37 6.75 37.2 6.8 37.2
L 6.85 37.25 7.1 40.2
Q 7.1 40.65 7 41.8 7.05 42.15 7.25 42.45 7.3 42.55 7.35 42.65
L 7.45 42.65
Q 7.75 43 8.35 43.15
L 10 43.15 10.25 42.95
Q 10.2 42.65 9.85 42.5 9.45 42.45 9.15 42.4 9.15 42.3 9.15 42.2
L 9.15 42.15
Q 9.35 40.4 9.35 39.9 9.35 39.65 9.35 39.45 9.45 40 9.85 40.25
L 10 40.2
Q 10.1 39.65 10.1 38.6 10.1 37.25 9.95 36.95
M 9 37.5
Q 9.2 37.5 9.25 37.45 9.3 37.3 9.5 37.2 9.6 37.45 9.6 37.9 9.6 38.2 9.35 38.65
L 9.35 39.05
Q 9.3 38.1 9.25 37.95 9.05 37.6 8.3 37.5 8.1 37.55 8 37.7 8 37.5 8 37.3
L 8.45 37.25
Q 8.6 37.25 8.75 37.4 8.9 37.5 9 37.5 Z"/>

<path fill="#DAC9AF" stroke="none" d="
M 12.9 40.4
Q 12.95 40.45 13.05 40.55
L 13.05 40.45 12.9 40.4
M 12.15 39.95
L 11.6 39.6 11.6 39.9
Q 11.9 39.85 12.15 39.95
M 12.9 38.15
Q 12.95 38.2 13 38.25
L 13 38
Q 12.9 38.05 12.9 38.15
M 79.3 10.05
Q 79.35 9.9 79.45 9.75 78.84921875 9.5732421875 78.65 9.3 78.9865234375 9.826171875 79.3 10.05
M 78.6 9.1
Q 78.6 8.9 78.85 8.75
L 79 8.75
Q 78.95 8.7 78.95 8.65 78.6 8.55 78.3 8.5 78.4 8.75 78.6 9.2 78.623828125 9.2408203125 78.65 9.25 78.6 9.19375 78.6 9.1
M 78 4.6
Q 78 4.35 77.6 3.15 77.15 1.75 76.85 1.75 76.6 1.75 75.8 0.95 75.55 0.7 75.45 0.95 75.4 0.95 75.35 0.9 73.85 0 71.85 0.2 69.35 0.4 66.85 0.4 66.65 0.4 66.45 0.4 67.2 2.2 68.1 4.1 66.45 4.35 64.85 4.55 61.65 4.9 58.35 4.9 57.1 4.9 55.95 5.25 55.5 5.4 55 5.55 53.65 4.9 52.35 3.9
L 52.35 3.4
Q 48.35 3.4 44.35 4.4
L 44.35 4.9
Q 41.95 4.9 33.35 4.4
L 32.85 5.9
Q 29.1 5.9 25.35 5.75 24.6 5.75 23.85 5.7 20.9 5.55 17.85 5.5 14.05 5.4 10.35 5.05 10.5 4.85 10.6 4.65 10.75 4.4 11.35 4.35 12.15 4.3 12.85 3.95
L 14.15 3.2 17 3.15
Q 18.85 2.85 18.85 2.5 18.75 2.3 18.75 2.25 17.3 2.25 16.9 2.6
L 15.15 2.65 14 2.65
Q 13.5 2.8 13.05 3 11.35 3.6 10.35 4.1 9.35 4.55 9 4.9 8.5 5.4 8.5 7.4 8.5 8.2 8.6 8.45
L 8.6 11.8
Q 8.45 12.1 8.3 12.4 6.7 15.4 5.6 18.65 5.4 18.85 5.35 19 5.35 19.05 5.35 19.35 5.35 19.4 5.35 19.5 5.15 20.2 4.95 20.95 4 24.9 3.05 28.85 2.85 29.65 2.6 30.5 2.35 31.15 2.15 31.85 1.9 32.7 1.55 33.5 1.45 33.7 1.35 33.9 1.05 34.6 0.8 35.35 0.3 36.65 0.05 38.1 0.05 38.25 0 38.45
L 0.85 45.9
Q 2.35 47.15 4.05 48.05 5.1 48.65 6.35 48.7 8.8 48.8 11.3 48.95 11.75 46.5 12.3 43.9
L 11.1 43.9 11.1 43.15
Q 11 42.25 11 40.85 11 39.8 11 39.25 11 38.65 11 38.6 11.15 37.25 12 37.25 13.25 37.25 13.55 38.65 14.55 34.5 15.05 32.1 17.25 22.2 17.1 12.4 17.05 10.4 16.95 8.45 19.55 9.1 22.35 9.15 22.85 9.15 23.35 9.15 24.35 9.2 25.35 9.2 29 9.25 32.7 9.3 37.75 9.3 42.85 9.2 44.85 9.15 46.9 8.65 48.1 8.4 49.35 8.35 54.35 8.1 59.35 7.95 62.1 7.9 64.85 7.7 65.35 7.65 65.9 7.55 67.65 7.25 69.4 6.95 71.35 6.6 73.3 6.2 73.6 6.15 73.9 6.1 75.15 5.85 76.4 5.55 76.45 5.55 76.55 5.5 76.6 5.55 76.6 5.6 76.3 5.6 76.1 5.65 76.1 5.85 76.2 5.95 77.35 6.15 77.6 6.8 77.7 7.15 78 8 78.45 7.85 78.65 7.95 78.75 8 78.85 8 78.85 7.85 78.85 7.7 78.95 7.2 78.75 6.5 78.65 6.15 78.55 5.95 78.6 5.85 78.65 5.8 78.6 5.7 78.55 5.65 78.35 5.4 78.15 5.15 78 4.75 78 4.6
M 77.45 5.6
Q 77.45 5.65 77.5 5.7 77.45 5.7 77.4 5.7
L 77.3 5.7
Q 77.35 5.65 77.45 5.6
M 11.1 10.9
L 13.85 10.9
Q 13.9 11.55 13.7 12.4 13.55 12.85 13.4 13.3 12.85 14.75 12.85 17.15
L 10.35 17.15 10.35 12.65 11.1 10.9
M 8.6 36.15
Q 9.75 36.4 9.95 36.95 10.1 37.25 10.1 38.6 10.1 39.65 10 40.2
L 9.85 40.25
Q 9.45 40 9.35 39.45 9.35 39.65 9.35 39.9 9.35 40.4 9.15 42.15
L 9.15 42.2
Q 9.15 42.3 9.15 42.4 9.45 42.45 9.85 42.5 10.2 42.65 10.25 42.95
L 10 43.15 8.35 43.15
Q 7.75 43 7.45 42.65
L 7.35 42.65
Q 7.3 42.55 7.25 42.45 7.05 42.15 7 41.8 7.1 40.65 7.1 40.2
L 6.85 37.25 6.8 37.2
Q 6.75 37.2 6.75 37 6.75 36.8 6.9 36.65 6.9 36 7.1 35.75 7.25 35.85 8.6 36.15
M 9.25 37.45
Q 9.2 37.5 9 37.5 8.9 37.5 8.75 37.4 8.6 37.25 8.45 37.25
L 8 37.3
Q 8 37.5 8 37.7 8.1 37.55 8.3 37.5 9.05 37.6 9.25 37.95 9.3 38.1 9.35 39.05
L 9.35 38.65
Q 9.6 38.2 9.6 37.9 9.6 37.45 9.5 37.2 9.3 37.3 9.25 37.45 Z"/>

<path fill="#EBEBE1" stroke="none" d="
M 25.35 9.2
Q 25.25 17.95 24.6 24 23.85 31.1 23.85 36.4 23.85 39.35 25.2 45.55 25.5 47 26 49.35 30.1 49.35 34.25 49.35 33.75 47.4 33.1 44.85 31.85 39.9 31.85 31.4 31.85 24.9 31.9 22.5 32.1 16.7 32.7 9.3 29 9.25 25.35 9.2
M 68.1 4.1
Q 67.2 2.2 66.45 0.4 62.65 0.4 58.85 0.15 58.6 0.15 58.3 0.1 57.9 0.05 57.5 0 56.4 0.05 55.35 0.1 52.1 0.15 48.85 0.15 45.1 0.15 41.35 0.25 39.35 0.3 37.35 0.4 36.1 0.9 34.85 1.55 34.1 1.9 33.85 1.9 33.85 2.1 33.6 2.95 33.35 3.85 33.35 4.4 41.95 4.9 44.35 4.9
L 44.35 4.4
Q 48.35 3.4 52.35 3.4
L 52.35 3.9
Q 53.65 4.9 55 5.55 55.5 5.4 55.95 5.25 57.1 4.9 58.35 4.9 61.65 4.9 64.85 4.55 66.45 4.35 68.1 4.1
M 77.5 5.7
Q 77.45 5.65 77.45 5.6 77.35 5.65 77.3 5.7
L 77.4 5.7
Q 77.45 5.7 77.5 5.7
M 82.2 17.3
Q 81.95 16.9 81.75 16.5 80.05 13.45 79.55 12.05 79.2 11.35 79.2 11.3 79.2 11.05 79.3 10.95 79.35 11 79.45 11.05 79.45 11 79.5 10.95 79.4 10.85 79.3 10.75
L 78.95 10.75
Q 78.7 10.65 78.7 10.5 78.7 10.4 78.8 10.25 79 10.25 79.2 10.2 79.25 10.15 79.3 10.05 78.9865234375 9.826171875 78.65 9.3 78.6615234375 9.3033203125 78.65 9.25 78.623828125 9.2408203125 78.6 9.2 78.4 8.75 78.3 8.5 78.1 8.45 77.95 8.4
L 77.85 8.05
Q 77.95 8 78 8 77.7 7.15 77.6 6.8 77.35 6.15 76.2 5.95 76.1 5.85 76.1 5.65 76.3 5.6 76.6 5.6 76.6 5.55 76.55 5.5 76.45 5.55 76.4 5.55 75.15 5.85 73.9 6.1 73.6 6.15 73.3 6.2 71.35 6.6 69.4 6.95 71.35 11.15 73.7 15.9 74.4 17.25 75.1 18.7 75.2 18.95 75.3 19.25 75.75 19.15 75.9 19.15 75.9 19.2 76 19.4 76 19.5 75.5 19.65 75.7 20.15 75.9 20.7 76 20.7 76.1 20.65 76.35 20.75 76.35 20.95 76.35 21.15 76.1 21.25 76.2 21.65 76.35 22.1 76.7 22.05 76.75 22.05 76.85 22.25 76.85 22.35
L 76.5 22.45
Q 76.7 23.2 76.95 24
L 77 24
Q 77 24.05 77.1 24.25 77.1 24.3 77.05 24.35 77.2 25.05 77.4 25.75 77.6 25.7 77.75 25.65 77.75 25.7 77.85 25.9 77.85 26 77.5 26.15 77.55 26.35 77.6 26.6 77.8 27.55 78 28.5 79.35 35.25 79.35 43.15 79.35 45.8 79.25 48.1 83.05 47.6 86.45 46.1 86.75 45.95 87.1 45.85
L 87.2 45.9
Q 87.3 45.85 87.4 45.75 87.8 45.6 88.2 45.5
L 88.45 45.5
Q 90.2 45.15 91.3 44.9 93.35 44.45 93.35 43.95 93.35 43.8 93.2 43.7 92.5 39.9 90.25 34.15 87.3 26.45 86.7 24.9 86.45 24.75 86.15 24.4
L 85.85 24.4
Q 85.7 24.15 85.4 23.4 85.3 23.25 85.25 23.15
L 84.6 23
Q 84.45 22.05 83.75 20.4 82.95 18.95 82.55 18.1 82.4 17.75 82.2 17.3
M 87.35 37.15
L 87.35 42.65 83.6 42.65
Q 83.6 39.9 83.85 37.15
L 87.35 37.15 Z"/>

<path fill="#E4D8B5" stroke="none" d="
M 25.35 9.2
Q 24.35 9.2 23.35 9.15 22.85 9.15 22.35 9.15 19.55 9.1 16.95 8.45 17.05 10.4 17.1 12.4 17.25 22.2 15.05 32.1
L 23.85 36.4
Q 23.85 31.1 24.6 24 25.25 17.95 25.35 9.2 Z"/>

<path fill="#FDFBF6" stroke="none" d="
M 77.75 25.65
Q 77.6 25.7 77.4 25.75 75.8 26 71 26.85
L 66.1 26.85
Q 65.9 26.7 64.8 26.6 63.85 26.5 63.35 26.5
L 63.25 26.8
Q 64.15 27.65 65.8 27.25
L 66.1 27.4 71 27.4
Q 72.85 27.1 74.55 26.8 76.75 26.4 77.5 26.15 77.85 26 77.85 25.9 77.75 25.7 77.75 25.65
M 77.1 24.25
Q 77 24.05 77 24
L 76.95 24 69.3 25.1 63.8 25.1
Q 63.65 25.05 62.85 25.05
L 62.85 25.35
Q 63 25.45 63.75 25.65
L 69.25 25.65
Q 76.35 24.9 77.05 24.35 77.1 24.3 77.1 24.25
M 62.1 19.9
Q 62 20.05 62 20.15 62 20.3 62.25 20.4
L 67.45 20.5
Q 68.85 20.5 69.35 20.3
L 72.5 20.25
Q 74.65 19.9 75.5 19.65 76 19.5 76 19.4 75.9 19.2 75.9 19.15 75.75 19.15 75.3 19.25 74.95 19.25 74.45 19.35 73.15 19.55 72.55 19.7
L 69.5 19.75
Q 69.3 19.8 68.75 19.95
L 66.2 19.95 66 19.9 62.1 19.9
M 62.75 21.75
Q 62.5 21.75 62.5 22 62.5 22.15 62.75 22.25
L 67.1 22.25 76.1 21.25
Q 76.35 21.15 76.35 20.95 76.35 20.75 76.1 20.65 76 20.7 75.9 20.7 74.9 20.9 71.4 21.35
L 62.75 21.75
M 63 23.65
Q 62.75 23.65 62.75 23.9 62.75 24.05 63 24.15
L 66 24.15
Q 74.8 22.75 76.5 22.45
L 76.85 22.35
Q 76.85 22.25 76.75 22.05 76.7 22.05 76.35 22.1 76 22.1 75.45 22.1 74.6 22.1 74.05 22.35 71.25 22.5 69.55 22.9 67.1 23.45 66 23.6
L 63 23.65
M 69.4 6.95
Q 67.65 7.25 65.9 7.55 65.35 7.65 64.85 7.7 62.1 7.9 59.35 7.95 54.35 8.1 49.35 8.35 48.1 8.4 46.9 8.65 44.85 9.15 42.85 9.2 37.75 9.3 32.7 9.3 32.1 16.7 31.9 22.5 31.85 24.9 31.85 31.4 31.85 39.9 33.1 44.85 33.75 47.4 34.25 49.35 35.05 49.3 35.85 49.3 45.45 49.2 54.85 49.65 60.1 49.9 65.35 50.1 68.95 50.2 72.3 49.25 75.05 48.5 77.85 48.25 78.55 48.2 79.25 48.1 79.35 45.8 79.35 43.15 79.35 35.25 78 28.5 76.85 29.15 75.35 29.4 73.65 29.65 65.85 29.65
L 62.1 28.9
Q 62.1 27.55 61.75 25.2 61.3 22.35 61.1 18.15 66.15 18.2 70.9 16.85 72.6 16.25 73.7 15.9 71.35 11.15 69.4 6.95
M 49.65 23.75
Q 50.65 24.15 50.85 24.15
L 50.85 28.15
Q 50.5 28.2 48.6 28.9 48.6 28.75 48.5 28.7
L 48.35 28.65 48.35 25.4
Q 48.65 23.7 49.65 23.75
M 79.3 10.05
Q 79.25 10.15 79.2 10.2 80.3 10.1 80.95 10 80.1 9.95 79.45 9.75 79.35 9.9 79.3 10.05
M 85.4 23.4
Q 85.7 24.15 85.85 24.4
L 86.15 24.4
Q 85.8 24 85.4 23.4
M 84.35 21.6
Q 84 20.95 83.75 20.4 84.45 22.05 84.6 23
L 85.25 23.15
Q 84.8 22.5 84.35 21.6
M 81.75 16.5
Q 81.95 16.9 82.2 17.3 81.6 16.05 80.5 13.95 79.9 12.7 79.55 12.05 80.05 13.45 81.75 16.5
M 87.2 6.6
L 87.55 6.5
Q 87 6.4 86.3 6.45
L 87.2 6.6
M 85.45 8.7
L 85.45 9.25
Q 85.4 9.5 85.15 9.5 85.05 9.5 84.95 9.5 84.95 9.65 84.8 9.75 84.7 9.85 84.6 9.9
L 82.5 10
Q 82.35 10.2 81.9 10.35 81.5 10.5 80.7 10.75
L 79.3 10.75
Q 79.4 10.85 79.5 10.95 79.45 11 79.45 11.05 80.85 11.95 81.85 13.5 82.85 14.95 83.15 16.5 84.2 18.55 86.3 22.45
L 88.7 22.5
Q 88.8 22.55 88.95 22.7 89.85 22.7 90.35 22.75 90.65 22.4 90.7 22.05 90.65 21.8 90.7 21.5 90.5 21.25 90.4 20.9 90.3 20.8 90.2 20.7
L 90.2 20.5 90.3 20.5
Q 90.1 19.65 90.1 18.4 90.1 17.45 90.2 16.85 89.8 16.6 89.7 15 89.7 12.65 89.6 11.85 89 8.3 88.9 7.3 88.6 7.4 88.2 7.5
L 85.65 7.55
Q 85.45 7.9 85.45 8.7
M 87.6 11.9
Q 87.75 11.9 87.8 12 87.85 12.05 87.85 12.1 88 11.75 88.2 11.5 88.45 12.05 88.45 14.1 88.45 14.6 88.45 15.05 88.65 15.75 88.85 16.9 88.75 17.1 88.6 17.15
L 88.55 17.1 88.4 18.05 88.2 18.15
Q 87.5 17.4 87.45 16.1 87.3 15.85 87.2 15.5
L 85.35 15.5 85.1 15.45 85.1 14.85
Q 85.55 13.8 86.8 14.3 86.7 13.8 86.6 13.25 84.05 13.3 83.4 13.1 83.05 13 82.85 12.85
L 82.85 12.55 83.3 12.5
Q 83.9 12.7 84.15 12.7 84.35 12.35 86.2 12.35 86.85 12.35 87.2 12.15
L 87.6 11.9
M 85.55 6.5
Q 85.25 6.55 84.95 6.6 85.05 6.6 85.1 6.6
L 85.55 6.5
M 95.45 20.25
Q 95.75 20.9 95.7 22.25 95.65 24 96.2 24.85
L 98.95 24.9 99.05 24.95 99.85 24.95 99.3 23.25
Q 99.05 23.35 98.7 23.5 98.1 22.3 98.1 21.65 98.1 21.2 98.35 20.85 98.25 20.55 98 20.4
L 97.95 20.4
Q 97.8 20.35 97.75 20.3 97.7 20.25 97.65 20.25 97.55 20.25 97.5 20.2
L 95.45 20.25
M 86.9 24.25
Q 86.8 24.05 86.6 23.95
L 86.6 24.25 86.8 24.35 86.9 24.25
M 94.95 11.75
Q 94.9 11.55 94.8 11.45 94.75 11.4 94.6 11.4
L 94.6 12.6
Q 95.1 13.35 94.95 14.65 94.9 15.35 94.7 16.65
L 95 18.65 96.7 18.65 97.2 18.95
Q 97.3 18.65 97.6 18.5
L 97.55 18.45
Q 97.45 18.25 97.45 18.1
L 97.4 18.2
Q 97.35 18.25 97.2 18.25 96.55 18.25 96.7 14.95 96.7 12.95 96.95 11.9 96.8 11.9 96.45 11.85 95.8 11.75 94.95 11.75
M 93.6 10.75
Q 93.6 9.8 93.65 9.7 93.8 9.45 93.95 9.15
L 90.8 9.4
Q 90.45 9.4 90.15 9.35 90.2 10 90.2 10.35 90.2 10.6 90.65 12.2 90.85 12.95 91 13.5 91.45 14.4 91.4 15.4 91.4 16.15 91.2 17.65 91.2 18.05 91.7 19.45
L 91.7 21.1
Q 91.75 21.25 91.8 21.4
L 93.7 21.4
Q 93.65 21.1 93.7 20.7 93.7 19.15 93.95 18.5 94.3 18.5 94.5 18.7 94.5 18.75 94.55 18.8 93.6 13.05 93.6 10.75
M 98.15 6
L 98.1 6
Q 97.7 6 97.05 6.35 96.35 6.7 95.95 6.7 94.85 6.7 94.85 7.35 94.85 8.55 94.75 9.2
L 94.6 9.25 94.6 11
Q 96.65 10.85 97.2 10.95 97.6 11 97.6 11.4
L 97.55 11.85 97.35 11.9
Q 97.35 11.95 97.35 12 97.45 11.85 97.8 11.85
L 97.55 9.95
Q 97.35 9.3 97.35 9.05 97.35 8.7 97.5 8.65
L 97.55 8.65
Q 97.6 8.5 97.7 8.4 97.75 8.5 97.75 8.6 97.9 8.55 98.15 8.55 98.15 8.25 98.15 8 98.1 7.1 98.1 6.3 98.1 6.15 98.15 6 Z"/>

<path fill="#D6D6C8" stroke="none" d="
M 62.75 23.9
Q 62.75 23.65 63 23.65
L 66 23.6
Q 67.1 23.45 69.55 22.9 71.25 22.5 74.05 22.35 74.6 22.1 75.45 22.1 76 22.1 76.35 22.1 76.2 21.65 76.1 21.25
L 67.1 22.25 62.75 22.25
Q 62.5 22.15 62.5 22 62.5 21.75 62.75 21.75
L 71.4 21.35
Q 74.9 20.9 75.9 20.7 75.7 20.15 75.5 19.65 74.65 19.9 72.5 20.25
L 69.35 20.3
Q 68.85 20.5 67.45 20.5
L 62.25 20.4
Q 62 20.3 62 20.15 62 20.05 62.1 19.9
L 66 19.9 66.2 19.95 68.75 19.95
Q 69.3 19.8 69.5 19.75
L 72.55 19.7
Q 73.15 19.55 74.45 19.35 74.95 19.25 75.3 19.25 75.2 18.95 75.1 18.7 74.4 17.25 73.7 15.9 72.6 16.25 70.9 16.85 66.15 18.2 61.1 18.15 61.3 22.35 61.75 25.2 62.1 27.55 62.1 28.9
L 65.85 29.65
Q 73.65 29.65 75.35 29.4 76.85 29.15 78 28.5 77.8 27.55 77.6 26.6 77.55 26.35 77.5 26.15 76.75 26.4 74.55 26.8 72.85 27.1 71 27.4
L 66.1 27.4 65.8 27.25
Q 64.15 27.65 63.25 26.8
L 63.35 26.5
Q 63.85 26.5 64.8 26.6 65.9 26.7 66.1 26.85
L 71 26.85
Q 75.8 26 77.4 25.75 77.2 25.05 77.05 24.35 76.35 24.9 69.25 25.65
L 63.75 25.65
Q 63 25.45 62.85 25.35
L 62.85 25.05
Q 63.65 25.05 63.8 25.1
L 69.3 25.1 76.95 24
Q 76.7 23.2 76.5 22.45 74.8 22.75 66 24.15
L 63 24.15
Q 62.75 24.05 62.75 23.9
M 13.85 10.9
L 11.1 10.9 10.35 12.65 10.35 17.15 12.85 17.15
Q 12.85 14.75 13.4 13.3 13.55 12.85 13.7 12.4 13.9 11.55 13.85 10.9
M 87.35 42.65
L 87.35 37.15 83.85 37.15
Q 83.6 39.9 83.6 42.65
L 87.35 42.65
M 87.8 12
Q 87.75 11.9 87.6 11.9
L 87.2 12.15
Q 86.85 12.35 86.2 12.35 84.35 12.35 84.15 12.7 83.9 12.7 83.3 12.5
L 82.85 12.55 82.85 12.85
Q 83.05 13 83.4 13.1 84.05 13.3 86.6 13.25 86.7 13.8 86.8 14.3 85.55 13.8 85.1 14.85
L 85.1 15.45 85.35 15.5 87.2 15.5
Q 87.3 15.85 87.45 16.1 87.5 17.4 88.2 18.15
L 88.4 18.05 88.55 17.1 88.6 17.15
Q 88.75 17.1 88.85 16.9 88.65 15.75 88.45 15.05 88.45 14.6 88.45 14.1 88.45 12.05 88.2 11.5 88 11.75 87.85 12.1 87.85 12.05 87.8 12
M 98.2 5.75
Q 97.4 5.45 97.15 5.75 96.45 6.35 95 6.35 94.75 6.35 94.4 6.15 94.1 6.15 94 6.25 93.95 6.35 93.95 6.65
L 94.2 7.25
Q 94.2 7.65 93.85 8.5 92.05 8.5 90.1 8.7 90 7.85 89.85 6.7 89.85 6.6 89.85 6.55 89.85 6.45 89.8 6.35
L 89.8 6.3
Q 89.7 6.2 89.6 6.15
L 88.35 6.15 87.55 6.5 87.2 6.6 86.3 6.45 86.05 6.4 85.55 6.5 85.1 6.6
Q 85.05 6.6 84.95 6.6 84.7 6.55 84.35 6.4
L 84 6.45 83.95 6.7
Q 83.95 7.45 84.05 8
L 81.95 8
Q 79.6 8.15 78.85 8 78.75 8 78.65 7.95 78.45 7.85 78 8 77.95 8 77.85 8.05
L 77.95 8.4
Q 78.1 8.45 78.3 8.5 78.6 8.55 78.95 8.65 79.4 8.7 79.95 8.7
L 79 8.75 78.85 8.75
Q 78.6 8.9 78.6 9.1 78.6 9.19375 78.65 9.25 78.6615234375 9.3033203125 78.65 9.3 78.84921875 9.5732421875 79.45 9.75 80.1 9.95 80.95 10 80.3 10.1 79.2 10.2 79 10.25 78.8 10.25 78.7 10.4 78.7 10.5 78.7 10.65 78.95 10.75
L 79.3 10.75 80.7 10.75
Q 81.5 10.5 81.9 10.35 82.35 10.2 82.5 10
L 84.6 9.9
Q 84.7 9.85 84.8 9.75 84.95 9.65 84.95 9.5 85.05 9.5 85.15 9.5 85.4 9.5 85.45 9.25
L 85.45 8.7
Q 85.45 7.9 85.65 7.55
L 88.2 7.5
Q 88.6 7.4 88.9 7.3 89 8.3 89.6 11.85 89.7 12.65 89.7 15 89.8 16.6 90.2 16.85 90.1 17.45 90.1 18.4 90.1 19.65 90.3 20.5
L 90.2 20.5 90.2 20.7
Q 90.3 20.8 90.4 20.9 90.5 21.25 90.7 21.5 90.65 21.8 90.7 22.05 90.65 22.4 90.35 22.75 89.85 22.7 88.95 22.7 88.8 22.55 88.7 22.5
L 86.3 22.45
Q 84.2 18.55 83.15 16.5 82.85 14.95 81.85 13.5 80.85 11.95 79.45 11.05 79.35 11 79.3 10.95 79.2 11.05 79.2 11.3 79.2 11.35 79.55 12.05 79.9 12.7 80.5 13.95 81.6 16.05 82.2 17.3 82.4 17.75 82.55 18.1 82.95 18.95 83.75 20.4 84 20.95 84.35 21.6 84.8 22.5 85.25 23.15 85.3 23.25 85.4 23.4 85.8 24 86.15 24.4 86.45 24.75 86.7 24.9
L 92.6 24.9
Q 92.85 24.8 92.85 24.45 92.6 23.8 92.35 23.3 92.3 22.9 92.15 22.4
L 92.6 22.4
Q 92.8 22.3 93.7 22.25 93.8 22.3 93.95 22.4 94.05 22.5 94.25 22.5 94.3 22.5 94.35 22.5 94.45 22.5 94.55 22.5 94.65 22.5 94.75 22.45 94.9 22.65 95.1 22.65
L 95.2 22.65 95.2 23.95
Q 95.3 24.1 95.55 24.65 95.85 25.2 96.1 25.4
L 98.95 25.45 99.2 25.5 100.1 25.5
Q 100.35 25.3 100.35 25 100.35 24.7 99.85 23.05 100.2 22.85 100.2 22.5 100.2 22 99.95 20.65 99.95 20.5 99.9 20.4
L 99.95 20.4
Q 100.35 20.2 100.35 19.8 100.35 19.75 99.95 19.5 99.95 18.5 99.35 16.4 99.35 16.3 99.3 16.25
L 99.35 15.5
Q 99.55 15.35 99.85 15.25 99.6 15.15 99.35 15.1
L 99.35 14.7
Q 99.15 12.15 99 10.25 99.25 10.2 99.4 10.15 99.45 10.2 99.45 9.95 99.45 9.8 99 9.4 98.95 9.35 98.9 9.35 98.7 7.4 98.5 6.25
L 98.85 6
Q 98.6 5.9 98.45 5.8 98.4 5.65 98.35 5.5 98.25 5.6 98.2 5.75
M 98.1 6
L 98.15 6
Q 98.1 6.15 98.1 6.3 98.1 7.1 98.15 8 98.15 8.25 98.15 8.55 97.9 8.55 97.75 8.6 97.75 8.5 97.7 8.4 97.6 8.5 97.55 8.65
L 97.5 8.65
Q 97.35 8.7 97.35 9.05 97.35 9.3 97.55 9.95
L 97.8 11.85
Q 97.45 11.85 97.35 12 97.35 11.95 97.35 11.9
L 97.55 11.85 97.6 11.4
Q 97.6 11 97.2 10.95 96.65 10.85 94.6 11
L 94.6 9.25 94.75 9.2
Q 94.85 8.55 94.85 7.35 94.85 6.7 95.95 6.7 96.35 6.7 97.05 6.35 97.7 6 98.1 6
M 93.65 9.7
Q 93.6 9.8 93.6 10.75 93.6 13.05 94.55 18.8 94.5 18.75 94.5 18.7 94.3 18.5 93.95 18.5 93.7 19.15 93.7 20.7 93.65 21.1 93.7 21.4
L 91.8 21.4
Q 91.75 21.25 91.7 21.1
L 91.7 19.45
Q 91.2 18.05 91.2 17.65 91.4 16.15 91.4 15.4 91.45 14.4 91 13.5 90.85 12.95 90.65 12.2 90.2 10.6 90.2 10.35 90.2 10 90.15 9.35 90.45 9.4 90.8 9.4
L 93.95 9.15
Q 93.8 9.45 93.65 9.7
M 94.8 11.45
Q 94.9 11.55 94.95 11.75 95.8 11.75 96.45 11.85 96.8 11.9 96.95 11.9 96.7 12.95 96.7 14.95 96.55 18.25 97.2 18.25 97.35 18.25 97.4 18.2
L 97.45 18.1
Q 97.45 18.25 97.55 18.45
L 97.6 18.5
Q 97.3 18.65 97.2 18.95
L 96.7 18.65 95 18.65 94.7 16.65
Q 94.9 15.35 94.95 14.65 95.1 13.35 94.6 12.6
L 94.6 11.4
Q 94.75 11.4 94.8 11.45
M 86.6 23.95
Q 86.8 24.05 86.9 24.25
L 86.8 24.35 86.6 24.25 86.6 23.95
M 97.35 17.35
L 97.35 17.3 97.45 17.85 97.4 17.85 97.35 17.35
M 98.1 18.3
L 98.05 18.4
Q 98.0904296875 18.1576171875 98.1 17.85
L 98.1 18.3
M 95.2 19.45
Q 95.45 19.5 95.85 19.5 95.45 19.6 95.2 19.8
L 95.2 19.45
M 95.7 22.25
Q 95.75 20.9 95.45 20.25
L 97.5 20.2
Q 97.55 20.25 97.65 20.25 97.7 20.25 97.75 20.3 97.8 20.35 97.95 20.4
L 98 20.4
Q 98.25 20.55 98.35 20.85 98.1 21.2 98.1 21.65 98.1 22.3 98.7 23.5 99.05 23.35 99.3 23.25
L 99.85 24.95 99.05 24.95 98.95 24.9 96.2 24.85
Q 95.65 24 95.7 22.25
M 99.2 20.7
Q 99.20703125 20.985546875 99.25 21.2 99.2 21.15 99.2 21.1
L 99.2 20.7 Z"/>
</g>

<g id="rover_0_Layer0_0_FILL">
<path fill="#766155" stroke="none" d="
M 5.7 11.05
Q 4.95 11.45 4.35 12.05 2.7 13.7 2.7 16 2.7 18.3 4.35 19.95 6 21.6 8.3 21.6 10.6 21.6 12.25 19.95 13.9 18.3 13.9 16
L 13.9 15.95 9.25 15.95 5.7 11.05
M 26.55 18.05
Q 27.45 17.2 27.45 15.95 27.45 14.8 26.7 14
L 25.85 14.8 25.25 15.35 24.3 15.8 23.5 15.85 21.45 15.85
Q 21.45 15.9 21.45 15.95 21.45 17.2 22.3 18.05 23.2 18.95 24.45 18.95 25.7 18.95 26.55 18.05 Z"/>

<path fill="#424242" stroke="none" d="
M 1 9
L 1 9.3 5.25 9.2 1 9
M 23.4 14.2
L 27.95 12.4 27.85 11.35 20.15 11.15 19.65 12.3 15.45 12.25 14.95 11.05 7.6 8.2 6.85 4.3 8 4.4 7.95 0.9 4.55 1.2 4.7 2.6 3.2 3.05 3.2 3.95 2.85 3.95 3 6.65 1.5 7.35 1.5 8.2 0.95 8.2 1 9 5.25 9.2 5.7 9.2 6.5 9.2 5.7 9.2 9.9 13.95 23.4 14.2
M 12.05 6.35
L 12.15 7.2 14.45 7.15 15 6.8 14.8 6.1 12.05 6.35
M 15.9 3.5
L 17.4 1.95 10.55 3.1 10.65 4.05 15.9 3.5 Z"/>

<path fill="#333333" stroke="none" d="
M 3.9 10.8
Q 3.45 11.1 3.05 11.45 1 13.35 1 16 1 18.65 3.05 20.55 5.15 22.45 8.1 22.45 11.05 22.45 13.1 20.55 15.2 18.65 15.2 16
L 15.2 15.95 13.9 15.95 13.9 16
Q 13.9 18.3 12.25 19.95 10.6 21.6 8.3 21.6 6 21.6 4.35 19.95 2.7 18.3 2.7 16 2.7 13.7 4.35 12.05 4.95 11.45 5.7 11.05
L 5.4 10.65 3.9 10.8
M 27.5 13.45
L 26.7 14
Q 27.45 14.8 27.45 15.95 27.45 17.2 26.55 18.05 25.7 18.95 24.45 18.95 23.2 18.95 22.3 18.05 21.45 17.2 21.45 15.95
L 21.2 15.95 19.45 15.95
Q 19.55 17.5 20.75 18.65 22.05 19.85 23.85 19.85 25.65 19.85 26.95 18.65 28.25 17.45 28.25 15.75 28.25 14.45 27.5 13.45 Z"/>

<path fill="#1A1919" stroke="none" d="
M 27.5 13.45
L 28 13.1 27.95 12.4 23.4 14.2 9.9 13.95 5.7 9.2 5.25 9.2 1 9.3 1 11.1 3.9 10.8 5.4 10.65 5.7 11.05 9.25 15.95 13.9 15.95 15.2 15.95 19.45 15.95 21.2 15.95 21.45 15.85 23.5 15.85 24.3 15.8 25.25 15.35 25.85 14.8 26.7 14 27.5 13.45 Z"/>

<path fill="#FDFBF6" stroke="none" d="
M 25.75 7.05
L 25.8 7.25 25.95 7.25 25.75 7.05
M 26 1.2
L 25.95 0.65 25.25 0.6 25.25 1.2 26 1.2 Z"/>

<path fill="#A59074" stroke="none" d="
M 21.15 2.05
L 21.5 0.3 18.25 0 8 0.9 7.95 0.9 8 4.4 6.85 4.3 7.6 8.2 14.95 11.05 15.45 12.25 19.65 12.3 20.15 11.15 27.85 11.35 27.5 7.4 26.85 7.35 26.4 7.3 25.95 7.25 25.8 7.25 17.6 6.7 17.65 6.35 23.35 5.4 21.75 3.45 22.2 2.35 21.15 2.05
M 17.4 1.95
L 15.9 3.5 10.65 4.05 10.55 3.1 17.4 1.95
M 12.15 7.2
L 12.05 6.35 14.8 6.1 15 6.8 14.45 7.15 12.15 7.2 Z"/>

<path fill="#DAC9AF" stroke="none" d="
M 25.25 1.2
L 25.25 0.6 21.5 0.3 21.15 2.05 22.2 2.35 21.75 3.45 23.35 5.4 17.65 6.35 17.6 6.7 25.8 7.25 25.75 7.05 25.75 6.95 25.65 6.95 24.4 5.85 23.5 5.85 23.5 3.35 22.95 3.35 22.95 1.2 25.25 1.2 Z"/>

<path fill="#0A5F69" stroke="none" d="
M 26.1 2.55
L 26 1.2 25.25 1.2 22.95 1.2 22.95 3.35 23.5 3.35 23.5 5.85 24.4 5.85 25.65 6.95 25.75 6.95 25.75 7.05 25.95 7.25 26.4 7.3 26.15 3.75 24.7 4.75 24.4 3.8 26.1 2.55 Z"/>

<path fill="#058391" stroke="none" d="
M 26.5 0.7
L 25.95 0.65 26 1.2 26.1 2.55 24.4 3.8 24.7 4.75 26.15 3.75 26.4 7.3 26.85 7.35 26.5 0.7 Z"/>
</g>

<path id="pods_0_Layer1_0_1_STROKES" stroke="#444444" stroke-opacity="0.2901960784313726" stroke-width="1" stroke-linejoin="round" stroke-linecap="round" fill="none" d="
M 126.9 5
Q 127.9 6.25 128.4 6.25
M 124.65 4.75
L 125.45 5.4
Q 126.25 6 126.4 6
L 126.4 6.25
M 121.4 9.5
L 121.65 10.75 121.9 10.75
M 90.15 18.25
Q 91.15 19.9 91.15 20
M 87.4 16
Q 89.35 19.15 89.4 19.25
M 106.15 13.25
L 106.65 14.5
M 120.4 9.75
Q 121.1 11 121.35 11.65 121.5 12 121.65 12.5
M 111.9 12.5
L 112.4 13.75
M 111.15 11.5
Q 111.15 12.75 111.4 13.25
M 109.4 11.5
Q 110.15 13 110.15 13.25
M 76.4 13
L 76.95 13.65
Q 77.5 14.25 77.65 14.25
M 64.85 13.85
Q 65.2 14.75 65.35 15.25
M 66.35 14.6
L 66.35 15.75
M 78.9 13.25
Q 79.4 13.9 79.95 14.6 80.25 15 80.4 15
M 48.6 13.75
Q 48.15 14.4 48.1 14.7 48.1 14.85 48.2 15.1
M 49.2 14.75
Q 49.25 15.25 49 15.85 48.9 16.15 48.7 16.5
M 49.85 16.35
Q 50.05 15.5 50.6 14.6
M 20.45 17.35
Q 20.75 18.3 20.8 18.9 20.8 19.4 20.85 19.5
M 21.95 18.1
Q 21.95 19.25 22.1 19.5
M 22.7 18.85
Q 22.85 19.25 23.2 20.1
M 25.1 19.75
Q 24.8 19.3 24.55 18.9 24.1 18.2 24.1 17.75
M 25.45 18.6
Q 25.5 17.7 25.3 17.3 25.05 16.9 24.95 16.6
M 37.9 21
Q 38.2 22.55 38.4 22.75
M 35.9 20.5
L 36.2 21.15
Q 36.5 21.75 36.65 21.75
M 0.35 19.25
Q 0.95 19.95 0.95 20.25
M 2.45 18.25
Q 2.85 18.85 3.1 19.6
M 3.7 17.5
Q 4.2 18.25 4.2 18.6
M 4.7 17.6
Q 5.1 18.4 5.1 18.75
M 19.35 17.6
L 19.85 19.5
M 18.1 17.85
Q 18.7 19.5 18.8 19.9 18.85 20.15 18.85 20.85
M 17.1 19.1
Q 17.6 20.1 17.6 20.5 17.6 20.55 17.55 20.55 17.45 20.6 17.35 21.1
L 17.7 21.1
M -3 11.75
Q -2 13.25 -1.75 13.25"/>

<path id="rover_0_Layer0_0_1_STROKES" stroke="#424242" stroke-width="1" stroke-linejoin="round" stroke-linecap="round" fill="none" d="
M 1 11.7
L 1 11.1
M 26.7 14
Q 27.45 14.8 27.45 15.95 27.45 17.2 26.55 18.05 25.7 18.95 24.45 18.95 23.2 18.95 22.3 18.05 21.45 17.2 21.45 15.95
L 21.2 15.95
M 25.85 14.8
L 26.7 14
M 23.5 15.85
L 21.45 15.85
Q 21.45 15.9 21.45 15.95
M 0 9.3
L 1 9
M 1 11.1
L 0 11.2
M 5.7 11.05
L 9.25 15.95 13.9 15.95
M 5.7 9.2
L 6.5 9.2
M 13.9 15.95
L 13.9 16
Q 13.9 18.3 12.25 19.95 10.6 21.6 8.3 21.6 6 21.6 4.35 19.95 2.7 18.3 2.7 16 2.7 13.7 4.35 12.05 4.95 11.45 5.7 11.05
M 1 9
L 5.25 9.2"/>

<path id="rover_0_Layer0_0_2_STROKES" stroke="#7E6E59" stroke-width="1" stroke-linejoin="round" stroke-linecap="round" fill="none" d="
M 23.5 15.85
L 24.3 15.8 25.25 15.35 25.85 14.8"/>
</defs>

<g id="hills" transform="matrix( 1, 0, 0, 1, -1,14.5) ">
<g transform="matrix( 1, 0, 0, 1, 0,0) ">
<use xlink:href="#hills_0_Layer0_0_FILL"/>
</g>

<g transform="matrix( 1, 0, 0, 1, 138.85,16.05) ">
<g transform="matrix( 1, 0, 0, 1, 0,0) ">
<use filter="url(#Filter_1)" xlink:href="#rocks_0_Layer0_0_FILL"/>
</g>
</g>
</g>

<g id="settlement" transform="matrix( 1.1293792724609375, 0, 0, 1.1293792724609375, 8.8,23.5) ">
<g transform="matrix( 1, 0, 0, 1, 0,0) ">
<use xlink:href="#settlement_0_Layer0_0_FILL"/>
</g>

<g transform="matrix( 1, 0, 0, 1, 3,0) ">
<g transform="matrix( 1, 0, 0, 1, 0,0) ">
<use xlink:href="#pods_0_Layer2_0_FILL"/>
</g>

<g transform="matrix( 1, 0, 0, 1, 0,0) ">
<use xlink:href="#pods_0_Layer1_0_1_STROKES"/>
</g>

<g transform="matrix( 0.1595306396484375, 0, 0, 0.1595306396484375, 106.5,0) ">
<g transform="matrix( 1, 0, 0, 1, 0,0) ">
<use filter="url(#Filter_2)" xlink:href="#pod_end_0_Layer0_0_FILL"/>
</g>
</g>

<g transform="matrix( 0.1683197021484375, 0, 0, 0.1683197021484375, 91.5,0.55) ">
<g transform="matrix( 1, 0, 0, 1, 0,0) ">
<use filter="url(#Filter_3)" xlink:href="#pod_0_Layer0_0_FILL"/>
</g>
</g>

<g transform="matrix( 0.1683197021484375, 0, 0, 0.1683197021484375, 76.5,0.8) ">
<g transform="matrix( 1, 0, 0, 1, 0,0) ">
<use filter="url(#Filter_4)" xlink:href="#pod_0_Layer0_0_FILL"/>
</g>
</g>

<g transform="matrix( 0.1683197021484375, 0, 0, 0.1683197021484375, 60.75,1.05) ">
<g transform="matrix( 1, 0, 0, 1, 0,0) ">
<use filter="url(#Filter_5)" xlink:href="#pod_0_Layer0_0_FILL"/>
</g>
</g>

<g transform="matrix( 0.1683197021484375, 0, 0, 0.1683197021484375, 46,1.05) ">
<g transform="matrix( 1, 0, 0, 1, 0,0) ">
<use filter="url(#Filter_6)" xlink:href="#pod_0_Layer0_0_FILL"/>
</g>
</g>

<g transform="matrix( 0.1683197021484375, 0, 0, 0.1683197021484375, 30.5,1.75) ">
<g transform="matrix( 1, 0, 0, 1, 0,0) ">
<use filter="url(#Filter_7)" xlink:href="#pod_0_Layer0_0_FILL"/>
</g>
</g>

<g transform="matrix( 0.1683197021484375, 0, 0, 0.1683197021484375, 15.5,3) ">
<g transform="matrix( 1, 0, 0, 1, 0,0) ">
<use filter="url(#Filter_7)" xlink:href="#pod_0_Layer0_0_FILL"/>
</g>
</g>

<g transform="matrix( 0.1683197021484375, 0, 0, 0.1683197021484375, 0,3.5) ">
<g transform="matrix( 1, 0, 0, 1, 0,0) ">
<use filter="url(#Filter_7)" xlink:href="#pod_0_Layer0_0_FILL"/>
</g>
</g>
</g>
</g>

<g id="rover" transform="matrix( 0.4964599609375, 0, 0, 0.4964599609375, 57.15,36.75) ">
<g transform="matrix( 1, 0, 0, 1, 0,0) ">
<use filter="url(#Filter_4)" xlink:href="#rover_0_Layer0_0_FILL"/>

<use filter="url(#Filter_4)" xlink:href="#rover_0_Layer0_0_1_STROKES"/>

<use filter="url(#Filter_4)" xlink:href="#rover_0_Layer0_0_2_STROKES"/>
</g>
</g>
</svg>
